<mxfile host="app.diagrams.net" agent="Mozilla/5.0 (Macintosh; Intel Mac OS X 10_15_7) AppleWebKit/537.36 (KHTML, like Gecko) Chrome/137.0.0.0 Safari/537.36" version="27.1.6">
  <diagram name="Page-1" id="R-AVBtOuHvCJckb2Rn0v">
    <mxGraphModel dx="1305" dy="763" grid="1" gridSize="10" guides="1" tooltips="1" connect="1" arrows="1" fold="1" page="1" pageScale="1" pageWidth="850" pageHeight="1100" math="0" shadow="0">
      <root>
        <mxCell id="0" />
        <mxCell id="1" parent="0" />
        <mxCell id="criwHfPJJqmuLG_6KfQK-4" value="" style="shape=image;verticalLabelPosition=bottom;labelBackgroundColor=default;verticalAlign=top;aspect=fixed;imageAspect=0;image=data:image/png,iVBORw0KGgoAAAANSUhEUgAAAUEAAACdCAYAAAAqhcrRAAAAAXNSR0IArs4c6QAAAERlWElmTU0AKgAAAAgAAYdpAAQAAAABAAAAGgAAAAAAA6ABAAMAAAABAAEAAKACAAQAAAABAAABQaADAAQAAAABAAAAnQAAAABfwIT6AAAiJUlEQVR4Ae1dCZAVxbKtgQFmmIGnhruCG2qouAKGu/j8bk8WRVGeSBASigJKKKFCfBSf+iFQn3xDxQ0/yHP5KKCioE8UAxUVwxVXMELl44ZLiDIzzLA5v07P1KVvTy9Z3dXbvZkxE/fe7qqsrFPV2VVZWVkVzZIEEyPACGQGgebG9aLxjYViy3dfiq4j/pEZuUpVkMpSrRjXixHIGwJ//vGLqJ8/XTS+cLNoXi9E1Vmj81aFXMrLSjCXzcZClxICm7/+VNTP+afYuHS2EB2FqKjuIkR1XSlVMdN1YSWY6eZh4UoZgabl/xYNC6aLzR8slMM+qfz+IpUfU+IIsBJMHHIusJwRUPa+uoeGimYM9qD8urLyS7NPsBJME30uu2wQgL2v4fmZYsOCyaK5sc6a8lZ0LZvqZ7qirAQz3TwsXN4RcLP3WTa/vFeshORnJVhCjclVyQ4CbO/LTlsEScJKMAghvs8IEBGAva/hpf8VDY9dwfY+ImZZSMZKMAutwDLkGoGtv34nGp57uMW/r6nFxYXtfflpUlaC+WkrljRjCGxa9a6of+IOsentuQX/vorqjAnJ4gQiwEowECJOwAgUI9D4+rOiYe5tYsuq5dKpmf37itGJ9gsmhYrqZJfN20UTmXMzAuWBAB7ODYufED+dXyH+mHyu2Prjcsu5uaIj+/hF7QHAtv7ZB8Xa0yvE5jWrorLTzs8jQW3IOEM5IVDYz/viNPbvM9zwsKXWz50umpZMFc3SlpoWsRJMC3kuN9MIsH9ffM1TZEuFOUGOpmFLbd6czn5pVoLxtTVzziEC7N8XX6MVsH1f7pXOkC2VlWB8bc6cc4IAbFKI38f7ec03mCu2GQsUwUrQfLszx5wgUNjP++wEy7kZgQzYv89M47XBVq4fZTVQBCtBM23OXHKEgKu9L1mvjByhpSfqlh++EvVPThNNL963zXcy49iyEtRrY06dYwSyapPKMaQF0TeueEM0PH2P2LRcOo7nLDYiK8FCM/KXUkQANilrP+/j18mQ9XL1MWcPaJbbRNn7GuZOFlvXfJ7b2IisBLPcy1i20Ai02c/LwUtDY+nMWMAWvpPyxVKRYXufU3a336wE3VDha7lFwMsHLbcVypDg7rbU/O+YYSWYoU7GooRHgPfzhscuKCfsffVzbi/Zs1BYCQb1AL6fWQTghrFh8RxR/9hYIRDCCtOyjPmgZRa8AMGUva9uhoyNqGypJXoWCivBgM7At7OHAKZlDYtmiaZXpgmxVSo+HFEpj6pkio6AerE0PDWxJOx9FERYCVJQ4jSZQKAwLVPbrjiCi7F2sfz75t8nmp6XL5bWs4+z6txsrNKtjFgJmkaU+cWCQN1jt4mGf03I1J7TWCqaMFO8WDYs+p+Wg98ztJ83SRhYCSaJNpcVGoHmTY0tCpBHf6ExtGfEQlL9nP8SW796v+x9J1kJ2nsGf2cEShgB5TjeuOhuy7k57/59UZsKeCCIKyvBqEhyfkYg4wjA3tewQB4EtWiqJWlFmTuOw9l7w78ft8wrVf3HsRLMeP9l8RiB0AgU7eft0LqKHppb/jPCkb5h/nSx8bXZQkg8rJiGlR1ZCea/abkGjMA2BDDFa3r3VVE3Y5T48+e1ud3Pu61G0b/hZVD38PViy5fLi/Bo3tQSyZqnw9ExZg6MQOoIWPa+hbPFhuemWMqP7X0tgTMs++f/fW7FifRy+WElmHr3ZQEYgfAIFPz7Fkr/Pkx5y9zeV4hnuETGM5Rk4RGwi4iVYPj+xzkZgdQQKLJvlbniQyMUAmeoeIbYRUQkVoJEoDgZI5AFBBAYtu5fN2zz7yvR/bwUrDdt2iS2Ln9B1D86MVI8Q1aCFLQ5DSOQIgJqP2/j4gfYv0+2g/J33DD/H0bsn6wEU+zcXDQj4IVAhbTvwZ/t9/8eIw8nt9m3ynjkpw5vapgjt09KMmX/ZCXo1Qv5OiOQJgJyeXfLqufE5k/Zv68QNeglufgjyYoaZLBtWAkaBJNZMQJGEZCKsKKMQ4TB/ln/+M3b/Ps0Fjt02oGVoA5anJYRYATiQwAmgJ++F/UfL0/U35GVYHxNypwZAUZAAwFMc/+489yWQLkJuv2wEtRoJE7KCDAC8SJQkUKotHbxVom5MwKMACOQbQRYCWa7fVg6RoARiBkBVoIxA8zsGQFGINsIsBLMdvuwdIwAIxAzAqwEYwaY2TMCjEC2EWAlmO32YekYAUYgLgSa5O6TTp04snRc+DJfRoARyCYCzY0yonR7GV3/nAmiy9/5jJFsthJLxQiUGQIq1H1sfoLNdUL+CUTcrr30AdH5lEGi3V92slBmZ+ky62xcXUYgSwhYym+rEB17DRYd9u8lGuZOkPul6QFRg+pi8ZfT3vb79RK1Y28Q1Sed0yYLK8E2kPAFRoARiBUBjMqkYhKbW6akNQMvFZW77ycQMEHguoGgEZbya5Ssjh0sai+6TnQ8sI9nlVgJekLDNxgBRsAoAq1T0nY77ypqLvxPUdNvuAyL1dVsEa32vqr/GCdqzxttKdegAlgJBiHE9zOBQPPGjZmQg4XQR0CNytr3aJmStj/mb6JjRwPDPSWK3d43/G7R+fQhBXufSuL3yUrQDx2+lxkE4MrAlC8ErFVYKTLsfUFT0jA1U/a+ygOOETVjx7va+yh8WQlSUOI0qSPAI8HUm4AmgLL3ydSdB90kOp85jDQlpTFvSWUp101CdOo7XNScN8bX3kfhy0qQghKnYQQYAV8E1KisffeDRfXZY0XNGX83a+9rVa44VwTKtWbApaL9jnv6ykS9yUqQihSnYwQYgTYIKHtfh179RM3AMaLqmDPbpIlyQfFvt8uuosvIO0X1if3MKlcpHCvBKC3EeRmBmBDAw2/SX860mGrXRVXf0VL5jRId9u1ptAg1suxwVDzK1S4sK0E7GvydEUgTAWVPk/5zVWeOFhvfejRNadqWHXEVti1DlyvN8lzhP+pE1VnxKFeXEnkk6AYKX2MEEkVAKRd5pnDNkInSv22UVfzPb8rzhrHPK2VSozLY+2rHTg69CkupRvW5cj/vReO0XFwofP3S8EjQDx2+xwjEiICydyn/uao+fy3Yu3DQeNqk5IO9r3bI9aLT4SfGKhLsiaZtihSBWQlSUOI0jIBBBCzlIvfLdjh8gKi94NrYlYuu6HZ7X+2FMsqK3NJWysRKsJRbl+uWHQRs9j6EcOp8xlDjiwmRKqvkkyGm4IJSK/3vVJSVSHxzkJmVYA4aiUXMMQKt9r4498tGQcdu76sZPFFU9j3f7Ja2KMIllJeVYEJAczHREGjeIrcI5IiUPU3Z+4zvl42IhZKvQ58Boqb/qFRscRGrYCw7K0FjUDIjRkC6d0j/PtEaHy+O/bJRMVb7eatOHS3Kwd5HwYuVIAUlTsMI+CGg7GkyTfXZE6TzcEt8PL8sid5rnZILueWsNkSUlURlTaEwVoIpgM5FlggCebL3jSxPex+lp7ESpKDEaRgBGwLKnlZ5YLQQTjaWRr8q+eLaz2tU2AwwYyWYgUZgEfKBgLKnIT5ezaCrsunfJ6HsdNxw6dx8bbZccDLcxKwEM9w4LFoGEFD2Puk/VzNkqqj+6/nZch5unZJjdx3k63zmUGMhpjKAfiIisBJMBGYuJDICW3ACT3JkTSllkfDviyuEU5TaKPmwn7eG7X1RoOQACpHQ48zJIVAplzYToKzb05R8OEUti1PyBJrIeBE8EjQOKTOMBYGYR4LK3pdVe1phP6/GKWqxtEMJMmUlWIKNylUiItBq74sjZDtRgsBkzetlcFVp72P/vkCoQidgJRgaOs6YVwTs9jSch9Hxb5dkcr9su+3jj9+X1zY0KTcrQZNoMq9MI6DsaXnwn0MEl51mfJZpPEtFOFaCpdKSXA9PBJS9D/tl4zgPw7NgvpELBFgJ5qKZWEhtBFr957Bflv3ntNErqwysBMuquUu/ssrel1X/vtJvgfzVkJVg/tqMJXZBwG7vS+I8DBcR+FJOEWAlmNOGY7FbEGB7H/eEqAiwEoyKIOdPHgHHftma/iPK5jyM5MEu/RJZCZZ+G5dODWXEZjgP837Z0mnSLNSElWAWWoFlCETgz99/ER0OTeb820BhOEFJIVDRLKmkasSVCUTg119/FUuWLAlMhwRVVVVi4MCBvmkXLFggmppoUV5OPfVUseOOO/ryc7uJw8jL5QhIt/rztfgQYCUYH7aZ5fzpp5+KQw89lCTfAQccIFatWuWb9pBDDhGff/65bxp185NPPhE9e/ZUP/mTEUgdgXapS8ACZBqBLl3k7v0A6tq1a0AKvs0IZBcBVoLZbZvcSLZ58+bcyMqCMgJOBFgJOhHh30UINDY2Fv12/ti0Se9Q9I0bNzpZ8G9GIFUEWAmmCn8+CtdVdPmoFUvJCLQgwEqQewIjwAiUNQKsBMu6+bnyjAAjwEqQ+0BkBILshpELYAaMQIwIsBKMEdxyYb1lyxZyVdm+SIaKEyaEACvBhIDmYhgBRiCbCLASzGa7sFSMACOQEAKsBBMCmothBBiBbCLASjCb7cJSMQKMQEIIsBJMCOi8FvP7778LXszIa+ux3BQEWAlSUOI0jAAjULIIsBIs2ab1rljnzp29b/IdRqDMEGAlWGYNztVlBEwiUAqmEg6vb7JH+PBCZ/nuu+/Et99+K2BnQyTmDRs2iPr6+qKozIi6vMMOO4idd95Z7LXXXmL33Xf34cq3FALffPONWLNmjYUtPleuXClUiC/gidFvt27dLGy32247gUCwYSJcq/LS+EQw3K+++kp8+eWX4qOPPhI//fST2GWXXcTjjz+eiDjowy+++KL47LPPxKuvvmr1ZfTf2tpagbiTHTp0ECeffLI466yzxLHHHis6duxoTC5EQ0e5H3/8sVi+fLn4+uuvC+2LQlD2UUcdJU4//XTRp08freemcujQoeK9994TlZX++hC7As4991wxdepUYxUDqJ06dQrkd/DBB1sABCbUSDBr1ixxww03CDwQfgSFNWzYMK16o17oqMuWLROrV68Wzz//PDnyspssF110kRgwYIAIG5rejWda14BNVMIDgAjVK1assB4IPJhhafTo0eKCCy4wphSp/Yr6POHhnzdvnhg1apRrFfFsAFOnwkG+448/PvC5BlNEBfc7ZQN433nnneK+++5zlcF+EQrqtttusy5ddtllYsKECWLfffe1JyF/h4JdtGiRuOuuu6x2DsqIspWMiIh+yy23iLPPPttS0r5558yZgzNGyP84k8QUvfXWW+Ry5RvQVLEWH/m2Ipe9dOnSwLJlnLzmZ599tlk+VM1y9EbmrYM90o4fP775+++/D5THLwGwpJaLutTV1XmyQ71lhyPzo2DpVhhkvv3225t79epFLotaR5UObSeVq1vx5GuQUfEL+hw8eLAvXwovqQSb0QZOQh8JKt9+35kfv8EXmNjThfkOHn59yK3su+++O3K5SlboOD8Sv/zyi1ZhctTox0/rHh5oJWjQJ0AxRbp1ppQrR2vkugTVlXL/5ptvdu38FFnzqAShMCi4mEiDtgz70qUoLiUjynEjlE19scSlBPGyUnKa+sSgJ4jwEopjEIFBj5cibge7CKZZVIItwBQ9+OCDZFb33nsvOW1QwjfffDMoSeE+hvQUqqmpoSQzluamm24S++yzj2UbMcY0w4yCzBYmRX/iiSfEfvvtJzC1TZpg90PZMKekRU8++aTo27ev8eKPO+44Ad5e9MADD1gHgP3www9eSUJfh8lEziIEzAROslaHzz//fOd1z99+lfDM5HLj/ffft4zYLrdcL6FTwDZhghYvXkxmA5tpVgmdBQ/Ma6+9llURcy3XiBEjxJQpUxKrA/o39RTAuISCIhoyZEhc7C3eOKLVSWPGjPG0ezrThv0NHbL//vu3cf63lOAZZ5xB5gvlZUJTv/TSS+QyVUIYSU2QMp5SeGEVMeuEt/bbb7+ddTFzKd/EiRMTUYRYBMBIJU3CAMdrAcakXOecc47Aar4iKECdZ1LlC/OJhc5LLrmkKKulBDGt2mmnnYpu+P144403/G6T7k2fPp2Uzp7I7Q1iv0/5DiVOJazK5sWNAlMNEy8nKjbllA6K0ETf88MMK9R4QNMiTMPjHAE664VnC4TV46QUoJIB5g777MlSgrh54403qjSBn88991xgGr8EADzMA7tkyZJQ+eyy6IxA0THzROedd16exM2VrBi9YLQWB2EEFsXNx00mubLrdtnzms5s0JOJxg24s4wcObLgTqOR1UhStKeighKEPw2VoEmjUJQG11FibjI+/fTTbpddr8HpM0+EjqVTvzzVLQuyjhs3zqgYWEyDj1+SIzCvCoQZlHjxol6fMWMGNanxdBh1q9F9wUMaDo2wSVCnixhOniy9w8NQlMUVTKOdc3qqDLBDUOsnXTLaOKBSy3FLB3PDaaedJk488UTLQRw7GKqqqixnbTQIdpCsWrVKYJRNldGtHIzoBw0a5HarZK9h5Rg7FE444QSx2267WbtDFLao9Nq1a8XPP/8s8PLGiyIs4aEdO3as6NmzZ1gWRfmwy0HHQ6Ioc4I/4CEBD5IePXpYfRejTOx+wgJj3FNZOD1feeWVonv37mLPPfe0Xhpoyx9//FE8/PDDkZ4VYD9w4EDpfWujyZMnk32D4OMXhuQKGLkM2c6uacM6C99///2u/NzKmT9/vlb1ZEcp4g2/Nvg2wq/SzZnVjzn8GKM4iwY5JOfRT9COr3wgLcdpYOvl++WFL9oC+MjpUFF7ufUBt2uQw490/ARRD7cydK7Bedytf5l4zvC8BBHKnjlzZuR6OOsMnCmO69AF8Ld05qf+tnyG7ZVEp6JmhpNmGNJRRF6yAPQwpNPpAI4OoSHg4ArZdPN6lYMHPIzHPmTxo7wqQSiYsE7Mbnjo7pZS/dFN6Sj+OkpQ8aN+ol0hM5yO8fCjf3jJEkUJypG19q4ktAvyUevilw47r3QpbFtaTuHOwvyEc94L0yGhPJ18dH/D+1uX0GGo5WCUoEu6IxId/tgdQpVdpfN6OFBuHpWgDl46aXVe/Apbv4fUtBJEX6fstHDWOawSDKMAVdm6W/UUnvbPoFmMKsvtM8zsCe1VWBiRglgkp7nqa+CnjtMxmMEmh83aUQkLK26e3358dexsYQzViKQRF02aNMmKzKHDHwEGmIIRgB1cjiKCE9pS6PZ7W1atr1IhiBdeeMGyd2pljJD4lVde0YrAYi8KEY90sbTnh+4Ju84APldddZU45phj7CwDv8sXjGijBLEgQCVdVxk0qimCu4wO6YQb0lkp15EhSlrdbYPvvvtulOLKKu+FF16o9ZJ55513YsVHTnuFHMlHUghhBIQSiuqwDSzlbC9M8VbUl1AZbZmmTZtm+xX8FYOyNkoQ23aojtMYken4TukqTb8qzJ492+920T3IKKcwRde8fmAVLM5RnVe5Qdexeq/jssMjwSBEi+9ffvnlxRd8fmFWoTsT8WFXdAsKEC9sZ2isokQx/YDfngm69tprtdnIRVkjdYaXgA5hpbmNEgT4OqNB6ogMnYaiiFA2lsWDSGdKDNcTuVgRxNK6L1elSOnSSDR8+HBysWn4fZGFy2BCnRcMxJc2YOO1wFROZ8ZiUgDUP2zcP6ccYaa0iJdpiqQNncwK7mltlCBy6+yUoNpHXn/9dZJg2EeI4K0UokaD0Yl8Az++rBL8tKgE3zgmOgJ4+cOmRSVpmKcmJadD8F1TRAlWbC/LpBIKo0wpAx+7vH7fdf04XZWgjibH6I4SLZjqVInhrOXA6FfL1ntPPfUUIZUgb4DH21DnQSAV7kgErDA9xz9Gx/inmhQQbp9Kv/32G6ldqPzykM4LW0r/RP10bME4GsEkSb/UVPepH3744Saro7VAgefO5PRfV6EWdow4EcC0kLKtBdMuhKjx07540CnTZpQJMGCcxS6AoA3l2AEAr28/Gx7kC+Kj6q5jBlB5vD6h2GA7+uKLL8QHH3xgedivW7dOrF+/3pIHD5GSCzZY/GO3A87DwBkJRx99tBX2x66UdYI5oCw8/FE7lzqnw6ueaV2XLiBWiH2cO4F/nLeB81uAux1b9COc1wJct99+eysGI+y+eKE4FwGwIyENwkOb9i6fXXfd1WjVsbZA3Z1z2GGHGS1bN7anpxLEW5GiBCE97HN+SpA6FVax+/DgwkBMGT1CufqNHHX2GkfdRI4HUOdMBNXysFfiX7kPzZ07V92yPvFywIMLxUilrCovqvxu6aD44IKBqC5UwotGvWxUHnu/giKEAsJ5HGkRzsJIm/bYYw+jIuClQyXTR8DqmgKKts3ZHRB1nItlR7JnbfMdnu4SkMB/u8PxUmJ4b/D2I+r2KPk29mMTeA87YUx5zFOwCkoDWex42iug4yztxwc84ZQN7ILkUffRrroEeantqMqJ+xNO1m4Uxlnaq53c+FOv6TouU/lS0+k4+COtSdKtu6tNUHYga4qJ0RiF/FwGMDqiRJ1BWfZpLdUuCd5eNh/qijTqeM0111Cq2iYN6o5pFoJROkccbRLzBW0EEG8O0bMpngXazDOQAaN8e7/PgEhlJ4KnEgQSOvHpvKa8FFsgynJbkZb7ZnErkLyiKsNWRKUwU2GEIu/du3dJKz9EOkmD8AIDtur4xjRkCFMmotfokM5ijA5fTktHwFcJ4iBjKj366KOuSal+T25+Wm6K0a0QrzKoq8fwz0J0bR264447EglFriOTPW2eR6XYXomFIoyyS53SPlOk1PGl1M9XCWKYTt2Lh+kKpr52wm+nkd9+X31Xq8Lqt/p0rt6p685PLOC4TYntBnBnHvtv6rRf5UHg0uuvv1795E+DCKAdERewXAgr10zpIuC5OqzEuvrqq8mRb7FVy75thfom95oSQAlDQVJWqTElttsRqWWjnv369VPVDfzENE3HTOBkiBEvXAL23ntvcdBBB1kuLFgNV0ocwSJx/MCHH36YGztYly5dnNUM/RsBc8PudsGeVazyYnQFjIGrchECvmvWrLEC1yIgKFaaqaaa0JUJyAjXGLYHBoCUwO1AJaizg+Lll18uUoLU6aifewLVVQdl2ZUg1TUGfmQ6U2Gc96tL6Oww8Pfv35/kEKt8xjCSxt5GRPF+6KGHyH5XuvJlJT1eXJRFNKe82CY1bNgwATcPpfScafDb/oLGb+CLLZWIJAL7rnJRwr0kyOTLIwl5S7YMytK0HL2QXCDgTqEIrhMStMB/6aCssrh+UvmgLDvBbYdSPmKQUSlMjDa4TJgiuFIAY0q9/FxbdFxkpLO2p6sN6oX2oWINuf1cZODuRKmbSoMguXCHMEU6kdW9XGR0YtpJU5Mp0dvw0XUTacMg4oWScJGRHa1A1H2FMMZjmgHyWrEtMG39ohykndfVb7zZMSWmkCpT5ywRr6m4W3kLFy50u+x5DY691113ned93RuYOsFdhEJ5WxjBqExnFAhbNWLt2XfUUHDxS6Pj4OvHh3pPd2cDlS+n00PAd2FEsdJxH1EBFahTYeyECCKqolKnR1Gnwlh40dnsfeuttwaJWrgPxY3YaqZJjgZNs0yUn9d0Vdc+h2ADXrySqJCy4UYpi6fDUdAzl5ekBGEzo75x582bZ0lHWZl1Okh7VcvPZmjPo9x0cAoVhZTtjZIWIxVqOC7ww6lkcRD2aZciqVE8pW6wAerso6bwTCNNWj6YadQ1y2WSlCAqAMM+hfBGpx6pSfUDRIenuLFgVRFlU1eGqdN81Hv16tWU6ltpsErpt5eazKiMEiKsO5WoMwMqP5UOkXeSJFaCSaLtXRZZCep0PMT6pxB1hAdeVIWpcz6IjqLSmYbqhLyi4KTSKHur+l1Knzr4YptiHGQynl8c8jHPeBAgK0HYzqjOy5Rpo9wQrzWlcdtREgUShPOOi7SjWBAFgasMleD6kyeCuSFNQvnU0E+m5OSFEVNIRuNDVoIoRmf6GCQW/Lp0CEZwypSYytNkXZxlIq5dHDR16tQ42OaOp+mApgBg1qxZiePQ0NCQeJlcYFsEtJSgzkJC26KKr+jsS1Y5qVNild7rE87L+NchnZVI2CTD7nrwkumee+6xgtd63U/rOnAxYdvSGbkuW7bMaHVhZjC1kKWDBY8EjTZjaGZaSlDHhuYnESI4h9kupGND9CsfZ5joKDXw0rXzmTxZD9NgUw+pHy5u99BOuli58Qm6dsQRRwQlKdzHC8EUYRpM9b00VSbzyRYCWkoQosM9ISrpLF7Yy8IqMWyJUSlMGH1dlwzEF8Qe4KiEaVrfvn2jssl8fh3zBLa3TZkyJXKdMAJkX73IMOaegbYS1Fkl9kLnpJNO8roVeF3XlujGkLrA48yr+wLARn6dxQx7edj1gt00I0aMsF8u2e84V0WHEGIf4czCEl4uPAIMi15p5dNWgniwqYezu0GFVV7dUZWdTxhboj3/+PHj7T+1voexiWIUd8ghh1j+i4hA40e4D6UJ2ydW43W2kfnxdd6rqKhwXkrst9fUGvWFf6UOIZwZ6gKFRrHB4sWCqTTylMvLRQfPck0bGEXGCQw6MaaTlB0hzrz4rXOAuFt+2KhQPiVOoVt+v0OZ3NLbr8EmCiWOg6V0CNM3ZQJAfpxqhn/EksOBSCtXrrSimehuHdORwZ5W7o23/8zM90mTJhVw0hFKKTRswTzwwAOtUFo4ua+pqUnIYBHWaXSY+ibtAqNTB06bHgLaShCiYqQSVgmamE5DoYRRgtj6F3YqrJpIRoXRVoIqLz51Fag9r6nvOiPByspQXSSUqNhrDUUYdmsgXiJJvUi8KhiXj6hXeXw9OgLa02EU6YzLRhUDixphVoWd/MPaFFG+13TMWYbXb4wGo0ypvfhSrs+cOZOSLNdpcAh5GoQ2NbHolobsXGY0BEIpQSgSangru3hqSmi/FuZ72FXiiy++OExxbfLAaTnpB2bp0qXWQkkbYTJwwaS/G14ySZ8sBwXIjugZ6EgpiRBKCULWMNNanSjVQXiEUahhR7BusjzzzDOJKUJEPkbU7PXr17uJEvu1qKNnu4CU6SLstlD6SZAMglpQgDJAbBJFchkZQyC0EqTEAbTXFemp4bjs+by+6yph6vGdXuW5XYcijHOKigUgBBYwqbzd6uF3rbq62u92bPeg9LGoobtiTBUIfMGfGuyDypfT5Q+B0EoQtj2dvbxhps9+cKJ8naAKprbcOWXCwUBYedTBwsnD+Rtb+jASQmDasDbUJCNLmxwp2rGA2wwOnLr//vvtlyN/h90RZ1KDf5rEe4fTRH9b2ZGW/qBYqL5suiPHbSJ6f4O7DXW1NeqqsLcUwjqoCWcfw3kXn4888oj2oT1QfHCOhi+i1/ZEHOwNH83u3bv7iWPdw15cL+WEKSlG5XAjCaJu3boFJbHcfTCyCho14iS9zp07B/KzJ0AdrrjiCusfPpQ4cIra5+x88JIaOXJk0WFc9vv4jhPqQOvWrbNcl/Ade4ERuss+jcfo3AtbhOhHWwbtRGlsbBQUbCFDGIJ8GCTY5fbis3btWq9boa/D/YtSPkwQpo8d1ak7KliB81TC1hQhxnHMJoXiUkJwgA0KhomO4KVYKLKHSYPRIR5anGaGgKE47hEhxqCcoICwF/mUU06xdi0ceeSRgSelhZGhVPNgvy/63YoVK6xgt/LQI4GRLxRL165dBRZqevfuLYBrjx49LN/BsCPqUsWQ67UNgf8HKnjjbWUboi4AAAAASUVORK5CYII=;" parent="1" vertex="1">
          <mxGeometry x="263.57" y="90" width="163.57" height="80" as="geometry" />
        </mxCell>
        <mxCell id="criwHfPJJqmuLG_6KfQK-14" style="edgeStyle=orthogonalEdgeStyle;rounded=0;orthogonalLoop=1;jettySize=auto;html=1;exitX=1;exitY=0.25;exitDx=0;exitDy=0;entryX=0;entryY=0.5;entryDx=0;entryDy=0;" parent="1" source="criwHfPJJqmuLG_6KfQK-5" target="criwHfPJJqmuLG_6KfQK-6" edge="1">
          <mxGeometry relative="1" as="geometry" />
        </mxCell>
        <mxCell id="criwHfPJJqmuLG_6KfQK-15" style="edgeStyle=orthogonalEdgeStyle;rounded=0;orthogonalLoop=1;jettySize=auto;html=1;exitX=0.5;exitY=0;exitDx=0;exitDy=0;entryX=0.5;entryY=1;entryDx=0;entryDy=0;" parent="1" source="criwHfPJJqmuLG_6KfQK-5" target="criwHfPJJqmuLG_6KfQK-4" edge="1">
          <mxGeometry relative="1" as="geometry" />
        </mxCell>
        <mxCell id="criwHfPJJqmuLG_6KfQK-5" value="" style="shape=image;verticalLabelPosition=bottom;labelBackgroundColor=default;verticalAlign=top;aspect=fixed;imageAspect=0;image=data:image/png,iVBORw0KGgoAAAANSUhEUgAAAJsAAACmCAYAAADNhf3/AAAKrWlDQ1BJQ0MgUHJvZmlsZQAASImVlwdYE9kWgO9MekhooUsJvQnSCSAlhBaK9GojJAFCiSEQmigWFldgRVERwbKgS1WwUWStWLCwCPa+QRYBZV0s2FB5A3wEd9/33vve+b4755+Tc885987cfGcAIKuwBIIUWBaAVH6GMMTbnRoVHUPFjQIcIAAiMAZUFjtdQA8K8geIzOm/y/u7AJrWt8ymY/377/9V5DjcdDYAUBDCcZx0dirCJ5Dxji0QZgCAqkfsulkZgmnuQVhBiBSIsHiaE2b53TTHzTAaP+MTFsJAWB0APInFEiYAQDJC7NRMdgISh+SDsAWfw+MjnI2wS2rqKg7CHQgbIT4ChKfj0+K+i5Pwt5hxkpgsVoKEZ9cyI3gPXroghZXzf27H/5bUFNFcDkNkkBKFPiGIRp4g9EfyKj8J8+OWBM4xjzPjP8OJIp/wOWanM2LmOD0llDnHHJaHnyROyhL/OY7neUl8eBnMsDnmpnuGzrFwVYgkb7yQQZ9jlnC+BlFyuMSeyGVK4ucmhkXOcSYvYomktuRQv3kfhsQuFIVI1sLle7vP5/WS7ENq+ndr5zElczMSw3wk+8Car5/Lp8/HTI+S1MbhenjO+4RL/AUZ7pJcgpQgiT83xVtiT88MlczNQF7O+blBkj1MYvkGzTHwB6HABjgAOvBGrrYZ3OyM6UUwVglyhLyExAwqHTlpXCqTzzZfSLWysLIFYPrczr4Wb+/PnEdICT9vW/0nADZpiJE5bwsnAXBqJZKSM2/TfwKAjAUA5/PZImHmrA09fcEg/wYyQAGoAk2gC4yAGbACdsAJuAFP4AsCQRiIBisAGySCVCAEWSAPrAeFoBhsBTtBJdgPDoB6cBgcA+3gFDgPLoProA/cAY+AGAyBl2AcvAeTEAThIDJEgVQhLUgfMoWsIBrkAnlC/lAIFA3FQgkQHxJBedBGqBgqgyqhaqgBOgqdhM5DV6F+6AE0AI1Cb6DPMAomwQqwBmwAL4JpMB32g8Pg5XACnAbnwgXwFrgCroEPwW3wefg6fAcWwy/hCRRASaGUUNooMxQNxUAFomJQ8Sghai2qCFWOqkE1ozpR3ahbKDFqDPUJjUVT0FS0GdoJ7YMOR7PRaei16BJ0Jboe3Ya+iL6FHkCPo79hyBh1jCnGEcPERGESMFmYQkw5phbTirmEuYMZwrzHYrFKWEOsPdYHG41Nwq7GlmD3Yluw57D92EHsBA6HU8WZ4pxxgTgWLgNXiNuNO4Q7i7uJG8J9xEvhtfBWeC98DJ6P34Avxzfiz+Bv4ofxkwRZgj7BkRBI4BByCKWEg4ROwg3CEGGSKEc0JDoTw4hJxPXECmIz8RLxMfGtlJSUjpSDVLAUT2qdVIXUEakrUgNSn0jyJBMSg7SMJCJtIdWRzpEekN6SyWQDshs5hpxB3kJuIF8gPyV/lKZIm0szpTnS+dJV0m3SN6VfyRBk9GXoMitkcmXKZY7L3JAZkyXIGsgyZFmya2WrZE/K3pOdkKPIWcoFyqXKlcg1yl2VG5HHyRvIe8pz5AvkD8hfkB+koCi6FAaFTdlIOUi5RBlSwCoYKjAVkhSKFQ4r9CqMK8or2ihGKGYrVimeVhQroZQMlJhKKUqlSseU7ip9VtZQpitzlTcrNyvfVP6gskDFTYWrUqTSonJH5bMqVdVTNVl1m2q76hM1tJqJWrBalto+tUtqYwsUFjgtYC8oWnBswUN1WN1EPUR9tfoB9R71CQ1NDW8NgcZujQsaY5pKmm6aSZo7NM9ojmpRtFy0eFo7tM5qvaAqUunUFGoF9SJ1XFtd20dbpF2t3as9qWOoE66zQadF54kuUZemG6+7Q7dLd1xPSy9AL0+vSe+hPkGfpp+ov0u/W/+DgaFBpMEmg3aDEUMVQ6ZhrmGT4WMjspGrUZpRjdFtY6wxzTjZeK9xnwlsYmuSaFJlcsMUNrUz5ZnuNe1fiFnosJC/sGbhPTOSGd0s06zJbMBcydzffIN5u/mrRXqLYhZtW9S96JuFrUWKxUGLR5bylr6WGyw7Ld9YmVixraqsbluTrb2s8607rF/bmNpwbfbZ3Lel2AbYbrLtsv1qZ28ntGu2G7XXs4+132N/j6ZAC6KV0K44YBzcHfIdTjl8crRzzHA85viXk5lTslOj08hiw8XcxQcXDzrrOLOcq53FLlSXWJefXcSu2q4s1xrXZ266bhy3WrdhujE9iX6I/srdwl3o3ur+geHIWMM454Hy8PYo8uj1lPcM96z0fOql45Xg1eQ17m3rvdr7nA/Gx89nm889pgaTzWxgjvva+67xvehH8gv1q/R75m/iL/TvDIADfAO2Bzxeor+Ev6Q9EAQyA7cHPgkyDEoL+jUYGxwUXBX8PMQyJC+kO5QSujK0MfR9mHtYadijcKNwUXhXhEzEsoiGiA+RHpFlkeKoRVFroq5Hq0XzojticDERMbUxE0s9l+5cOrTMdlnhsrvLDZdnL7+6Qm1FyorTK2VWslYej8XERsY2xn5hBbJqWBNxzLg9ceNsBnsX+yXHjbODM8p15pZxh+Od48viRxKcE7YnjCa6JpYnjvEYvEre6ySfpP1JH5IDk+uSp1IiU1pS8amxqSf58vxk/sVVmquyV/ULTAWFAnGaY9rOtHGhn7A2HUpfnt6RoYA0SD0iI9EPooFMl8yqzI9ZEVnHs+Wy+dk9OSY5m3OGc71yf1mNXs1e3ZWnnbc+b2ANfU31Wmht3NqufN38gvyhdd7r6tcT1yev/22DxYayDe82Rm7sLNAoWFcw+IP3D02F0oXCwnubnDbt/xH9I+/H3s3Wm3dv/lbEKbpWbFFcXvylhF1y7SfLnyp+mtoSv6W31K5031bsVv7Wu9tct9WXyZXllg1uD9jetoO6o2jHu50rd14ttynfv4u4S7RLXOFf0bFbb/fW3V8qEyvvVLlXtexR37N5z4e9nL0397nta96vsb94/+efeT/fr/aubqsxqCk/gD2QeeD5wYiD3b/QfmmoVastrv1ax68T14fUX2ywb2hoVG8sbYKbRE2jh5Yd6jvscbij2ay5ukWppfgIOCI68uJo7NG7x/yOdR2nHW8+oX9iTyultagNastpG29PbBd3RHf0n/Q92dXp1Nn6q/mvdae0T1WdVjxdeoZ4puDM1NncsxPnBOfGziecH+xa2fXoQtSF2xeDL/Ze8rt05bLX5Qvd9O6zV5yvnLrqePXkNdq19ut219t6bHtaf7P9rbXXrrfthv2Njj6Hvs7+xf1nbrrePH/L49bl28zb1+8sudN/N/zu/XvL7onvc+6PPEh58Pph5sPJR+seYx4XPZF9Uv5U/WnN78a/t4jtxKcHPAZ6noU+ezTIHnz5R/ofX4YKnpOflw9rDTeMWI2cGvUa7Xux9MXQS8HLybHCP+X+3PPK6NWJv9z+6hmPGh96LXw99abkrerbunc277omgiaevk99P/mh6KPqx/pPtE/dnyM/D09mfcF9qfhq/LXzm9+3x1OpU1MClpA10wqgkAHHxwPwpg4AcjQAlD4AiEtn++oZgWa/BWYI/Cee7b1nxA6Ao+cAmG7vvNwAqEfYAGHpdQAEIfdhbgC2tpaMuR54pl+fFn8zANIOWTCiAn4/mbcO/ENme/nv6v6nBpKof9P/AsmvCA5tlWqBAAAAVmVYSWZNTQAqAAAACAABh2kABAAAAAEAAAAaAAAAAAADkoYABwAAABIAAABEoAIABAAAAAEAAACboAMABAAAAAEAAACmAAAAAEFTQ0lJAAAAU2NyZWVuc2hvdIEXLagAAAHWaVRYdFhNTDpjb20uYWRvYmUueG1wAAAAAAA8eDp4bXBtZXRhIHhtbG5zOng9ImFkb2JlOm5zOm1ldGEvIiB4OnhtcHRrPSJYTVAgQ29yZSA2LjAuMCI+CiAgIDxyZGY6UkRGIHhtbG5zOnJkZj0iaHR0cDovL3d3dy53My5vcmcvMTk5OS8wMi8yMi1yZGYtc3ludGF4LW5zIyI+CiAgICAgIDxyZGY6RGVzY3JpcHRpb24gcmRmOmFib3V0PSIiCiAgICAgICAgICAgIHhtbG5zOmV4aWY9Imh0dHA6Ly9ucy5hZG9iZS5jb20vZXhpZi8xLjAvIj4KICAgICAgICAgPGV4aWY6UGl4ZWxZRGltZW5zaW9uPjE2NjwvZXhpZjpQaXhlbFlEaW1lbnNpb24+CiAgICAgICAgIDxleGlmOlBpeGVsWERpbWVuc2lvbj4xNTU8L2V4aWY6UGl4ZWxYRGltZW5zaW9uPgogICAgICAgICA8ZXhpZjpVc2VyQ29tbWVudD5TY3JlZW5zaG90PC9leGlmOlVzZXJDb21tZW50PgogICAgICA8L3JkZjpEZXNjcmlwdGlvbj4KICAgPC9yZGY6UkRGPgo8L3g6eG1wbWV0YT4K4gRDGgAAGiJJREFUeAHtXQd8VEUTn1wSCL0TkN5LQCNFsIHSFBXkA+yAFAsgKIgKiiIo0gWko6AgKAqiKAiKgoiI0nvoEKUHBaRDSO7b/xy7eXe5Sy4hvNxyO7/f3dvdN/t2d/Z/szNb3oXsiT3iJENGAjZIIAxllIk0eLNB1kFfhCPoJWAEYJsEDNhsE7UpyIDNYMA2CRiw2SZqU5ABm8GAbRIwYLNN1KYgAzaDAdskYMBmm6hNQQZsBgO2ScCAzTZRm4IM2AwGbJOAAZttojYFGbAZDNgmAQM220RtCjJgMxiwTQIGbLaJ2hRkwGYwYJsEDNhsE7UpyIDNYMA2CRiw2SZqU5ABm8GAbRIwYLNN1KYgAzaDAdskYMBmm6hNQQZsBgO2ScCAzTZRm4IM2AwGbJOAAZttojYFGbAZDNgmAQM220RtCjJgMxiwTQL8fjbbSsvkgjZu2+OzBtFR5X3eMzcyRgJBAzYArcc74ygsT6HkkgtxUJtG0dT+kabJ75mUDJNA0IANEgtxhFKeRm2U8C4f3MXhkCwR4npWpZvA9ZFAUNpsABk+lw7svD5SNU/1KoGgBJtXSZjE6y4BA7brLmJTgJRA0IEtS/GKhI8h+yWgrYPQo//YdEgrhE5+/6HK58iei+L/PUwh4VmJIvOo9PQGps1ZRNFVK5CZRvEuQW3BtiU2jhzV71KtcuQvymHnudOUNeEyZS1ZlePxcX8rntC4C5SQvwjHJT8iiSfjxHc8p6f3C0CbNnuRyL6IRvd/0QDOiyC1BRva4jxzikJCXU1IPL/b1bzERHLmzE2nl39FWUtUcmuy8/JFCs1ZgBLj/iLwJxyLpdDI0kTQbBTqxpueSLYaD3C2Hv3HGMB5EWDQ2WxeZJAhSdBqEQJs+AB0AJwhdwkYsLnLI10xDKFhRSuovAAc4umzK9VjbriAAVsGdWm4BWx4JLTbxm27xcf3emwGFa3NYwLaZkNHbYy5aot5ijQ8C4WWqEyJJ46oOzD6nefPkEP8hLJVrk3hhUvyPekksNcZFk4UkYPTQ0tFEef577gAxXaaJox7b5SeNVNoNqu28/bcYEsLbLAJoE1ftIpCsudO1i/Oi+fJsX8zualmARog7Zy4R8JRoN0b3fI5L12kcC95sDa65VQIbf51uxs/IonCifAHbPFHdhNWWK0EbYchluYkpULbtX/UteDvz3OTcuofCmiwQbyO3AXJUcA1raG8R5GeEC88yzwFhDcqNJWFnIkJFBKWRXicf7s8Tcu9hJNHKPvN9XhdFMlYG4XHCrDFR+QUCefZQw2vXp89VvDAc02NMLfmmvZIzrklLp7Co+7hG45CpSmiUCx9ti2W49Nmv8jACxbQBTzYuFcC/EtO4l4R2s06dAJkIeVuc6s9AIcPyCnAH0zkNgoFU8Mzuq0YGi+sX6gemyC05BUM5z4oPmYZVcuX6NcQ7eMR2iUbsGVQl2EohWbDJzWgXVo2jeK3LRMTv90zqHQ9HqPVMIrZfkfhUizZhIM7Kfym8uTg2X9Sdpin2CU/0hNit6hFeLlx0pOfy4h0lZGSvSanNOAtI7z1BFGuB1+ikPzFkmm0xOOxXAwAliDC0VEVaPSE4Jv0DdkTe8QZCP8RjwlQR9Zsnn1PG3bGUkjOfMnSnSeOUvhVUFhvOsS0xuXzpwWyrliTOew8dZzCCxVPlo5y4y+cJaeXPInHD1J0lbJueeBRgqR9hjk1hK0a7fyc/swjvwAw2HbBvFAfMJoNHRhxT3vum9Cs2cmB+TBBOV2OKIf9/XL3T/3LlVKevR6PyFU6CWjyVuKVeKXRYI+Bls0JPu3FDffxFTBgQ/2klxYakZ0AOF3IqtFkneVcmoybq+jfzBCCtHd8lQ0tca0EQz0tJI37tOQBryfQoNVgm3mbO+MVkSBevrJds0HgckcEfv3eOgWdKMFy5vsPeJ0Ri9v+EPJhCkLmhz2VWt6Lgl9OW0j7S9pjKZV5+UAMIS/IUbg0hVe9h8OeWo1BJhwJTPyycxAVXF4oC0V82eYgQOBYupHGtawArugApDsKutYykZb4z9+4uFFYkXIcD410XeXNhGMuq+rKUU/rSnIIG0vkteZLTx75tNTyoj1W8tZmADLYnAXbwGYVvrcwvNENIWXImTuSb4dny6k2Rnrjz6w0eKwJYhNmohfP1bFyRlAtP6W1DzLFZvNVyZADm3zdCoh0gAxTJN6AFnJgswFaKr0UMGDztN3QsYFC0GZXBMh81QlAww/Fsw2BUv9AqUfAgI0Xs/87RiGnj7FsoD18da4v4VWMzEkVwv/zdTtd6SlpMzwQ9WWgXd02lK5CgiRTwIAN8oZhbR1K0dHeZvV99U35MzGUuHcVPVg8wReL3+mpaTM8iIG2dbEZPv2UakCBjYchod2slFbthrwh+YpZH5GmsASZL9tMPswATUrC/2vAeKOyynz+8sf1lBjVRCaRQxzXCxPeqZWcJw9x1HnikNgXdpAc5eowyDCU7jqW9jcSAWQAtjfj31ouwgZonhLxLx5wYEO1MQ2y8aBYTPcgeUYUAKtU2XUmtFLlyrQ7Pg9/PNhTjcoh2l+Q4YHKGUhhQjrVgoOUISDBhr4A4AoVK01ly5V165qw8HAGWrbsSWunu+LO0qif/TvFJDUYHuqPFrMW7ti2mKKL52avU+7Otd434ZQlELBgk8tajZs0pkZNGnlthQRcuADggi1H6ccd/yo+qbWQAFAhnlZwyYdJjxNAC7YNj1IGGXENWLChcf4AziqESb/tp73Hz1mTrilsBRmcF6PNrkmc9q2NXks14TQcOuXaDOlLy8nnZwTgJMhIeMYpbRaQZZqrfxIIaM1mbQJ7qWLXBIZV2HGetpyV96ftcbRYfNJCVoBhvg9azKwIpEWCqfNqAzbZFNfOEXFSXuwSAfBA3rRdSoADsJh4xeIoQYPJnRpmuHSJ5np8awc2qxCswEN6vsKud6/lL5y0l3zvHg8v9eIZfoQVXEgw9hiL5bp+aQ02T8nAoQB5vh8E+8asZIBllYZ94RsKbPaJzZSUHgkE1Npoehpg8ugjAQM2ffpK+5oasGnfhfo0wIBNn77SvqYGbNp3oT4NMGDTp6+0r6kBm/ZdqE8DDNj06Svta2rApn0X6tMAAzZ9+kr7mhqwad+F+jTAgE2fvtK+pgZs2nehPg0wYNOnr7SvqQGb9l2oTwMM2PTpK+1rasCmfRfq0wADNn36SvuaGrBp34X6NMCATZ++0r6mBmzad6E+DTBg06evtK+pAZv2XahPAwzY9Okr7WtqwKZ9F+rTAAM2ffpK+5oasGnfhfo0wIBNn77SvqYGbNp3oT4NMGDTp6+0r6kBm/ZdqE8DDNj06Svta2rApn0X6tMAAzZ9+kr7mhqwad+F+jTAgE2fvtK+pgZs2nehPg0wYNOnr7SvqQGb9l2oTwMM2PTpK+1rasCmfRfq0wADNhv76uChIzaWFnhFBRXYfv3tD3qm88v8OXzk6j/z2dQnvV7rT6XK16SHWz9tU4mBV4xtYBs09AMKzXaT2yd73tJ0973NqfcbA2nxT8uuu3R27dpLn0z/gj+nTv133cuzFrBjl+tP3Hbu9PiXQCvTDR62DWze5Hjp0mVa+edaGjFqAjVt/iSDwBvfjZA2/oPB9ObrPWn251NuhOakqw1h6cp1jZneH9afSpYoRgcOHqafl/7GWu3KlSvUudtrVLxYUWrcqP41lhB42UuXKkED+r0aeBWzsUaZotkaN6xPLVs8SC91e5bmf/0pfThhODcZgOv5aj+35u8Qw84rvQdQnTubUuFiUdSsZTt6f/REio+Pd+NLSEig0WM/pBaPtKciJapT1VvuprYdutH2Hbvd+DwjTqeTnn/hVbqj3kPUoEkr+vvAIWbZum0H1yW6dkMqXuZWeqJtZ5r91Xdu2V98uS/ne+rprhSzfRe1fLQjFSsdTQu+/8mNDxG0C2U89tTzfG/T5hiOI+2XZSto4uRpVLNOY25jm/Yv0ImTp+hY3HFuA9pT5ea72NxITEx0e/Z383+k+5s9QSXL1aDI4tWoUdNH6eNps9x4EJn33SJuQ+kKtajBfa3pt99X0ZSPP1N1OHfuvMqz6Icl1OHZHgReyLFL9960as16dT/dgT2xR5wJFw5f98+7/Xs7RSX5s3ndL8nKE+Djew6Hw3kqbhff37Hld2dk4UIqn8yPa+uWzZzx5w4y35Xzh5zt2z3mlS9vntzOFcvmM9+kccMUz5b1yzjt9ddeVOXOmfWRKrdQwQKKF3WSZYvhkHkgswb33sXpQms5b65eRfHM+GSc4pGyva/JvXy/YoWyfO/XJfMU/yOtmquwLKfV/x5y3lG3VrL0Xj26qGe/987rye7L/P369lJ8c7+c6gwJCXHjjYjI6mz2UBOVduLoDuaHDGR7rXly5szh/HPFQvVM2a60XDNFswmBJKO6dWpwGn656zdu4XCz/7XhX3eOHNlJCIx2bVtJL3TpwPe++no+DR85gcNTP/mcpn36JYefbvsYCZDSwm8/46H61H+naeDgUXzP8+vzL76mwcPGcPLoEe+ytkWkecu2dPyff6lSxXK0beNyEh1Br/V6gfm69+xL0EpWiv3rAJ0+fZaGD+knbLIPqXatW623Uw0v/eU3+uqLKfTD/FmE4RY095sFdObsOVr8/Zd8T/xoVDoCsHcnfTidIJsOTz9OB/dvoO2bV1CtGrcw35SPZ/L1/PkL9HSnFwkaPFu2CBo3ehAtXTyXHn+0Bc1fsJh55Nf+2L8JWhV9IH7MdPivTXRg3wZq2OBuOivq0qxFW8IIkm4KFM327VfT1a9s4tihzv271qg4fsHyF3T57AGnAAHfg2ZB+pOPt+Q4tOD5U7GK97u50/ketB7yWTXbRxPfd2bNmoXzCSCpPNZyUSdZLq5FIgszvwAmp0vNBg2wd8cqN15rPoRT0mxD3ntT5RWA5TJEhzoXfDNDpT/bqY1KP3tin0r3LGfk8AGKTwDF+fuv81V86KCkcjAa1K4Zre5Bs02b8gHH0Z6Tx3aqMsQPTvFtWL1EpXuWnVo8UxwEb78MaAdJYqih1RYboU7tJE0RGhpKNW69mXaKaYx16zfzL3b9hs2cNSqqEgkAycfQgw805o9KsASe7dJLxfq/lWS4r1m7QaVjTuymopEqfvRYHIdhv3SnTiq9bJlSSiOpxDQEypYpqbjz58unwsWK3aTCBQvkV2Fpt+E6Z+584dGvoW0xu+iUsPM2bNqq+KCFNm3apuJ331VXhQWgqN7dt9OadRtV2uq1rjC0YFR0PZWekJBkJ6JfhMmg7qUlEDBg27DJNXRCCNHR1elbYdBKyhoRIYN8xXAAunjxIsGpuHDhIsezZEkCGif4+dVvwDASv3rmxnAhqVpUZYqMLCSjhLpVrlyBit1UVKUhIOwft7gdkYsXL1HzVu1oifDmQUWLRLIn71k2hllJF8SQaqVz55OcAqRb216lSkUrK4XtCOW2Z8+ezS09LZGAANuvy1cS7CcQtATsk1o1o1U7tgtPTxjLKh4jfsWgW6pHUXh4OGu6v/4+SJ4Tpnv3xQoNuYG132OPPKzyI9Cj+3MEjbh8xZ808oNJ1PS+e+me+ndSzas2D3jGCvumnkUbIC1QCHaeBJow6pW9iTlLTJJLulX8cCXNnbeQ24j4mTNnk02kw977dOZsypIlnL6fN5NlK/NmxDVTHIRtMTtZfcNtx7QGpgwuX44n4QXRe+/04XZVERokd+5cHMbqw5GjruUlgPLP1es4vc5Vp6J2LRcwYeCOGTeFwXX69Blq16E7G7xjx08lDL9W6tThSZo2dQyXgeGo/TMvEZyJquIXLcsdMnwsa07kQ/kPtmhD9Ru2IDgkmU1yigb1KCbmJkEnxarIZ7Pmclh+Va5UntuE+IRJn/BUCpwiTPPs2/+XZONr3bo1+Yq+kM4XElasXM3tRtvXXTVZmDGtX5nhIIg6KoPTGhaekpvxCQM/LCyMeeGOW6dBxBDnPH44hvlP/7PHeXudmuqZmLYQGo/jMHY/mz6B+awOgpz6kEYx6iE8NOYTc3+q3Hx58zjr1K7hFMMRP69woYLO2N1rmU86CFFVK3E8JQM5JQdBeLAq/9TJo1Q7rMa4nKJBPdHemE2/qSkKtLVGdHVnrlw5ncK2U/llPXfH/OHMny+vSsczypQu6RSevUqTUx+9X+mm0kqVLM7PlVMhd91xGztaKbUzpXuZotlEY5lgzN95e22eVvhxwRfU5fn2V++4LjDwZ82YSHVvq8maCZOcMJRbNG9KPyyYRUKAzAi7ZL5Q+2K+igQgedoCk74YkjHEwM33RW2feoTEnBbf/mL2PB7OH2jaiD7/dAKXe1ZMdsIhgF3YpPE9PG1QoniS4e7rudc7HdMyX342mW01tHXTlhjR/mbUt0+PZEVDDnu2/8myeKVnV57+2LD6ZyG/JGdEav5B775Bb7/ZizCywDTBNFR4eBj3zbdiAl7yJSvEj4QQaLYykQBzYBM6+/CRowwgGOopEYbTvHnzkNBKKbH5dQ/zVBiyMP+VGY6AP5WEl5wnd26eR/Pkh9ymz3DNQUZHV+MfkOSpfft9DKbq1arQxjVLZLK6Yq4Rtp3QcNcEMvlAbcAmK2yuaZdAvQYP0+9/rOEJ4KeeaMXaf8nS5bwJAk8bPLCvmrRO+9P9z2HA5r+stOXEcPhc11fo5yXL3doATT1iyNvJzBc3pgyMGLBloDAD/VEAHfb0wWuFTQZPFVNHdpEBm12SNuVQpnqjRv7BJQEDtuDq70xtrQFbpoo/uAo3YAuu/s7U1hqwZar4g6vwTAEbFrJxfnPUmMkZKm0coMGi8X9iQT2QCPv7cZgHbZa7kAOpfnbVxXaw4QBLtx6v87E9uX1aninNU6hCsp0IEATOlMozp0t/WeEmG6yXdnyuJ5WvUpcPaGBnQoGiVahi1B2EXSVWwiy6fA52QICsaXPmfmdl5zC2X8s82PcGQl6Z1vrxZzjN+oXt2vL+W/2H8sx9juzZuc2du77K266t/MESth1s3Xu+wduJxJZkErsI3OSMzXvtxIkof/e5AwitxPYkrP1hPVQSdppiL1vLxzoStgn5S1269aZDh4+myt75uafVXv9vvl3Ie+JkJmxt6v/uCI5WKF9GLYy/1P1Z3nyJLTofTpkh2YPqaivYAAipmVq3cu208JT2H6vWqUMonvc84xiWwA/CDhEcctm5dSXh8Io4L8D72t58ewgDzzOvtzhm1js8+xLn83ZfpmHf3cTxw3j/HdJeFXvyAHAQ9ophARs0efxwtXiPc7JiqxKn4whdMJKtYPt+4c9Kxvc3aaDCnoF3B41y2xvveR9xDMdydy92mH41awqJPWNUvlxp6v5CJ5oy6X3OBhB8NHWmt0d4TcPu1zHjUz+1LvaPUdfO7fkZa9dv4k2LOEfxwbiPOA0nnurXu8OtjPvFbmAQzgn4o0HdMt8AEVvBtmjxUhaZOIOodo96kyHOFWA4xfYeX7TWclBj4IA+vJXZytv0/oa0euUPtHzpt/Tk462st1INv/HWIMIh5dTo3bd7834y8PXtN5ga3f8IH7ETGyxp2OB+ybLDdJD04+JfZDBorraCbZ+wo0DVxUESDEXeSOyq5eRdu/fRK30GeGPhNGgTSdV9nPapKU5hYXOmv6eBxo56jzdk4jBJu47d2LaUZXi7Yvu4ODrHt/A6LGk3jhrxjtrYac2H/WSSYFMGG3nv8eskhbi4f/jJhQoX9FlC0/saULeuHfn+5I8+pYWLkoZea6YtW12aB7t0YZ9Jwm7barfWd/vgTUn+UHFxdG7y1VdB4CAyPMnU6NHWyZ/ta2ew2K7OTgKeCS862Mg2sOEQBQ6UgArkT9qO7E3gQ997i3CMDvRM514Ud9wFUitvkatH7DCHZR1uT5w4ye/3wDs+5Gf3nv3WrCmG8Q6Sju2fYB6culr26+8p8sMb9STpBHmmY0u1PEwTd9zlRHjy3Mhx28AWFhaqhs74+CspyhSb+mZOG88HjqEB8PoAT6pYoZxK2rw1RoXbtXmU9u1czR95/A+eYFoI3iymLXDq6oGHn/KZFVumX3r5TXVfHpDGBK48y6puXg3IF+JksXEfmWcdMituG9hgo8lT3f8K7ZMaYV/8kIFJHenJL05TqaTh77vsPCTA+cCeeZw/kKfDq1atpHj9CWBonilsx9Q2Fr41YKjyKvGejpHDXPYb7DE512YtD/OCUgsXTsGUsOa5kcK2gQ1Ck6fLDx067JcMMYWBE03eCOk4VAzC66Cw7RkGOjQHnAd4hlK7tH2ytbdHpJiG6ZT+b73ikweTs+MnulYhYLfhnXLPPdNWzaXh9V0S7PIhBy3tximwYCNbwXbLzVEs35jtuxUQUhI4TlF98tFogmHtjcaMHKicA6y3YskqR76y/C43eZgW9hfewpMewpuL6ov3YXgSVjjkspPVI4X2njBuKJ9EwvTNc8LetK6G4N0kkqJvcclCxoPhaivYHm52H8sUHWGdukhJ0PA0p0wa6ZVFHA6mTeuW8rlPvDIAJDsXTog4lCxeNDjCa15/EgGe6R+P5ddBWPmh0eSC+sD+fdRcG3iixQ+qe9dOzA4e62aDP1at5XS8qwQvRAw2svUMAtY+I0tUEy+EucTvWRsz8r0MkzeGT6wqHDt2nCqItyDBKUjtfGmGFe7Hg+BslKlYmzAfJ17CR/PmTPMj143FYqtmg/H+Wq9uLMHZc75j0GWUOGHMw6lo1LAeOwiBBDS0EdMhABqmP8RbITOq2Vo9x1awQTJ9Xu3O0wpYrB4+crxWwkpvZaHV+vQdyNnx5kysqwYj2TqMSgHjDy/wVqCIrFkJdteNTjAbtm3fyc2sWrmi19ck3OgyQPsyBWzBIFjTxuQSsH0YTV4FkxIsEjBgC5aeDoB2GrAFQCcESxUM2IKlpwOgnQZsAdAJwVKF/wP+6oKaJdu8GgAAAABJRU5ErkJggg==;" parent="1" vertex="1">
          <mxGeometry x="280" y="300" width="130.72" height="140" as="geometry" />
        </mxCell>
        <mxCell id="criwHfPJJqmuLG_6KfQK-7" value="" style="shape=image;verticalLabelPosition=bottom;labelBackgroundColor=default;verticalAlign=top;aspect=fixed;imageAspect=0;image=data:image/png,iVBORw0KGgoAAAANSUhEUgAAATYAAABtCAYAAAArgk0pAAAKrWlDQ1BJQ0MgUHJvZmlsZQAASImVlwdYE9kWgO9MekhooUsJvQnSCSAlhBaK9GojJAFCiSEQmigWFldgRVERwbKgS1WwUWStWLCwCPa+QRYBZV0s2FB5A3wEd9/33vve+b4755+Tc885987cfGcAIKuwBIIUWBaAVH6GMMTbnRoVHUPFjQIcIAAiMAZUFjtdQA8K8geIzOm/y/u7AJrWt8ymY/377/9V5DjcdDYAUBDCcZx0dirCJ5Dxji0QZgCAqkfsulkZgmnuQVhBiBSIsHiaE2b53TTHzTAaP+MTFsJAWB0APInFEiYAQDJC7NRMdgISh+SDsAWfw+MjnI2wS2rqKg7CHQgbIT4ChKfj0+K+i5Pwt5hxkpgsVoKEZ9cyI3gPXroghZXzf27H/5bUFNFcDkNkkBKFPiGIRp4g9EfyKj8J8+OWBM4xjzPjP8OJIp/wOWanM2LmOD0llDnHHJaHnyROyhL/OY7neUl8eBnMsDnmpnuGzrFwVYgkb7yQQZ9jlnC+BlFyuMSeyGVK4ucmhkXOcSYvYomktuRQv3kfhsQuFIVI1sLle7vP5/WS7ENq+ndr5zElczMSw3wk+8Car5/Lp8/HTI+S1MbhenjO+4RL/AUZ7pJcgpQgiT83xVtiT88MlczNQF7O+blBkj1MYvkGzTHwB6HABjgAOvBGrrYZ3OyM6UUwVglyhLyExAwqHTlpXCqTzzZfSLWysLIFYPrczr4Wb+/PnEdICT9vW/0nADZpiJE5bwsnAXBqJZKSM2/TfwKAjAUA5/PZImHmrA09fcEg/wYyQAGoAk2gC4yAGbACdsAJuAFP4AsCQRiIBisAGySCVCAEWSAPrAeFoBhsBTtBJdgPDoB6cBgcA+3gFDgPLoProA/cAY+AGAyBl2AcvAeTEAThIDJEgVQhLUgfMoWsIBrkAnlC/lAIFA3FQgkQHxJBedBGqBgqgyqhaqgBOgqdhM5DV6F+6AE0AI1Cb6DPMAomwQqwBmwAL4JpMB32g8Pg5XACnAbnwgXwFrgCroEPwW3wefg6fAcWwy/hCRRASaGUUNooMxQNxUAFomJQ8Sghai2qCFWOqkE1ozpR3ahbKDFqDPUJjUVT0FS0GdoJ7YMOR7PRaei16BJ0Jboe3Ya+iL6FHkCPo79hyBh1jCnGEcPERGESMFmYQkw5phbTirmEuYMZwrzHYrFKWEOsPdYHG41Nwq7GlmD3Yluw57D92EHsBA6HU8WZ4pxxgTgWLgNXiNuNO4Q7i7uJG8J9xEvhtfBWeC98DJ6P34Avxzfiz+Bv4ofxkwRZgj7BkRBI4BByCKWEg4ROwg3CEGGSKEc0JDoTw4hJxPXECmIz8RLxMfGtlJSUjpSDVLAUT2qdVIXUEakrUgNSn0jyJBMSg7SMJCJtIdWRzpEekN6SyWQDshs5hpxB3kJuIF8gPyV/lKZIm0szpTnS+dJV0m3SN6VfyRBk9GXoMitkcmXKZY7L3JAZkyXIGsgyZFmya2WrZE/K3pOdkKPIWcoFyqXKlcg1yl2VG5HHyRvIe8pz5AvkD8hfkB+koCi6FAaFTdlIOUi5RBlSwCoYKjAVkhSKFQ4r9CqMK8or2ihGKGYrVimeVhQroZQMlJhKKUqlSseU7ip9VtZQpitzlTcrNyvfVP6gskDFTYWrUqTSonJH5bMqVdVTNVl1m2q76hM1tJqJWrBalto+tUtqYwsUFjgtYC8oWnBswUN1WN1EPUR9tfoB9R71CQ1NDW8NgcZujQsaY5pKmm6aSZo7NM9ojmpRtFy0eFo7tM5qvaAqUunUFGoF9SJ1XFtd20dbpF2t3as9qWOoE66zQadF54kuUZemG6+7Q7dLd1xPSy9AL0+vSe+hPkGfpp+ov0u/W/+DgaFBpMEmg3aDEUMVQ6ZhrmGT4WMjspGrUZpRjdFtY6wxzTjZeK9xnwlsYmuSaFJlcsMUNrUz5ZnuNe1fiFnosJC/sGbhPTOSGd0s06zJbMBcydzffIN5u/mrRXqLYhZtW9S96JuFrUWKxUGLR5bylr6WGyw7Ld9YmVixraqsbluTrb2s8607rF/bmNpwbfbZ3Lel2AbYbrLtsv1qZ28ntGu2G7XXs4+132N/j6ZAC6KV0K44YBzcHfIdTjl8crRzzHA85viXk5lTslOj08hiw8XcxQcXDzrrOLOcq53FLlSXWJefXcSu2q4s1xrXZ266bhy3WrdhujE9iX6I/srdwl3o3ur+geHIWMM454Hy8PYo8uj1lPcM96z0fOql45Xg1eQ17m3rvdr7nA/Gx89nm889pgaTzWxgjvva+67xvehH8gv1q/R75m/iL/TvDIADfAO2Bzxeor+Ev6Q9EAQyA7cHPgkyDEoL+jUYGxwUXBX8PMQyJC+kO5QSujK0MfR9mHtYadijcKNwUXhXhEzEsoiGiA+RHpFlkeKoRVFroq5Hq0XzojticDERMbUxE0s9l+5cOrTMdlnhsrvLDZdnL7+6Qm1FyorTK2VWslYej8XERsY2xn5hBbJqWBNxzLg9ceNsBnsX+yXHjbODM8p15pZxh+Od48viRxKcE7YnjCa6JpYnjvEYvEre6ySfpP1JH5IDk+uSp1IiU1pS8amxqSf58vxk/sVVmquyV/ULTAWFAnGaY9rOtHGhn7A2HUpfnt6RoYA0SD0iI9EPooFMl8yqzI9ZEVnHs+Wy+dk9OSY5m3OGc71yf1mNXs1e3ZWnnbc+b2ANfU31Wmht3NqufN38gvyhdd7r6tcT1yev/22DxYayDe82Rm7sLNAoWFcw+IP3D02F0oXCwnubnDbt/xH9I+/H3s3Wm3dv/lbEKbpWbFFcXvylhF1y7SfLnyp+mtoSv6W31K5031bsVv7Wu9tct9WXyZXllg1uD9jetoO6o2jHu50rd14ttynfv4u4S7RLXOFf0bFbb/fW3V8qEyvvVLlXtexR37N5z4e9nL0397nta96vsb94/+efeT/fr/aubqsxqCk/gD2QeeD5wYiD3b/QfmmoVastrv1ax68T14fUX2ywb2hoVG8sbYKbRE2jh5Yd6jvscbij2ay5ukWppfgIOCI68uJo7NG7x/yOdR2nHW8+oX9iTyultagNastpG29PbBd3RHf0n/Q92dXp1Nn6q/mvdae0T1WdVjxdeoZ4puDM1NncsxPnBOfGziecH+xa2fXoQtSF2xeDL/Ze8rt05bLX5Qvd9O6zV5yvnLrqePXkNdq19ut219t6bHtaf7P9rbXXrrfthv2Njj6Hvs7+xf1nbrrePH/L49bl28zb1+8sudN/N/zu/XvL7onvc+6PPEh58Pph5sPJR+seYx4XPZF9Uv5U/WnN78a/t4jtxKcHPAZ6noU+ezTIHnz5R/ofX4YKnpOflw9rDTeMWI2cGvUa7Xux9MXQS8HLybHCP+X+3PPK6NWJv9z+6hmPGh96LXw99abkrerbunc277omgiaevk99P/mh6KPqx/pPtE/dnyM/D09mfcF9qfhq/LXzm9+3x1OpU1MClpA10wqgkAHHxwPwpg4AcjQAlD4AiEtn++oZgWa/BWYI/Cee7b1nxA6Ao+cAmG7vvNwAqEfYAGHpdQAEIfdhbgC2tpaMuR54pl+fFn8zANIOWTCiAn4/mbcO/ENme/nv6v6nBpKof9P/AsmvCA5tlWqBAAAAVmVYSWZNTQAqAAAACAABh2kABAAAAAEAAAAaAAAAAAADkoYABwAAABIAAABEoAIABAAAAAEAAAE2oAMABAAAAAEAAABtAAAAAEFTQ0lJAAAAU2NyZWVuc2hvdGyR7RQAAAHWaVRYdFhNTDpjb20uYWRvYmUueG1wAAAAAAA8eDp4bXBtZXRhIHhtbG5zOng9ImFkb2JlOm5zOm1ldGEvIiB4OnhtcHRrPSJYTVAgQ29yZSA2LjAuMCI+CiAgIDxyZGY6UkRGIHhtbG5zOnJkZj0iaHR0cDovL3d3dy53My5vcmcvMTk5OS8wMi8yMi1yZGYtc3ludGF4LW5zIyI+CiAgICAgIDxyZGY6RGVzY3JpcHRpb24gcmRmOmFib3V0PSIiCiAgICAgICAgICAgIHhtbG5zOmV4aWY9Imh0dHA6Ly9ucy5hZG9iZS5jb20vZXhpZi8xLjAvIj4KICAgICAgICAgPGV4aWY6UGl4ZWxZRGltZW5zaW9uPjEwOTwvZXhpZjpQaXhlbFlEaW1lbnNpb24+CiAgICAgICAgIDxleGlmOlBpeGVsWERpbWVuc2lvbj4zMTA8L2V4aWY6UGl4ZWxYRGltZW5zaW9uPgogICAgICAgICA8ZXhpZjpVc2VyQ29tbWVudD5TY3JlZW5zaG90PC9leGlmOlVzZXJDb21tZW50PgogICAgICA8L3JkZjpEZXNjcmlwdGlvbj4KICAgPC9yZGY6UkRGPgo8L3g6eG1wbWV0YT4KRVCoLQAAKkVJREFUeAHtXQeYFLUXjwKiIoiAFOlFEFBQ4AApfxAB6U16PZqCHL0rXZTeQZQmvUs5RTpKkS6KdKSLFBUQe+ef38As2dm02du93T3yvu++m0leXjIvO2+Sl1fu+/Ovv28RA4YDCZQD16796Hmy1KlTeq7NRcLmwP0J+/HM0xkOGA7cixwwgu1enHXzzIYDCZwDiRP485nHiyMH/v33X/LNxUvkypWrJFvWzCR9+nRxpGiaGw4EnwNGsAWfxxHXw61bt8i69ZvJlKmzyOdfHPQaf4b06ckLZUuSvr26kDRpUnnVmRvDgXDhwH3m8CBcpiI8xnHo8FHyxoBhZN/+A9IBZc2SmSxeMN1axUkRQ1xpDg9CPAEh6t4IthAxPhy73bV7H6lTP1p7aGlSpyYfrloQ1sLNCDbt6UxQiObwIEFNp/8Ps3vPfldCDT39cO0amTh5mv+dmpaGA0HigFmxBYmxkUT2xMlTpGz5mn4Pef+uTSRjxgx+tw9mQ7NiCyZ3w5e2WbGF79zEy8j++edf0qV7vzj1NX3WvDi1N40NBwLNASPYAs3RCKP3/pyF5MuDh+I06u3bd8epvWlsOBBoDpitaKA5GkH0zp3/hjxfupJ0xPmeykMeeuhBH7MPZ6PLF444i8Li3mxFw2Ia4n0Qxo4t3lkePh2OGfeOdDA5smcjsSvnWzjFS1WyDgtEDW7e/Ik8+mgKUbUpNxyIVw6YrWi8sjt8Ojt77gJZviJWOqBxo98kyZI9bP1Vq1pRivvtpSvSelNpOBCfHDCCLT65HUZ9vTtttnQ0pUoUI0WjCnlwns73lOead/Hrb7/xik2Z4UBIOGAEW0jYHtpOL1++SubOXyIdxCttW3jVJ3skmde98yZF8kecRebecCBkHDCCLWSsD13Hs+cuknb+SLJkpEzp571wbt686XXvvDH6NSdHzH0oOWAEWyi5H4K+Ybe2cPEKac/169UkDzzwgBcOTlBl8GgKc3Ag44+pi18OGMEWv/wOeW/btu+Unm5igLVqVvUZ5zl62CACrPBgEmLAcCBcOGAEW7jMRDyNY8myVdKe4Nhe+LkCPjgnvz7jU2YXlCpZzL40/w0HwoIDRrCFxTTEzyBu3PiRxH60TtpZlcrlyf33e/8sEGzyzNlzwnaFnisorDMVhgOh4ID3LzgUIzB9xhsHNm/ZpuyLt/r6/IB3sEknkYIF8zuLzH2AOfDXX3+RS9RW8Pff/wgwZX1y+MBdufodgTF2uIPxPAj3GQrg+DZu3qqkVrxYER+cZR/IDXmjCj/n08YUxJ0DMKIeP/E9smfv5+T8hbuHN1AXvFiuNOn4WhuSM2f2uHckofDTTz/TSMozyabN28jR4yc8mNCrFinyHIlp35qULFHUUx4uF8ZXNFxmIsjj+Pvvv0mWnM9Ke4Ff6OYN3iemWCHkyFNY2K5BvVpk/Ji3hPWhrohEX1GEZh81dgoZN2Gqkn1TJowgdWpXU+L5g/DRmg2ka49+5Jdff5U2b960ARnx9gApTnxXmq1ofHM8RP3t//xLZc/lXijtg7N+4yc+ZWxBzeqV2VtzHQAOTJwyXUuooasOnXuT4ye+DkCv3iR27tpH2rbvqhRqaAVjb9WhlDf14N8ZwRZ8HodFD598ukM5jmJF77pQ2ciyHyy2I6VKFbdRzf8AcODM2fNk+MgJriitW7/FFb4K+b///iOvvtZdheZVv1yhrvBCjocbI9jigcnh0IVq5YUxPv10Xq+hwvXq061igRjToQ1Jktioab2YFsebDYoVMo/8VzQBTyDhy4OHlbaOzv527NxDsIUOFzCCLVxmIojj+Onnn8nJr09Le4BCOn26tF44k6fO8Lp33kQ3a+gsMvdx5MAXX7oP+nnzx8CeUh4+csyvp/iHnpqGCxjBFi4zEcRxHDqk/qFGRXmfbJ46dZbMmr1QOKoundqZ+GtC7vhfkSRJEteNc2TP6rqNrEGiRO5X4cg3G06rdyPYZDOcQOp0VgHPFnza62nfGj7W69550yq6sbPI3AeAA08+mcM1leLFxKfWronRBrlyZnPdDEm0wwmMYAun2QjSWPbt/0JJueAzd41skV903QaxQnpgv57k8TSplTQNgnsOPFvA+wOjogAVwgtlS6nQXNXnfjKnK3wgN6xf23WbYDYwgi2Y3A0D2lDo7ty1VzmSfPnyWDg4ERs4ZKQQH+HCW7dsIqw3FXHjQJn/lSAVy7+gTWTq5FEkVarHtPF1EB97LCUZ1L+XDqqF07NbDImixrrhBEawhdNsBGEsONlUGVjCbMNega3+cB05JDllGzV8EPFHDxSER0uwJMeOGkJqVJMn2Xm24DPko1ULCc8FLhCMad2yKenaub2UFFaL70waRbp0elWKF4pK43kQCq7HY5/YVtapHy3tMapIIRK7Yp7li1jmxRpCQVi3Tg0yafwwKa1wq4xEzwObhwe/OkIOfPGVdaKdOFEi8t+t/6j+Kwd1o8pGSj5flCSiZcGGby5+S1f8+8jJk6fJb7//TrCiz5I5E8mZIyspXep5Kx9GsMfgD333xx/+9GLahIwDqgCRGFgeqlNBAMp2MT2FQg1f56GD+4bsOe7FjgsWyE/wF0rInCkjaVAvYyiH4FffZivqF9sip9FZasmuAqwARo+dTPbtPyBEfe+dMca8Q8gdUxFuHDArtnCbkQCP59SZc0qKp0+fI/MXLRPiIYpEieejhPWmwnAg3Djgl44NkSKuXbtO99u3CE5Q3IaFRigUch8ht2j7uCQB+fuff8j33/1AkjyQxKP8DjSDsUW7dPkywZhTpEhOUqdKFe96BYzhKo2DhRyfKVM+6uoRS5apKg0SqSL2zNP5yJrVC30ODDCm77+nvKcGpWnSpFKRCVj9H3/8QRDO5wf6+0tJEzTny5tHqmvS1bEdOXqCHD9+klz45lvyyy+/kixZMpLqVV+SnjjCo+Pbby9bY0mRPDlJl+5xH++NuD44xvLjjzdJ4sSJKJ/TWP/jStNte8Rfu/nTTyTVY4+RRxTZytzSBv4PP1yncd6uUtqPkIxPUENfP4yUnf1qCzacrs2Zt5gsWPSBjx/Z6BFDSJNGLztpe93vo9ElZsycR7c7X5LLV64Q6Gx+uHaNwHwApyr1Xq7hhS+6+f6Ha2TlqjVkydJVXvGhgF+nVlXSr293kiFDOlFzZTl+rIuXrCRQuiMcNi9yLMZeo/pLpNJLL5LSJQPvBI6PxiI6hq8OHSF44dgxoG/4dBZ69hny6istCF4oEUD4ZM5RQFStLMdp6Ya1y0n2bFksXIxrVexaK5IDe3KKMRWi4cRxQteyReOAvnwIrrh46Upy+OhxcpTygo1LhkEh1NJHVPCKPq4qwQYF/dC3xxD4OjoBz7/ns/Vewu3nX34hq1evJdNnzeO6qcEGDGF8mjdr4Lcl/pZPtpP35ywim7Zs9RpS1iyZqRlGT+t351URhBsElBw34V2fNI3gyet9upIW9PmckZZ1h/HZzr1k2QeryQl6IHHq1BkfvS68GPLkyUVqVq9kvdPOxEI6/WgJtq9p53XqRfsINLsDTObWzfxghAip8tawcT6TZLe1/898bwJBWGoRYHU2m072gMHDRShWOV6yXdvXuv6yfEdXH7PnLibTZ8z1YbSsQyQWHjywD1055JahadXhJZ42cy55b/ocLXw86+QJwwlsn3iAE62iJeQZ3Hnt7LIFc94lCGWky3u0wwnrlInDCZTOcQHMx5Sps8i0GWpejBo2iDRtUo/bnUywwSOjSg25v+u7U0bTF+x2aKYdn+0h7ekBCz7IKoDAnTl9AsmWNbMK1at+wcLlpEefgV5l7A0Ey9FDO/0Wmiwt0TVWxTXqNJOa/cSuXECiCsvj+7H0YU+JCDNjx08ln39xkK2SXuM33q1Le8sAWPTx4hFQCjaEA8Z2xvmlZInhS7J7xzq2yLpet34zadm2k085r4AX5NDGwwsf3aajlNE2Lv6/3rsr6UgjT+jCvAVLSa++g3XRuXizpk0glSuJBTO30Z1CTPqESdPIiNETZWjCurGj3iSNGtTxqceLWK9RK59ynQKbh9hqYQ7ZFZqqPV6+tR8uIblyZVeh+tRj24OIrZPekTvgsw2x6i9bpgTdGl+jKpIblnoEbkFtWjUj991393wsdeqUbDPSsElbspVm7ZLBG326kZjXWlsv5Ch6wOIGsPKAGU2mTE9oNcNupECh/ylx169ZSgowniLKBi4RsCvr0XuAtNXgAb3JK22aS3HsSmyl8f4iErC/ALu9hXPfteZWh8bdWRdgr9/wiVSooVme3Ll8Wr87bba2UENjhB2GEHUCtrAvVa3v6sXSfQlhkzNsxPg4CzWMudUrna1tmnP8qnvEskeUUn+FGugPGDSc4KVwwvkLF51FWvfQLeFlxg+xbPmarniPDmAQ3G/g21p9sUgXL16iK6hGroQa2mOrDof9D9esJzt37yVr1m4gEyZPI8+XrmTpRtk+2GuVUAMu9MlYZbgVamgLlUtPFx/MD1Z8iGZKSJo0qRInLgjzF4oPkmy6SZM+YF9K/0OFVbVm4zgJNXTw5cFDpFqtJuTKlavS/uxKpWDDj0QFzzjieCFO++Cho1TNfOqhEGYBSURq1G6itfRn2z388EPsLfcaAqVT19cJopUGCtrH9LCSXejSw+qkSfN2cY4+CkEyZOhon25luUB9kO8UQK0wbvRQsnvPflKrbnNX23KWJoQGBI0unDh5ilSu3tBLn6jbVoQHvuzZx18l8D6iPDojx0zyS6jZtBDPTsdXF/g6yXaA9wRVsAcL8IGEEFFB2sfTqFCo/uwsqVilXsDmFB+wKjUaE+jBVaAUbNu271bRIEWZyKsIaOjv6oNVRh6jJ1TYKvgDR4+dVDbrT1c5H6zU+0IqiTEIWD3pABT7zVp24Cqtddo7cZaviLWMbNnyU6fPsLfKa+gzFs59z/ohqrwVlMQowtx5S3TQCFbl1ehXXUd3pUWQQbJO4Jl7+zI+rPbtvoaPVKsYIGh5Bxg2Dfs/1D7J6elhsABBJnUga9YsUjQIn9r1WgR8TrEKxgpaBVLBBuWzzo+t0LO3T95wyBDdOkbVp7A+RfLbE4b8l/UbtfF7tfAoNcuQAXRPiNMeDMAqRScbFA4IZAax/owN88XClavfs7fK68ULppPESRJbB0VKZA0EnZdk774D1qpc5c+q0R0X5dEUKbjl8VmI7TGeUwa6q+siLhT2sv5EdXDh0gH7pFyEO2LURC3ZIWovK8e7o1q8SAWbzkNCqQfblt9++500i35NNh5pHVYLtu6g9+tD4sSUjBkzCPvCOLEFDSZ069Hf4oeoD6xGhw4bI6r2KS9XtjQpU7qET7mz4PTps15FotWKF9KdmyULZ1gnu736DPb7g+KkC2EFExERwEarXYeeompueWGanPmtIW8QHNbogGzbhkMOfwC/VUTgwOpJF1S5WY/S34QOFHgmnw6a3zh798oFMAjjsEZ2QolnlQUp9XtwTMMhClWXVLDtpzZnKoAzLuCdd2cpDxlktPLfCZuDpBBudDM8mrIfHJTAWM7qACYQp2JrVi/SQffgYJULHRUPoIyO6dSHV+VThv43r19JFtDTIKym2raWn0JdufKdFw1dwTZx3DDyP+rQvGjJCrJh0ydeNOJ6c5GeqorgreHjtOcCQgj2krEr5xMEuUymaSgaV7MT59hfadOC7N25gcyZNZls2xJr2Vk5cXj3qoOcr746ymvmU/Z0/rw+ZYEqwG8Tq0sVPEdtKEUAGt169hdV+5TD9hTpG6dPHUcaN3zZp15UAB3u1e/EO5LEooYoh1e/CooULkittS+SMePfUaFK6zFh+Lr37TdUiqdTmV0QKhn7fpzW6gAs7pdQYQLPCqws3AIEGy+d3Zq1m3wMi3m0sSpYuXwOYZW0TyrMJzBWFnTUCIilBeNo2I117zWAbc69xkfjr7/+1hZI8NbgAdQBs+fqfTAg4Fcsm03SpX3cQ+rwYXW4c/Aw+R31hqchc/Hggw+6Wp2+/WY/aoDcyEMBhqNDqA3jCmowrgLVVlNnd4Q+AmEvKRordhI6IHPM/3TbTq7hMo/utKljLe8Ou65a1YqW0z92bDqAwxaRMBSu2CAE2MzPoo6epdJ76NtjRdXa5XmfepIe0U939UMTERdFAN20aauoiVc5ttfLF8/y2Mzcd999XvU6N9vpi8uDZctX84p9yqZMGuEl1ICA1GwyYLddMGXRAVh3AyZSOzoZlC1Tipw4vNuyV8SKRXcbBxcZJ8B6X1cdAOG0lG6TWaEGevAYUIEz3LkKX1bfp1dnL6Fm46ZOnYra0Kkj2MKLRQQ4ONBZKcEuzq1LnahPXrlOCHm0ezr/U7zmVlksjeenA9glwKzICfDaaB2tF8h0zccbnc0990LBpqP4BaPhQB3XrSNGAxON6dTqXgS6LxLaI1YUD1au/phX7FM24I3ull+oXQEfTTf9ox2OzJ3H0lg6b/l0u01W+L9E8aLW1tCJ8PkBuWI3S+a71v7I4K4DD1B7JPhezpy9QIhetXJFMmfmJA9P4LdY/sUyQny7Ar8PnjsM3IV01AHg+bLFMwlPZwrXPBU40wk68XV9EqFP69RBfEKfLq3a9AHPK/rYqFZz9rijijxrXwblvw5P0XH+fHzBBo8FnM6rAMb4MhdKdlUsoyV7l+Ik2EqWKEomSezAEF3z0nm94+NlEuNEKM+PHdpFmjauJ3tOqw5Msw8hWGSctDp979h6+xqrveLFiti3nv/sashTqLhYsXIN2bR5q6VIHTB4BKlODQx1oP2r0Vy0Y8dOcMtRWKliOYLVgw0ICqgDeLkRskgEOLSAWxFPQIna2OW5OYlJ8HIvpJbtOtCjWwfyVJ4nfVDhNK0jGAOxbcOKcfyYodSDQbxq//PPv3zGyCtgzZnYevjB6oAdvl0H1x8cHdUT1AIi9cLW7bu0um3WtL4UL2fO7FqrYBARqYmEOjZEzdABkfU2FN21a1YRfqVY2vgyr123iS3yXEPQTJ0yynKsFj2EB5leFBF81XSZ3u6VaO6PGMp1VW5Odhy47tvvTWeR1j1vawO3K5lJBNyHWPj119/YW+E1DhxEOiLMC15qrNBYgA3eHo3Ts7p1qrPNrOv91GZN5p5nN8BqD47WPNBRkaAdTyjy6MnK6tet6VFJiPC+03hXICBFcPiwnmBDQNBgAQxzdT4WslWjrqqnVo3KysfIT6O2yJJ12wQwbl7EEeGK7fqNG3Zb4f9Pt37GrcOP8o0+Xay6n3/+hYvDFspeWDh52xEsvqEhZVQgUmzqtAVtUcafWlRIxwdgdeoUJOgXKwY43PMABwBYPbMAsxYdwEmoCHBalT59Op/qBTR2m+olgFCEMtgJS5atchZx7/v17Uqg3OeBTp5UtMueja+SsGk+QMNdqSBRIuEr4mmKSBgqkEWc0T04wEomWHBB0/0O+mcRnDt/QVTlKUd7HT0hQkDpwA8cV0K0E87a9Rs3lXRFp24D+/fwbAd1Jl3UEY7WcToJwBZGJyqAyM4H8cx0QPRlRVge0aGEDl1dHN422G47iQp5JCq2xwFBBxMIRD9wwq+/6a3YRIbKOIavWqWCk6x1Uq5zWNT+1ZY+ggmryIWL1dtQCMUadyJq+AyAFhz8Sq3egL0b7wPBoycrS5RYuKmxmsGk5szZczISVp3z8INtgPBUOuA2UogOTRvnG+qnqwP5JQcHl6hfqApkAp5t+7iGyxbwRWoA4azJDCvZATivIZHZ0w6nbZUTX3QPAdO9690XFgEAdYDnkI92lzScZ9Gn6GXAiglRNKrVaqwzDL9xMqRPK2ybPl1a0rtHR+tPiHSn4jfNraiITs/uHb2qcHI3b8Eyre01BBNvG7mVmgLoQA16UiuaB7TftZtvI8jSfiZAhqxIoiKDnTRunw6ITmjhLyzbsdi08THTPeyw27j5r6MeAL3cuXIIycZVwLOE/6VhynQgderHuGjCFRsUtP5Ad7p6YJWklzUECq+fTjFtPVtQ1MNJWgX4SosmH1EGVCCyf7PbFS5UkCBMdjBBZ5mu0/8ff/6pg8bFiW7eyBNHDLo9+P+Wq1hbS6iB4PIl73sdZNid6GxVgFuxwgt2E5//0KmIdgossr2qZcv8uZYdGoAeYozpQLGihbloly5f4ZY7C2UmFk5cf+51tqL48IsiXuvovzGux9OIdY3suDHPOsDaebL4whWbSofCErGvoVtz6qgQS80t4IvvNLxD2GYVFKKCRwQIiaMCmHWooG/vLtSfMgmNLjpVhepX/S2/Wvk2Yj8uvrXyks70owJAhqsu3d9wFXImdsV8YWalby+JvRDYEYl0icBBFF0dUMWCwwpUpJ9h6csEGyLEfEwNrnUAqgweIN6dDuTmhAbTaaeLo7OzEql50IczMo+o3wcfTCqq8ipHbD0dcBql2224KzbYo/gDMFNwRk24+K1aoDj76hTzik9eAZXTK2jIjvdFKzm270saLx5+6L26xxDYmgUDLmt+wVV9Ix+BPwC9Jg4MsG1EPDPd4ID4GC1bNEuaEfzCBbU6AZ4Nsg/MQU19VA7FwcEbA94munpIER+XffCh1uoRJjOiUFq6KzaZm6BofG7Kf9bwrpE5vt9/v9gchh0HAoHqgMxdym6PhZToA85dsf1I9/3+AI7GnaB7Gsm2a86xczl8RH0kLtt+wMhTtQrVNefAQYYuLpbviKCKF3/Hzt3sY3Kvv/nG/YfASQgubrz4bE483n0zaisIf7+u1JFfF6BTHTrkdR9PCWf702fOOYt87tNLdIxA3rR5m08bXkE6qo8UAbaPyN+hA6IVG3g0Ztw7OiS4+ka74erYdfal9H9m+huSAVageEeQQwBRdm7SQ42MT2SwVAoFC+ZXhmq/eVN9WMgzlLbH9DhNNKMDSNqiAssTQ8OdEwl3RMAVbLrO0yxRWKfz9t+nz5xn0ZTXsPJ20sEKUkcxKTo1gp7oO4nDLDsofClkJ1jAPX7ilPJLXb9uLS/DTnhn6Ag2XYHJjpm9xta/1sstrKxCbLnONVah2MJhDKqPgE1PNyQ6DqPOnlP/FjJwzEvsvqD31Qn1hC+56PDhdmgt74MRmz7vv8gudz7NTaDDI3zYKtDfNA8Q8EHHlQptZUIFUV269hwg5U1M+zakU8e2wlhu16//yBuiVxnPXsxGgJscwrDfotnqZXDm7AVZtVWHAxkd3lYsX1ZIi7sVFbl+CKnQisovlfOphuTVGSDbkGcvpsMM0EiVyveEBEINYaqxitEBHat4nQQjWL2yX3ukLtMBRNdAAhx/AF4OZV6s4Zrndl/Nm9W3LnUMToEIPahOngd8LBB0UAdEWza0XbteT58lyjEAX9uaLzcnf/2t5ylgjZcj2WCe8Xr/oTqPQ15t24IrZJF5q2PXvlo0gCRSkm/bsYuUeqGaVKih/eSpM0jnbm/gkgs6qhqRbSQ+WvUatlIKNXQMV0OVs/1iiW0lO/iqVSqyt17XXMGWRGG740Xhzg0vkoU/OowXaVYkJ+jaoDn9I22h5iY2FMIvOemw44HbicrIFCuG4sW8T8Fy59a3Gh85RuzixI7FvoYSe9CbI2lE3te0TAfsdux/bJXhlgWQRcRg28DhGQcMMoByvCbNeISVkg6IhCpWBCNH6/GFp+/Bhw3juKFheM6O834mGQzK4ZoX3boTiyK8xmotunlDn3oESkSeC13IkT0bV5eEnQzi5+kCvHs2bPqUiy7b1tkNeIsDJGpBUFg3Ow1kgxPB4SPHhJ4wbBuYlWXNkokt8rrmCzYNi2yWCk6xeKcTIgnPtmWv8fXn+aHp2tSxho5geNt23VwHvINNEU4CoUNxAr40MZ37OIt97pFj1XmIgmNu+LHqAH6AyBsB1yUZoB6ncpWrNdRO2SeiV6d2NY9R9WOPPSpC8yoHr5CzQXTijO13pWoNtFyobMII98RThYwe+45y+2/TwIEH61K2i9JsGt1Ou71NB//ZVTdiqtVt0Ep7RTxqxCAvdx8kIunQqZf1EWL7UF3nEngcQEDo2p/ZfXy8dqN96fU/U0a5Dg/IsR+upwaxd82IsLNAohZdFze7QxiF8xLXIEdC7bp6K3ueu55NH/+5OjaRKwvbkL0WLQl/1ThpYenUqFaJvfVcX6dfSR1ACr221Gfyd/olm0hDIOnYO/Hoxn60znKuhRM2PB+wnYbSWnf7ASHBA6xqdX8EyBsB+7Ehg/qQvNQR3NZvYHuPk7TNW7Zbz+h2q88bF8rYaB0qHSNLA7rPqBIVCHxsny8eZf3wr1+/QT5as0Erhj9LC9cQlm++NYa8/VY/T+5MrGB1tv8srZjOvS1D8a00Z8fS5SvZKlfXtksVTonbvNrF1YoY7oRIvH2V+pJiC6abL9Y5QNGBiu6JNUsPSYp5INNt2vh4n9p16EEaURXEoUNHyehxU+wq1/9juvShW9KvyUtUhZWULqS279hjxUrUMVbG7sLO9SrqmJtXFAlys+QoKGrjU75v50Zu7kRI9Bcq1PLBFxWcPLqHq9xUJZEV0QtFeflyZci82fzTMizli5V8ya9hYXubPHkyV0t+Nx2dOrbPy8wCYd51oqG46cMNLk64sd2A0zyEZ6gAZhbYjUAwhQp6dO1AvXBe8+m+eKlKrldsEApfH9vrQwuhpHQ/3D6N41iAMekINLsb+DA3qCeXK/ytKNWxoTMdwIpGpKzlbU9FNHGqKsq+I6IvohWqcgifCWPfEnafJXMm0rSROvQSjwBWZm70GDwaojIIY6ftGM9PVNQ+GOV41qXLV4VUqOG5sNULpVDDGNhwVLgHQA3hdhuKdsmTJ8c/H1DFrvNpEMACN0INNoE8szLncLiCDUh5adgQHZC9AKlT3Y0PpqJVvZr4hCOTJDmLim581s+ZNYl7MsuOAf6vuh8Ntl0wryuUL+ND/mW6nQ62UahPp6aAy4E0TJw9G8HeItv3uv/t3CJO/Cia/UpmB+rED9X9iGEDvfSeonEIBZvMip8lhq+9CGBLhFWMDpT9X0khmsyGR9hIUIHjd+jhAg2TaKhjOxKJjDas+kVbVVk7t3U4kUMMOR1wusGhDY7/od8LR8ALuGr53HAcWlDGxHP0xqEGtupuQSa8XlEkC9Lta9L44drvvS5N4C2eP116EsrSEgq254sXYfG413h5VAIQ4W9UAMNQp1Eu2waHGQjXE1eYTBk+qH8vMqBfT7+3hLwxQFjWpQlRdAGhiTCWYAGCfO7c/rHXgYCoL5zUijI5wQDy9d5dRU1dl2OlCrcrNvqLayK0wYz3xpNi1Klcx4bOH/rh1kZk1S+KGCIbf/VqYh1vTY0AkDLakAfrPlpKcGIZu2JewFb8+N2s/XAJKfO/ErLuveqEgg0rKNWWqVGD2splYc0a/JNOdhS1alZmb7nX7ajwUI2H25AWguFgzMt3IrpiJTly+EDSrfPdsEiitqry0cMHW8JSheesx1hiVy6wxuas8/ceQgrPOWRgb0tfKfsR2328XId/gmvXd+zQhowaRs0WNHWudjvnf2xr1320hJQqWcxaCcI2yy1gHj+OXUyevBM6Z8yIwVaOS7d0wgUfemUVgO/Zs2fhosW0b80tFxUiaotMGOLkHYp5fwAfmi0bV3oCIEAvjlSJuiZOoj6x41v/8TLpuHlthYINK6ixo9/ktbHKwPDX2rUS1tsV2J41alDHvvX5jx98w/q1fcqdBRjPrBkTXQkCvAhImYasSs4JxVK+J3Vmf3/GJK0tpHM8CN+NnJ9NGtd1VmnfQ6/x6aZV0kQhOsRq1ahCFsx51+cHgPhtstMj8Kdli8bKLpo2qUd2bV8nnUcREfSBBMefbFxF7AiwGBdSC+Jl0AW8IBCMbE5LHE4tWzTTr5WBP4KVHStc/zauXU6O01wcOgKKbYssTLAk6BTThi3mXrdu2cTHJtJGhIpmJNU56QBsTfv0VBsW4/fSr293HZIWDuZ32ND+1jw4QxLBWwJpEzvToBZuwX53P9u6hn68srptTrjmHiyVEaMnkRkz53kdx0IYIZorXkwdgLFrh069fbJZQejhFDHvU7l1yFg4sPxGYhRRNhwIXBx8YDUJBbhOEhJ4KOzYuYdMmz7XSnQsOqUBs6tULm8ttaOKPKc9Zh1EPNdqaskPF5ntNCmGaAyghXFACYytQxVq1CzbxsOgsmOXvj68h65lysQRNJVaXp3heXD2UfMLuLycoP6ysojG0P80rF/LEqwiu0i47q2kOTnnzF8qdAmKKlKIxLzWmsAjxWn0bA8KFvjT6G902IjxdpHyP17eocPGKPFYBDwT9JHYorMfSvx+YHS6gCapOXT4KNvEcw3BDDvG1q2aEAh2G6a+9z4ZO34qd77h39mbCiPsMGSAVIQ9+wzi9o33oT/NuoZESKJIGDzaoDlh8jRhLhJ8GNq2bmbNsWh+WboIqAmTEriSiU5z7XcXvxtsZ3XeXbYP9lop2IAMuzYY5EFA4SuJ8CU6vmVsR7jGw31+4KD1A81MU8XB/EE1aU4a9j1+THC1OnX6HDWm/cVyEgY92Utut1X9xzi/pc7kiB+Glw+nUjhyhwsHa4muouNvPY7yYd6BcdygHhRJaWJeBI7MmCE9eYJGbHjooQddk0ZC5GPHTlpzmC1rFpKNzqG/vLc7t+aA+oGeoYEOEB0CByNIAcgzT7DbiP7DwR12fjBqTUpTAqZIkYJkzvyE0ASIR8cygaBx909Tn9BbdN6i23TkoVkfhvlzplKviNu+sVykO4XIUJ6ORhzJQ13i7NwbMny4t8FUBSGaoPTHbyYtTfQsEypwFzt48Ah9kZNYHhPAR0AHpwmOrF/UId0jUvkhXDYMuXPlzEHSpNG3TODRRwDJc5SniI/2CE0+/fBDD1npLXWEGY8eyiBPEJ4LkWzwzPhggU/+/G5EfWgJNlFjU244EK4cmLdgKYEnCg+6Ut0qVoA6Yd4vX9DLR8Drx5SFjgNCHVvohmR6NhyIOweQn0EESNarE6BB11RJ1I8pDx0HjGALHe9Nz0HiAKIti3RdMC2CKgXbfBVEiseL6jnuxXoj2O7FWU/gz7zsg9XCJ7Rznf700y9CHLsivWZuSxvf/A8fDhjBFj5zYUYSAA7gAGG+ZBta4cXbnjI6obBFwR0DMExDIsgcMIItyAw25OOXAwe+OMg1ncAo2IANvJhvzpE+njaNs8jcRwgHjGCLkIkyw9TjwMZNW4WIrCsXzGhUkIma1hiITA4YwRaZ82ZGLeAAovaKoGKFsp4qneQ+sPUzEJkcMIItMufNjJrDAQQ2FVm1Z8qYkRrZ5vK0ggG2CkRZz1TtTH3oOWAEW+jnwIwgQBzYtXu/kJIz2dDly/L8lnDvCaQlvHBgpiIoHDCCLShsNURDwQEkghFBAeqXbAPcjVT5MHQDrdo0zf/w4oARbOE1H2Y0fnIAfqtbPtkubM0GAb1Gk82o4EmaONpA5HLACLbInTszcoYDZ87QYAg0wxUPkEibjcIsShfIts2nGRqfbWOuw4cDRrCFz1yYkcSBA4ePHhe2jirsHWIKUVtUwIYlUuGa+vDjgBFs4TcnZkR+cAChk0RQsMDTXlXnz1/0uufdmBUbjyuRU2YEW+TMlRmphAOnTp8R1jozqYtMQmwCCCjpT8w7u735H3oOGMEW+jkwIwgAB44fPyWk4sxvi4CbMigaVUhWbeoigANGsEXAJJkhqjmA6LsiSE0PD2yAk7wspDnwihQuaKOb/xHKASPYInTizLDvcgCmHqITUWClTJnSg3yehrlWARKfGIhsDhjBFtnzZ0ZPOfDHH38K+ZDs4YetuPo2guz0FDgIROncutptzf/I4YARbJEzV2akAg7IVmvOEOCffLpDQOV2MbKQGYh8DhjBFvlzeM8/QaL75T9jpOcDwJVqzccbpfxy+pRKkU1l2HJA/osI22GbgRkO3OVAypSP3r3hXCFHJgCrNdnqDrlWkQ/BQORzwAi2yJ/De/4JkLNTllFqzvzFVu7ZN9+WJ0hu/2rLe56XCYUBJq9oQpnJe/w5atVtTvbs/dxvLiBM0aEvtpG4JAL2u3PTMOAcMCu2gLPUEAwFBzJnyhinbjvGtDVCLU4cDK/GRrCF13yY0fjJgerVXvKzJSFYrTVrXM/v9qZh+HHACLbwmxMzIj84UK5saameTUZy0oThxnZNxqAIrDOCLQInzQzZlwOJEycibVo18a1QlMS0b0MqVSynwDLVkcYBI9gibcbMeIUciG7eiJQvdzshshCJqahcqTzp3bMTU2IuEwoHjGBLKDNpnoM8/PBD5P0Zk0jTRnJ9GXRqE8cNIzPfG0+w0jOQ8DhgzD0S3pze808Ep3iYfnx58DD9f4AcPnLcEnpFo56j2eDzkooVXiDp06W95/mUkBlgBFtCnl3zbOTatR89XEid+m6UD0+huUiQHDBb0QQ5reahDAfubQ4YwXZvz795esOBBMkBI9gS5LSahzIcuLc58H+TyJogB3D7GQAAAABJRU5ErkJggg==;" parent="1" vertex="1">
          <mxGeometry x="503.38" y="570" width="224.68" height="79" as="geometry" />
        </mxCell>
        <mxCell id="criwHfPJJqmuLG_6KfQK-11" style="edgeStyle=orthogonalEdgeStyle;rounded=0;orthogonalLoop=1;jettySize=auto;html=1;entryX=0;entryY=0.25;entryDx=0;entryDy=0;" parent="1" source="criwHfPJJqmuLG_6KfQK-8" target="criwHfPJJqmuLG_6KfQK-5" edge="1">
          <mxGeometry relative="1" as="geometry" />
        </mxCell>
        <mxCell id="criwHfPJJqmuLG_6KfQK-12" style="edgeStyle=orthogonalEdgeStyle;rounded=0;orthogonalLoop=1;jettySize=auto;html=1;exitX=1;exitY=0.5;exitDx=0;exitDy=0;entryX=0;entryY=0.75;entryDx=0;entryDy=0;" parent="1" source="criwHfPJJqmuLG_6KfQK-9" target="criwHfPJJqmuLG_6KfQK-5" edge="1">
          <mxGeometry relative="1" as="geometry" />
        </mxCell>
        <mxCell id="criwHfPJJqmuLG_6KfQK-9" value="" style="shape=image;verticalLabelPosition=bottom;labelBackgroundColor=default;verticalAlign=top;aspect=fixed;imageAspect=0;image=data:image/png,iVBORw0KGgoAAAANSUhEUgAAAlgAAAJYCAYAAAC+ZpjcAAAAAXNSR0IArs4c6QAAAERlWElmTU0AKgAAAAgAAYdpAAQAAAABAAAAGgAAAAAAA6ABAAMAAAABAAEAAKACAAQAAAABAAACWKADAAQAAAABAAACWAAAAACvnIKYAABAAElEQVR4Aey9B7hc1XX3vVAvSAgJCVUkISR678V0MNh0G3BPYjuJE9uJU5287/t9eb+87/Okd8d2YsclNjY2mN57F0U0UQRCIKGCOupCnW/9Z8+5d+7cmXtn7pyZOeW3H42mnbPP2r997pn/WXvttff60ItRIAABCEAAAhCAAARiI9AvtpqoCAIQgAAEIAABCECgQACBxYkAAQhAAAIQgAAEYiaAwIoZKNVBAAIQgAAEIAABBBbnAAQgAAEIQAACEIiZAAIrZqBUBwEIQAACEIAABBBYnAMQgAAEIAABCEAgZgIIrJiBUh0EIAABCEAAAhBAYHEOQAACEIAABCAAgZgJILBiBkp1EIAABCAAAQhAAIHFOQABCEAAAhCAAARiJoDAihko1UEAAhCAAAQgAAEEFucABCAAAQhAAAIQiJkAAitmoFQHAQhAAAIQgAAEEFicAxCAAAQgAAEIQCBmAgismIFSHQQgAAEIQAACEEBgcQ5AAAIQgAAEIACBmAkgsGIGSnUQgAAEIAABCEAAgcU5AAEIQAACEIAABGImgMCKGSjVQQACEIAABCAAAQQW5wAEIAABCEAAAhCImQACK2agVAcBCEAAAhCAAAQQWJwDEIAABCAAAQhAIGYCCKyYgVIdBCAAAQhAAAIQQGBxDkAAAhCAAAQgAIGYCSCwYgZKdRCAAAQgAAEIQACBxTkAAQhAAAIQgAAEYiaAwIoZKNVBAAIQgAAEIAABBBbnAAQgAAEIQAACEIiZAAIrZqBUBwEIQAACEIAABBBYnAMQgAAEIAABCEAgZgIIrJiBUh0EIAABCEAAAhBAYHEOQAACEIAABCAAgZgJILBiBkp1EIAABCAAAQhAAIHFOQABCEAAAhCAAARiJoDAihko1UEAAhCAAAQgAAEEFucABCAAAQhAAAIQiJkAAitmoFQHAQhAAAIQgAAEEFicAxCAAAQgAAEIQCBmAgismIFSHQQgAAEIQAACEEBgcQ5AAAIQgAAEIACBmAkgsGIGSnUQgAAEIAABCEAAgcU5AAEIQAACEIAABGImgMCKGSjVQQACEIAABCAAAQQW5wAEIAABCEAAAhCImQACK2agVAcBCEAAAhCAAAQQWJwDEIAABCAAAQhAIGYCCKyYgVIdBCAAAQhAAAIQQGBxDkAAAhCAAAQgAIGYCSCwYgZKdRCAAAQgAAEIQACBxTkAAQhAAAIQgAAEYiaAwIoZKNVBAAIQgAAEIAABBBbnAAQgAAEIQAACEIiZAAIrZqBUBwEIQAACEIAABBBYnAMQgAAEIAABCEAgZgIIrJiBUh0EIAABCEAAAhBAYHEOQAACEIAABCAAgZgJDIi5PqqDAAQgYPbhh2Y7t5lt98cHm/2xyWzjGrNN68L7rRvMtmw027bFbKt/t9Vf67Fju9me3Wa7d5nt2hFeqy59pmfby6x/f7N+evj9YT+/hOl9/4FmAweZDfDH4KFmg4aYDRtptvcosxGj/bGvv98nvB/uz3oMHha2G+D77uX1UiAAAQjESGCvD73EWB9VQQACeSKw00WQRNLm9WbrV5qt88eG1f56lT+vdUH1fhBO2mani6ddOzvFUnTpaYa4KVzVipe2vSTE/CEhJgE2yAXYEBdXQ0cEobXPGLOR+5ntu7/ZPmP9tb+XKBu6dxBgzbAvT+cIbYVATgkgsHLa8TQbAnURkAdp21YXTe6Fen+52eol4bHWX69bEQSWPFUSXB/u6aw6yeIkEniRtRJiA9wjJs+WPFyjXGztN8kfk83GHRBeS4ANHR48ZtF+PEMAAhCoQACBVQEKH0Eg1wQkPLZ/4GLKvVCrl5otf8fsvbeDoJKHSkN5ElJRSbKIimzsy3OpANMwojxaElhjXXBNnOGPg8zGTwveryEuurLKoS/s2AcCEDAEFicBBPJOQEJCcVBr3zNb+mZ4SFStXuZxUj701yGmPE6JUKViLJifNIr5Gu4xXmMmmk1ywTVpltmEA81GTwhDjBqSpEAAArklgMDKbdfT8FwT2O7DfRreW+KCauHc8CyBJe/UHh/iKwgp1FRN50jk6dIQo4YP5eWa7GLrwKPNDjgkDDEO83gvPFw14WQjCGSFAAIrKz1JOyDQE4HdHly+cZ0P9S1wQfWK2aJXw9CfgtALggox1RO+ur+T6JKg0kxGxW9NPcxsxjHu5ZrpHq7xHuvlQ44UCEAg0wQQWJnuXhqXawKasbfWh/kkqN6c416qNzxA3QPSd3jqBBU8KoFDs/+PPFwSVaPGmU052GzWie7hOjLEc2lWIwUCEMgcAQRW5rqUBuWaQCSq3n7ZbN7TZovnhdQJeKmSc1oUvFs+nDjSU0FM8SHEWSeYzTwueLqUw4sCAQhkggACKxPdSCNyTUApFOSZKoiq2cFjpdl+iKrknxbRUKLybh1waBBbB7vgGjc1BNEnvwVYCAEIVCGAwKoCho8hkHgCyoq+yIf/Xn3C7K0XQtC6MqAz9Jf4rqtoYCS2FCQ/7XCzw041O8g9W8rFpUSpFAhAIFUEEFip6i6MzT0BpUxQCoXXXFS94o8VC0NMFaIqW6eGxJZElVJAHHqy2VFnu+g6ImSgz1ZLaQ0EMksAgZXZrqVhmSIgb9Vbz5u9/LA/v+gzAtfiqcpUB/fQGIktJTmd6l6to88OgkvCC1HdAzS+gkD7CSCw2t8HWACBygQUW7VysXuqHnVh5Q+lWJAHix/Wyryy/qnrLOvnqR/GTnGRdYrZMed63JbPSGQWYtZ7nvallAACK6Udh9kZJiARpdl/z9/r8VVPhlmAGW4uTesDAXm1tF6iZh+e8FF/Pt7fe84tCgQgkBgCCKzEdAWG5J6AFlN++yWzZ+8Meas2+zI1eKtyf1r0CEBCa9AQHz70GYjHu9A64oywSHWPO/ElBCDQCgIIrFZQ5hgQ6ImA1gF881mzZ+4yW+CzASW0EFY9EeO7cgISWv0HhEWoj7/Qg+LP8lQPPpRIgQAE2kYAgdU29Bw49wS2bDR7/Smzp2/33FW+dI0yrCOscn9aNA7A47T29+V5NHR43AUIrcaBUgME+kQAgdUnbOwEgQYISFgpd9Uzd4SkoASuNwCTXXsksP/UILQktpRPiwIBCLSMAAKrZag5UO4JaOjvjWfMnrgpxFohrHJ/SjQdgI8cmju0bPx0s1MuCR6tfcc1/bAcAAIQ8D+9D70AAgIQaCIBrQ+oHFaPu7BSrNX2DxgKbCJuqq5AQJd5JS6dfLDZaZebHXsesw4rYOIjCMRJAIEVJ03qgkApAa0FuHS+2ZMurF56xGzLBoRVKR9et55AFAx/0DFmZ14dkpaSR6v1/cARc0EAgZWLbqaRLSewZpnZ7Fs9zupus/WrEFYt7wAO2CMBCa0hw8yOPNPs7GvNphzCeoc9AuNLCNRPAIFVPzP2gEB1Akq58OKDZo/d4JnX366+Hd9AIAkEJLRGeUyW4rM0dDh6fBKswgYIZIIAAisT3Ugj2k5g9+4QZ/XQz8zmzzHb7XFXhejitluGARCojYC8WGdd40vwnGM2eGht+7AVBCBQlQACqyoavoBAjQTWLvcA9ht9ONAzsGtRZnJZ1QiOzRJFQN4sZYU/yocNz/m0r3Po2eE5lxPVRRiTLgIIrHT1F9YmicCO7WZzHzV78KchmD1JtmELBPpKQEJLQ4VnXGl2qg8bjti3rzWxHwRyTQCBlevup/F9JrB8oQur6zze6gHPwO5pFxgO7DNKdkwoAXmvZp1gdv7n/dkXk+7XP6GGYhYEkkkAgZXMfsGqpBKQmHrBRdUD7rVasYghlKT2E3bFQ0DeLHmwTndv1hlXsZB0PFSpJScEEFg56WiaGQOBgtfKhZUE1k4fHqRAIDcE3Js181izi75odtBxpHTITb/T0EYIILAaoce++SCgJW1eesjsvh+bLX8Hr1U+ep1WlhOQN2uf/XymoScoPd29WcNHlm/BewhAoIQAAqsEBi8h0I3A+ytCELtmCGotQWZVdUPEBzkjoFisw083u/hLnqDUl96hQAACFQkgsCpi4cPcE9AyN1o38K7vmy16Nfc4AACBLgTkzdp/qtmFv+4LSJ9vNnBQl695AwEI+P04iz1zGkCgjIA8VU/4+oFKGrpxLV6rMjy8hUAHASUkVQb4cz9LAHwHFF5AIBBAYHEmQKCUwKolZne710rL3ZCNvZQMryFQncDBJ5p9/LfMph9ZfRu+gUDOCCCwctbhNLcKAQ15vPmc2R3f9SHB1/BaVcHExxCoSEB/P/tN8risL5sdf4HZgIEVN+NDCOSJAAIrT71NWysT0CxBBbHf8wOz9asQV5Up8SkEeicwZLjZmZ/wIcPPMcuwd1pskXECCKyMdzDN64WA1g6839MvPHkLGdl7QcXXEKiJgGbaHnWW2aVf8UD4aTXtwkYQyCIBBFYWe5U21UZg5SKzW79t9urjZhrioEAAAvEQ0N/T1MPMrvi6Jyb1BKWkN4mHK7WkigACK1XdhbGxENDF/63nzW75ltnieVz8Y4FKJRAoI6C/My0a/fHfNjvB47L6E5dVRoi3GSeAwMp4B9O8MgJ7dvtSNz5D8LZ/N1MSUe6sywDxFgIxExi6t9kFXwgZ4Ad5WgcKBHJCAIGVk46mmU5ACzU/7vmttOTNlo0urqACAQi0hIBmFWrBaM0yZImdliDnIO0ngMBqfx9gQSsIbN1kdu8PzR67wWzXzlYckWNAAAKlBOQtVtb3yz0ua99xpd/wGgKZJIDAymS30qguBNavNrvdg9nn3GemIUIKBCDQPgJax/Cqb5iNm9I+GzgyBFpAAIHVAsgcoo0ElJn9pn82e+3JNhrBoSEAgQ4CCn6fcYzZJ/+QxaI7oPAiiwQQWFnsVdoUCLz3ttkNf+czBl8kmJ1zAgJJIiCRNeVgs2v+hOV1ktQv2BIrAQRWrDipLDEEFr9h9ksXV4teRVwlplMwBAIlBCSyJhxodvUfmc06oeQLXkIgGwQQWNnoR1pRSmDhK2a/+FuzpfMRV6VceA2BpBGQyBo72YcLXWQdflrSrMMeCDREAIHVED52ThyBt192z5WLq2ULEFeJ6xwMgkAFAhJZYyaEmKwjPsLfbQVEfJROAgisdPYbVlcisOAl91z9jdnyd7hIV+LDZxBIKgGJrFGeukGB70efzd9vUvsJu+oiMKCurdkYAkklIHF1/V+ZrVjExTmpfYRdEKhGQDmy1q8yu/EfwxaIrGqk+DxFBPqlyFZMhUBlAm+9gLiqTIZPIZAeAhJZG4oiiwXY09NvWFqVAAKrKhq+SAUBxVxpWBDPVSq6CyMh0DOBoifrhn8we312z5vyLQQSTgCBlfAOwrweCCgVww1/j7jqARFfQSB1BOTJ0kLsN7rImj8ndeZjMAQiAgisiATP6SKgJKKaLUgqhnT1G9ZCoBYCElmrl/oNlIsspV2hQCCFBBBYKey03Jus5W+UoX3RawS05/5kAEBmCUhkaUawRNaytzLbTBqWXQIIrOz2bTZbpoWbb/k3lr/JZu/SKgh0JSCRtXie2a/+yWzNsq7f8Q4CCSeAwEp4B2FeCYGtm8xu/7bZK4/juSrBwksIZJqARJZmCuvGauPaTDeVxmWLAAIrW/2Z3dbs+MDs3h+azbnP2+hJCSkQgEC+CMx91OzO/zDbtjVf7aa1qSWAwEpt1+XI8N07zR6/yR+/MtuzO0cNp6kQaJCAMqRXexRuVFJ0s6J2PHOX2cM/M9vl1wQKBBJOAIGV8A7KvXm6qL7woNl9PzbbuT33OAAAgaoEOoSUbxG9rrpx8Qvpq2jb0ufe9mvX97t3mT14nQutO/1ma0+7rOC4EKiJAAKrJkxs1DYCC170uKvvmG3Z2DYTODAEEk0gEkaVjPTwpVD8hWKZOh7R51Wee6qzyi4t+3ibhwvc9T2zeU+37JAcCAJ9IYDA6gs19mkNgZWLzG7+15B0sOOHojWH5igQSDaBguspeJ/KDS39WykIJff07HHPj7w/HQ8fapcHSN9HReKrvHQIrZLtyrdp9XuZuWFNCHonfUOr6XO8Ogjs9aGXOrZnUwi0hsCmdWbX/V+zV59gxmBriHOUtBCodMmWOCp87pdzCae9/N554CCzoXub7b2v2bCRZgMG+GdDQiu3bzHTrFx5hj/w5x3bgvjSfpGXq+OXoeNFsv4W1d5DTzH77P8yGzU2Lb2HnTkigMDKUWenpqk7d4R0DI/8ousddmoagKEQaAKBnoTVhy6q+rmA2mc/s8mzzKYfYTZxhtnoCWYjRpsNGurfuwjbq38wTB6tHR7T+MFms/UrfbmphZ4x/VWzdz1579rlId6xX1FslegrKzi5Cv81oYF9qdJtOf1ys6t+P7SxL1WwDwSaRACB1SSwVNtHAvoRmX1bSCyou2oKBCDgBPzvoovQcWGhvxUJqyHDzaYdbnbMeWYHHWs2ZqKLjcH1U9Ns3fU+9Ka4x1c915xyT216v+jRUjRJ0YDIjkpDivUftfE95Km77KtmZ17tIlJ2UiCQDAIIrGT0A1ZEBBa8ZPbff2G2zu+qKRCAQBBS4hB5jyJhNXiY2SEnm512mdmMY8JwYFy85EVe4oupP3VrSOy72Yfso+HDUk9aUkSWvHSf/3/DkGFcDKgHAg0SQGA1CJDdYyTw/gqzH7u4ettFVlIu3DE2j6ogUBeBUiGjHfU3EX12wKFm537G7Igz3IPlQqtZRfmm3nnZ7IGfmr3xjMd3eXC8hFZkh44bCb9m2VBLvbJHTH79/5iNm1LLHmwDgaYTQGA1HTEHqImAMrXf9C9mT95S0+ZsBIFMEygVMGqoxJWC1wcPNTvl42bnfd6HAj2+qlVFwfCP32j26C992NC9WeUlKTdEJ3zU7NpvNld0lred9xCoQoAB6ypg+LiFBPRj8szdZs/6gwIBCHQlEImrkT4MdsXXzK78RmvFlawZ7rMQP/obZp/4Qx+KHBHsKxVV/ieciPLig2FYkySkieiOvBuBwMr7GZCE9i98JawzSKb2JPQGNrSbQKn3KhJXYyebferPzM74REi/0A4bNeNwgQe+y9us0mGnxgilsBKgsgqZ3n04U3ZSINBmAgisNndA7g+/cW1YwHX9qtyjAAAEOkWLsyiIK495UkzRZ/6H2dFnt2+WnIYIb/03H8L3oHeJGJWOGXsurDo0VgJElpKQ3umZ3tevDnbyPwTaRACB1SbwHNYJKID2IV+4VdPBS4cbgAOBXBIoChW1PfJcjRpn9sk/Mpt1QvuISFzd9i0fervdnVQeBybPley63Icrpx0RPguR7sHGDs9Wm0wWu4Vz/driaxayKHSbOoHDigACi/OgfQReezLES7T7gtw+AhwZAoGA/gbk/NFDAkHvNTvw0q+YHXZq+yhVFFeeNf0THgemWYxX/p7ZfpOK2ePlxioWtaOdRfxmuyB85bF2WsGxc04AgZXzE6BtzV+zzOyeH4RlOtpmBAeGQAIJRDccp19hdsJF7fPuVhNXn/RA92PODXYdeJTZxV8KsxsjuwtI262w3IhtHjN274/MVi1JYCdjUh4IILDy0MtJa6OSGD7wE7Ol892ykrvepNmJPRBoBYFSLVLwXvkwnDKzn+MeogEDW2FB92NUEldahudKX5ImElfaS/Yed77ZsS64uggsfVnaML1vdXHbtBi0hgp1zaFAoMUEEFgtBs7hnMDLj5jNuRcUEIBAgUCJEJFIUYZ2Db/t63FO7SjVxNVVPix4/AXdPWpa5/DsT4XUEbJfokulpFnhgzb9r2uNrjkUCLSYAAKrxcBzfzgNDcp7ta041Tv3QACQawKlXp/Ie3X4aWaHn94eLPWKq8jKSTPNTvYEqIU2lCqr0tfRxi1+1rVG1xxdeygQaCEBBFYLYef+UJrR8/DPg9uekcHcnw4AKCMgsTVspNnpV4aYprKvm/62r+JKhillw4kXmylfV6loTIC+KkQhaKhQ1x5mFTb9NOIAnQQQWJ0seNVsAvNme7b2e5p9FOqHQPoIyPOjdf5mHm924JGtt7+SuFLm+GrDgpUs1GzCo86q9E0yPtNKEboGUSDQIgIIrBaBzv1hlFD0geuYNZj7EwEAnQTcvSNPrh7y+gwcHJKJKqaplaWauNKyOApgj2KqerNJXiwJLC2rU1pKPVqln7f69QdbwjVI1yIKBFpAAIHVAsi5P4TWBXvKM0Ar+V+tF+vcQwNALgi4riooLImQ0ePNZhzd2mZXE1fyXElcdWRrr9GsiTPMJh3kgtH/5gvKscb9WrGZhKyuQbNvC3m7WnFMjpFrAgisXHd/ixq/5A2zJ27uGpvRokNzGAgklkBBXBWtkyCZelhrZw72JK6Ov7B+caWmDBnuIvFYf1FwyxUbl6AnCdknbymmiEmQXZiSSQIIrEx2a4IapYVhH/mFrwvGWoMJ6hVMSRIB/ej362+FZWf6D2yNZZXE1Yh9za7wzOx9FVeyXB5q5fAa5MOdSS3vrwgB79Gi1Um1E7tSTwCBlfouTHgDXvOg0rmPhgtvwk3FPAi0jEB5XNJgj7vS8ForSjVxpSSiJ3rm+N6GBTUTb/N6X/TZnysVzSQcPqrMY13qrqu0Uws/kwjUEjrznmnhQTlUHgkgsPLY661qs4JJ5b3aTs6rViHnOCkkILE1fB9fQHn/5hvfqLjS3/QNf2f2ra+b3f5ds62buts8Yoy3xdcrLM00miB9VTB421a/Nl1vtmldd/v5BAIxEUBgxQSSasoI6Edjzn1mi17Fe1WGhrcQ6CBQmPThfysjRgeR1fFFE140Kq5k0iuPewyTT1hZPM+XoPmZ2fP3l3mqfJtBQ8xG+rI6ugYkdVKL7HrnFbPnPG1MuTexCeipMp8EEFj57Pfmt3r1Ur8Qe2C7cvtQIACB6gT0A68EoxImzSpxiCvZphnBEieKGdNQ4UsPdvdQ9x8Q2tOstsRVr65NT3nAu65VFAg0gQACqwlQc1+lLlyz/S531eLcowAABGoioBxY/Vy4NKNUEld7e4zUFV+rLeaq1KZZx/magxOD10exWssXmq0tW4JGAmyIr6eYhrLSr1HP3M6NYBr6KoU2IrBS2GmJN3npW+56ZzHnxPcTBmafQDVxdaXHUJ3kawf2FtBeTmjMJLMpB7vAKua52rrR7P3l5VvVX2/3Glr0iXsPn7nb0zb4NYsCgZgJILBiBpr76jRsILf7+tW5RwEACNRMQF5f/62PtcQtrmTcAE8jsY8C2ItFdm/dHL3rfNZQYlqKrlW6ZrFOYVp6LDV2IrBS01UpMfTd181efsTjNFJiL2ZCIAkElJOpWtqDvtjXo7j6WN89TIoX27Orq0WKuSotEleapZeWomvVSw/7hJzX0mIxdqaEAAIrJR2VCjN37vCM7Tcx9TkVnYWRiSGgmKUP3Aukv584isTN7d92r4zHFhWG8rxSxVxd/lUfFpS48gD1vhYJwZXvdu6t2DHVXVp2uwDbnLL0B8rr9cSv4uuDUh68zi0BBFZuu74JDdc6X6/PTu7U7CY0mSoh0BCBQooAF1hbNlTOKdWXyhe7F/lZjyuKxJWG9S7+ktkplzYmrmTLQk+7suTNUI9sH+k5r8ZO6Wrljm1+k/V+uA4U2tf160S+k8h9/Wmzt19KpHkYlU4CCKx09lvyrNbdtxZ01g8FBQIQqJ2Aftz1d7N+Ze379LTl0L3N9IjEjeKkViz0YbstPe3V+3fy8jx4XbBVNkvATTvCY7I851VpUTLSDWvSd6OlgP2n3esXlyexlAmvc0kAgZXLbm9Co3XnpztAXXgpEIBAzwTK/0602sF7b/e8T63fasmdj/2mJy713FoSWYqJ0s3PHd9pzEu2dH7w8OzlPxuqV9nnT/hoCHwvtW3NEhdhLsZKAzHL21u6fVJey0Zdw+SJp0AgBgIIrBgg5r4K3fE9c6dfvP0OkAIBCNRHQD/s8jJpgkgcge5aMPpUHw68/GtdRdYTnvhXIkvxXn0p8oopGaps1eO488xmndC1Jgkvrd6gYcI0Fl3DdC3Di5XG3kuczQisxHVJCg3Sshnz8F6lsOcwOQkEXJOYvEL6O9rgw2txFAWyVxVZvoZgX0TWpJnuGfuy2cEuqs6+xuyjXzQbOKirtap3wcvhszR4rbpaHzzwrz3lcWZvlH/DewjUTaBsfm3d+7ND3gnojvu5u33WkA8JpPGCmvf+o/1NJuDqSQIqKoUR9PJhdN9Afztr3/P18Xx4avT4aOvGniORpVpu/ZYP27l3RsOFj/8q1HvJV0KsVq1HUbD8Rz5pdrInKC1knncRV16WegD8ewuCYIxiwMq3Sfp7Xcuevcts6qFm8gZSINBHAniw+giO3YoE3nvH7NUnEVecEBAQAYmKLo8yLAWxVdym9CsJLA2rvfxwvMNTkcgqHy6UyLrzP+v3ZMnOwb4MTqVUDxo2nPtY91CBtN14yV4taq1rGwUCDRBAYDUAL/e76odEi71uIGt77s+FPAMoFVR95uB/S1q2Zv7zYaiwz/VU2LGayHrshr6JrAqHKHy0eokLExdYCm5Pm6gqb5NmQr7wQPD4lX/HewjUSACBVSMoNqtAQEMaLz3iX/iPAwUCeSMQCavydktcRI/y7wrvo+9Lviz8CfnnStA5+7Z4vVg6TE8i6+7vN555XUOPGlZb6+sSqu1ik/Yy99HK6yymvV3Y3zICCKyWoc7YgXQB1XCA7lpLp2NnrJk0BwJdCESiqlxAlAoqiQ1lM9eQmW4+5JnSIxIehe98G2kQfVZaFOyuH/ZmJLysJrIedU/WXT5c2MjyNkrhoEWTxaW0TaWvS9uZhte6tukaV97XabAdGxNBgCD3RHRDCo3YusnsRR8e5OKTws7D5L4RkCIqK5FokqhS4k0Ffyvx5vjpZhMODAsjK1+U1uvTMjPKcK4gcGVDl7dnl6c4kaiKiupT0lEl9Jw8q/syNNF2fX2ORJb2jwLfJfgksmTHxT5LcIjHWNVTlMPrIbd33YpQR1auCepTXeMU1K+cYhQI1EkAgVUnMDYvEljwgtmyt8ABgewTqCQYOoSVe6kkWjTzb8YxZoec7NnNDzPbd3/PGTW0MhvNvF3vmc7fmmM2535Pa+B/Szu3d4oTCZ03nw3rel74a6H+yjX17dNqIuuRX4T66hFZYjPn3uIC7xKK8sgVhWiavVciIft1jVP/HH22PqFAoC4CCKy6cLFxgcAu/4HQ6vOa9ZT2iyhdCoGqBFwoFLVCxyalwkpeqYnuZVI288NPNxs3ubZp/Zr6P2aCPy41O+psH4Z6xOzh682W+o+59IkEloYXJXgmHWR25Jkdh4/tRU8iS8OZF33JZwtWEYilRix8xezeH/q1wAWi9usQo2pIBoqucfJiHXZa95xfGWgeTWguAQRWc/lms/bl7/hsJ7/7Rlxls39pVYlQiGAUPTMaNpKQmHyI2elXuvj5iNmosdFG9T8PGxEWYT7QvV+P/NzjmDxQXENuElmbPOD9Fs9fNdKHHKe6VyzuUk1kSeypjRf+Rs8ia5XHKN38ryF/l+rqEFduaEb0VeEap5mdK/yaN8X7nAKBOgj0/99e6tieTfNOQBdRzXJ69Ym8k6D9mSRQ5rWSUCjcSOhzf4x1L9V5nzG77Hd9OPBEj1caHg+FAYM8bmtaiMmSJ0tCTsfVrMJlHrM17XAXWmPiOVZpLRJyk2d6rNe+nuTUM7DLE6VYMi3b86F70bSYsxKMlpd1q8xu/AcfynwuiMFSQZW1Gy/Fzimu7qBji+dCOQzeQ6AyATxYlbnwaTUCCsBFXFWjw+epJlAurlw1SFRJaAzzIOfjLzA782ofFpwRTyvlqdIQm5aZWuyCZv1qn8m3JQic6AgSQFrb7+d/bXbNn5gd0AQvirxPp1wSjiiPmf7GFQbw4M9cUPh3F36hazyZgvN/9U/hOiAxFYmrwnP0JmpARp5f8RtKeSybIXIzgohmdCeAwOrOhE96IqCV5t97u6ct+A4C6SNQOrwlxSCdIE+OBMZM91yc97kQwF7Jm1Nva+Wd0pI4j3qMlcSV1u/T8Ts8Pzp+iVCRyNLf3U/+P7Mrvu7xQKd2/b7e41favprIeuAnYetIZGn2o2YfvvGMfx7Z6bZnvSz3a97bL5sde27WW0r7YiSAwIoRZuar0uynlx8juD3zHZ2nBpaJAwkbiR2JoBGjfe29T4RHXJ4LDTc9flNIw7Deh9kU66SiZ806VGC5xI6G6ra7N0spFCSw9FB6h5/+pdm5PkQpb4rit+IsvYmssVPM7v+x2fKFnQIvEqaOrSC44rQnSXXt9HQayk+mmLs4RHaS2oYtTSOw14demlY7FWeLgIJa/93voN9fka120Zp8EogufaXioOC1cjFzkAedX/jrZgefGARPHIQ0JHj/f5vJK6QfbB1Xombywf7DfYbZ9KNc1O3rn/l97zb3aq1c5J6iZ93L5d4ixWJJZMnm/r6PZrVd4EN3ipHS+ziLZjA+fYd7qv49DBeqbs2YlAiU8Cv1rkXHrfRZ9F1WnpV646v/Yrb/tKy0iHY0mQAerCYDzlT1mjm4bmWmmkRj8kjARUqX20pXOhIuEldKCvqRq/xxdWOzA8uxSlzd98MQ16T4JhV5yM75lNlJH698rOlHegqIi0Lw+f0uygrDcr6fvGta8+/d1zwu7MKQCHPigbWliCgcuJf/JPpO+lhYpeGB6wIXedJcdxVEViRMVU0ehFWESx5HBfUjsCIiPPdCAA9WL4D4ukhAQxs/+F+dga2AgUAqCZSJq2hIUOJq4kFmH/+t4E1Srqq4Srm40rHGHWD2iT8I+bNqESlafPi273gaB/csRQInepZnRQlOFR8kj1YjWce1QsPieUHAvfJ4uKHScSJO5Uxqsb18n7S+FwfFv33pr3pOX5HW9mF37ATwYMWONKMVrlwc7pjzdEHNaFfmtlmRIBGA6DyW2JHH5oizzC757fhmCEaQq4mra7/pouikaKvenxUDdvlXw1ChhI/sj9qw3r3Ks2/1hJgP+PI8M8wOdM/XAYe5p2VqyCg/eFgY4tMQY+S6U7t3u0tq+9aQb2vNkjBbccHLnhZifgi81xhmP41jajcXF6UlOnbpZ1l/rTYvecOHbt9tzmzOrPPLYfsQWDns9LqbrIvrWy/4xX1D3buyAwQSQaBcIOi9RIaGBM+6xuxsH6prxPNTqZFxiauobsVnXfyl8CO/wVM6FIK49KWEkIsnHU+zDfVQXi0FwY8aF9ZD3HuUB9EPDjVpuE/bylslz5jWR1RqBsWFSYBJiKk+aSo9SksehVVp+zevD0mWp3jcXN5ZlHLhdUUCCKyKWPiwCwEtF6H4D/0gcVHpgoY3aSBQohJ0/kbiSosxX/KV+IcEhSRucRVhVkD8Eaf7OoU3d/1bjASkhJEEl0SUhJME1IevR3t3fxaPwt+0RJrY+EOlBFnhPX/3BQyFc0fXwjM8Tq/eRbFDDfyfIwL6a6RAoGcCconLNc5FtmdOfJs8AgUxVTRL528kRLR24K/9pdkx58QXHB61vlniSvVHMwgHDYmO1vW54HWK1JG3t+CN6u/iyR+aCRg99F6PwrChb6cS7Rbe+f/av/jo+CznL8RjqQ+haoYnBQK9EEBg9QKIr53AghcZHuRESBeBgrAqUQwFceUeWOUwOuNKs8/8T19bzr1BcZdmiqvI1nFTQ2b57ooo2qLKs3hEjyqbRB8XhFX0hucuBDScqmtiJNa7fMkbCHQSQGB1suBVJQKaPaj0DBoepEAgDQRKdFXBXDlolNtpuMchaUjwyt+rnBah0ba1QlzJxqF7hzUQu7WzxOMkgVRPKQiqkv3r2Tdv20pYKV3DTg+doECgBwLEYPUAh6+cwNoVwSVe7wUbeBBoC4FS1SGR4e+VN2r89LBAszJxa2gs7tIqcSW7JRb16K309Ddbp/7q7VC5+l5cl73lecKWmk2amaum09j6CCCw6uOVv63ffdUDZdfkr920OH0EIm0ViYdomPCg48yu+n2zqZ66oBmlleJK9m/xmWxavzBqZzPaRJ09E9AEgkWe6BWB1TOnnH/LEGHOT4Aem6+1B5WeQR4ACgSSTKAQD1OisPRSnobjzjP7rCfIzYq4Uh9oweWtG9VAvessxAR1smj2K10TFYelayQFAlUI4MGqAoaPncAmv1NezOxBzoWkE4iEldspUaV4QeWB0lT6i75ophxQzSit9lypDTrm3MdCGgYNdSKqmtGzvdep80wZ7zd4GozR43vfni1ySQCBlctur7HRy9/2hZ2X17gxm0Gg1QRcWEXaquDM8f/kWVDCUC2EfKavJzh4aHOMaoe4Uktee9K9ys+7kPTBB8RVc/q21lrXeXzqewsQWLXyyuF2DBHmsNNrarIu3u/MNVOSUQoEkkZAwioSV7JNrxX4rXX5rv5js3M/mz1xpaHBu//LbJsvbyMPCqW9BHZsD3FYCN329kOCj44HK8Gd01bTNAX5XWWA1i8XF/O29gUHr0LAz0udmvqB07CgFmvWAsoHn9g8AdIuz5XE1S//zj0m7lUuDIOWqssqePi4uQR07mlZIqWy0XqPFAiUEcCDVQaEt0UC633m4IqF/gZxxTmRMAIFj4ELjA5x5a8PPNrs838RFlBulndH4uqeH5g9+DOzXR7cLFE37gCzehdurhenJppc93+DRzlqm9YYVNLU0hJ9V/oZr5tIwE/AFYs8lQ1hFE2EnOqqEVip7r4mGq/YAq1jRoFAUggUPFUuplRKvTiHnxbE1QGHhO+a8X8krh7+eae4GjvF7Jo/CaKuGcdUPNlLD5v99C87l6qSqJt2hNnplzfjiNRZLwEt/iyvIgUCFQggsCpAyf1H+iHT8KDu0ikQSAKBgteqaEgkrhTofeJFYdmbcS52mlWqiatr/9Ts0FOac1T97T11q9kv/sZszXsuKL2tYjD9SPeY+XE1S3LnjuYcm1prJ6BFtRf7tbL0/Kx9b7bMOAFisDLewX1qnuKvtKApw4N9wsdOcRIoeqyiKgviyr04URqGi78cZg1G38f93A5xtX2r2UM+DPnAT7sGtMtT94lvmMlz9sB/hyHKfn4J58c97l6vr74lb4T0GUOIw6oPXPa3RmBlv4/rb6Hir1a9i76qnxx7NItAFF+kYTOlXrjg882dKah2ROJKYkeeCg3PSdw003OlIae7v2/2xM0hiaXa3a/oqbv0d8MaiutW+VItPoQfebWaxZx6eyeg/lm9zGzdSrMJ03vfni1yRQCBlavurrGxq5d4klFfCoICgSQRkLga5jmuLv6S57j6ZPcg7zhtjcSVYq5aJa7e97xKt/6b2QsPdnqlBvpQoPJ5ffQ3vO0jQguXuXdZ+eki0Rlnu6mrfgKb14UbUgRW/ewyvgcCK+Md3Kfm6QJOfEef0LFT3ATcQ6CiHFf7jPUFm38nxF31L5tBF7aK538N0d3zQ7PygPZmeq60ePBN/2z25nPeBm+zhv0kqC78NbOzXGANcq+dikTm/DnBu1aayR2xFfi043/Fyymk4qizEL3t4J/gYyKwEtw5bTFNa2tpVowu8Fy029IFuT6on3aFUtRVhfNQQ3P7TfIFmz3+qNk/YgXP1Q9DDFSrPFcLXjL71T+GpVcKw37eXqVhuPQr3cWkZvYWRJgoRbACMv5vIwEN2ep8KU+d0UaTOHT7CSCw2t8HybJg62azle8irpLVKzmxplQwFL04EldKIHr1H5nNOqG5HCLPVatirnQTM/dRs5v/1eN4fFg+Elf7Tw1i8vDTu/8dvvNy8e9TswqLOCIx2lw61F6NgG5EFbOq+LlR7mWlQKBIAIHFqdCVwHoP1lzvQbQUCLSUgKuFDsHgP1gSHxJXUw8PQeVTD2uuNa0WV/IUP32n2R3fDfnmooB15bhSNvoDj+reXg3bv+jxWVq+qr9fusWoUFBY3WG1+JONHrOqtQkRWC0Gn+zDIbCS3T+tt271UrOtm1p/XI6YXwIdQkEIInHl4uGg4zyRp68rOGlmc9m0elhQx3vkerP7PdXCB1uC50otPOzU4LmqFiy9eJ7HXz3vswr7l4ir5qKh9hoJbHPP/yr3QipPGQUCRQIILE6FrgRWLgqxBMRfdeXCu+YQKBVXOucKnisXVxIbn3RPzv7TmnPcqNaC5+oHHnPVotmCWzYW0zDc5Il83SOlNisNw/EXegD/V32xao+9qlTk8XrWPV6asVYqsHBeVaLV+s80+WDFO+H85drZev4JPSICK6Ed0xazdBFX/BUFAq0gUElc6bhHfsRjrtxzNWZCc61otbhS/iqlYXj+Af8h9h9kFQVFK+XER7/Yc8LUxZ7Mcu5jQZCVciMZcOCYhP9XLibQPQn9kCAbEFgJ6oy2m7LNhy40RMgdWNu7IvsGRPFD3tLIc6VGH3uuD5O556qaJycuMK0WV8sX+kzBfzJ745nQAomkocNDGoazr+1Mw1CpfUoD8PTtIVari/cK91UlXG35TOewcpN94EOFI/ZtiwkcNHkEEFjJ65P2WbTZAzU3eBZ3CgSaSSDywBT0gf+n9wryPukis8u/ZjZyTDOP7jmklOeqhcOCb78cxJXW9yyISfde1ZPTa+ErZi8/WrzxKRGmzaVE7fUSUAoNJWhGYNVLLrPbI7Ay27V9aJjE1Qeb+rAju0CgFgISBwVVVdy4KK4Ug3TGlWYf97xPw0fWUlHft6kkrpRjS0OScS/cLOH46uOeQPRfPADah4+iNAzjDnAv3e+bHeFDob15ixUQ/+gvww+3vFeaalmKsO8k2DNuArp2yos1cUbcNVNfSgkgsFLacU0xe42vqbVze1OqplIIhDQMRZElkSABonQDylSuRZuH7t1cSBJXd/+XZ2j3GXxRElGJq2v+1EwLKcdZFM/43D1mt33HvcKri+LK26u0E0rDMOPo2o72igu012eH/TvyWGhXVFZtAFu4lYZyJbAoECgSQGBxKgQC+rFb6wJLs2F6u6uGGQTqIiBRVVIK4srPswG+zt55n/E4pF/3BZyHlWzQhJeVxFWzFm7eIa/TDWb3/TikPJHnSqW3NAxhq87/17sw03I9sr1L7FXnJrxKEAFdQ3WTqmeuoQnqmPaZgsBqH/tkHVkXBV3QKRBoFoGC08X/0wy6gYNDgPd5n+05wDsOWyqJK3mumrG2oNIw3PsDs8du7EzDIIF1Qi9pGMrbqbUXn7i5ZPmcSKQWIJZvzfukENCC3SyZk5TeaLsdCKy2d0FCDNBFQdmIKRBoGoGiuNLCxRf9htk57r0a6F6sZpZq4krDgnHHXOkG5dZveRqG+4InWO1SGoYzrgpDoPXElykw/qlbghgtxG4VBRb6qplnS2N1y2u1zlfCUKZ91iRsjGVG9kZgZaQjG26GLgpbNuDabhgkFXQnUFQFGn5WagLFW511TfN/hHoSV4fFHHOlNAw3ezC74qVU5BGO0jCc5WkYBruorLVoTbt7fxRit0qHBmvdn+3aR0CJYLe6F3PYiPbZwJETQwCBlZiuaLMh23zJDl0YKBCIg4AEhkoUiyJxNcxnCF7622anX+HB7e7ZaWbZ5nFL97QooF1pFG78R7NFr4X2aghUaRgu8bae/LH62qqhwcd9eHH+c16XDy12cBQs3FfNPGViqVvnnW5UNQRNyT0BBFbuT4EiAIkriSwKBBolUNRWHdVIXA3fx3NcfdXslEtdcCjdQBNLq8SVxM9rT3oahn8OKyAUBJG3VWkYrvi62VFndQrMWpurtQYVvyWhVSqwEFe1EmzvdprgoFxYFAg4AQQWp0EgoLsuUjRwNjREIPJaqZKSYcG9RxXF1SVhNlxDx+hl557ElWbxxVWUhmHO/Z6G4d99cogvgROJoXrTMJTaoxgupZFQwkqGBkvJpOe1UjWQrDk9/dVkSxFYTQacmup116WLAwUCcRGQ50pZra/4mmdp96GyQqLMuCqvUE9P4irOPFfyUjz2K4+T+mHXNAyHnuwJRL/Rt0STO3eYPfATs7dfKoq1kvZFw6wlH/EyoQTk1dy4JqHGYVarCSCwWk08qcfb5MGZGpagQKBuAv6jUnBeudcqChOSuBo5OgiO4z1FgbK1N7O0Slxt9WzdElaP3RA8vhI/8l4df77ZZT4EOnp8/a3Uj/ILvgD07NvCvqqzI/YqAlp/tezRJgK6WVX/IYzb1AHJOSwCKzl90T5LdDFQtmkuCu3rgywdWeJqlAd5X/n7LjwuaP4PTavElYbwbv92yNCuNqpEaRgu+qKZhkL7UhbPCwH5aoeEaCSu+lIX+7SfQOFm1dPeNHsiR/tbigW9EEBg9QIoF1/rgq7pxRQI1E3Azx2VyNEiL+i+7sX55B+aHX12a8TV3d83e+QXzV3+ZuUiT8Pwb7624BNqbRBBSsNw/uc9n9en60vDEGoI/xdE23fDWoUFcVXyJR6QEhgpeql41l0IrBT1WNNMRWA1DW2KKtaPojJQUyDQZwKusCJxdfUf9W0GXb3HlsenFeJKaRi0YPM7c4NgVBqGkWM8DYMvTn3yx/uez2uHr/upuKs3n/V65bmKVKo/Ry/rZcL27SUgUfzB5hDPWk/us/ZazdGbRACB1SSwqapWM6K2k6IhVX3WVmPdayXHVUEEFJVAJK6u/ROzIz4ShEgzbWyFuJJnV4lDlYZhxcKiCHJxpTUMr/y9xkSk6n72rmK2dn/dEXflPItIm4mPuptIQAlulbi5nsz9TTSHqttHAIHVPvbJObJmMH3gAoshieT0SZItcT3QpUhcKbHi1X9sdvjpzT+PehJXcaVi2O1tmnOvx1x9x5c/8fXlCh4mF1cHHGr2CR/+POiYLgjqfvPmc8H7tt1/iIm7qhtfoneQZ3KHiyxK7gkgsHJ/CjgA3W3prosCgboIuKtF4koenWYsnFzJlp7EVVypGHTD8binYVAmeA2dS1zJZXfISUFcTZxRybLaP9OyOrd4PJfyZ0WpK/Ba1c4v6Vsqn6DOU0ruCSCwcn8KOICdLrAksigQ6IlA+ew2zaQbMzF4ruJeOLmSHa0QV4qfue/HHjR/fUkaBlc/x53vyVK/3rc0DKVtUVC71ixc8mbRK1Z0B+I9LqWU7tcKueB6mu4+jMl6BFZMIFNdjS4Gu33WCwUC1QiUiyu9VxLRT/yBWVzDctWOrc97EldxHV/i547/8NioO90z5+JRRWkYtHaiFqjuaxqGUFOxDd8LcV3dBJWEFm6sCFWqn3UtRWClugvjMh6BFRfJNNejIREEVpp7sPm2dxMEfkiJLA0RNrv0Jq4q2VavTauWhGD20jQMQ4aZXfAFT8PwKU/D4K8bKVol4eGfmT3t4q1bQVh1Q5LmDyTOle2fknsCCKzcnwIOQHdbrfihhHX6CUhUKU2B4pI2rze78R9Dm4451z9rglDoSVzFFXO1+A2zG/6+exqGj/+2L07t6yfKi9VI0Q/uMy6sHvip38i40CoEzMtj5aUZzELN/N8uAvr7IKa1XfQTdVwEVqK6o03G7MKD1Sby6TqshIKGycYdYPbua2EYTcNqzRJZlcSVYr6u+dN4hiUlFt94JuS4em9BUfh4GxW0f4XHWx11VjxL/Lz2hA89fjcMEZbOGERcpev8r9VanVc7XUhTck8AgZX7U8ABaNaLLgoUCFQjIHE1bITZpb/jea7OCEvGPHt32LoZIquauLr2m0FcNSpO5LF94cEwm680DcOUQ0Jc2czjqpGo73MlJ1WS0o1rw4zB6O+sUfvrs4KtW0mgILD8mkrJPQEEVu5PAQegvC1ya1MgUIlAJK60mPGpPmSmNdau8ESbKs0QWc0WV4o5fPJms7u+72kYNgTPldIwHHxiEFeTZoa2Nfq/0jH86p+Ky+D05yamUZ5p2n8XAitN3dUsWxFYzSKbpno/bEGgcpp4YGsngYK4Gml22e+anXZp5wK2mkEokaXvlZBTJQ5PVk/iKo6YK6VheOC/PeDc1y7c7oHI8iTpoRgytWfMhNCWRv9/35OTKgP8Ih9KLY25Ur14rxqlm/z9mTSU/D5qgYUIrBZATvwh9CPJCGHiu6nlBlYTV5EhEllXfSO8KxdZGiY59rz6xEQ1cXXNn8QTc6Vhujv/I8zk0w+gYvL7+yXw9MvNPvZbjadhiLhs8oXTb/VEovOeDu2PYv/5G4sIZf9Zca2U3BNAYOX+FHAA+iFFYXEmlBLoIq5cgPT3Ia5KpSeRpe1rFVk9ias4lt9RGgZlT5/7aGiFBKDSMJz/OU/D8JnwulL76v1s6yYPaP9OiO/SvpG4KrwufVNvxWyfKgIahtY5hrcyVd0Wt7EIrLiJprG+PX43T8kxgci1UhQAtYqriJhElhY/VnnunvCjsmFN5+zC3kRWs8XVEk/DcKPHQi14MdimHz7ZrDQMp/qwZ6NpGELLw9R8La8z+/aSH9eIbbQRz7kgQKLRXHRzb41EYPVGKA/f6weVu6089HSFNpYJgC7iSjFXVTxX5TWNHBNEliZLzLmvdpHVTHGlc1qLKivQvDQNgxamVrzV0WfHk4ZBLOSxUJ6rR28IHuGC5yJii+eq/HTJ/Ptd3LRmvo9raCACqwZImd9EuXlwZWe+mys3sOTHv4u46mFYsHJFZhJZHTFZNYgsiau7/jOIEsVESZwV8lx5zFWjw4JqywsPmN3272Zr3/Pz289x1T95VpgpOOuEaq2o/3NlaX/0l2YPusDqSCRarKYEb/0Vs0dqCfT3842SewIIrNyfAg5grxq9FLDKLoFIXF2uVAyX1e65KicSiSyJmedd4Ei4VxoubKa4kuB56hYPaP9eyDYfzeJTGoYrf99sysHlVvf9vQSVjqWhQQ0L6ViFeEYpK9RV38GmfE9NnqDkngBnQe5PAQeA9yrfZ0EXcaU8Vw0KbomsT/xhYFpJZB1ychAkGk6L23Ml4SZP0oPXdU3DcOy58aZhUOvE7Zm7POmqz0z8YEsYbtSwpAraKnDI6/8FoZ3XxtPuiAACKyKR52cNERZ+EaKYkTzDyHrboz4uKoAu4qoBz1U5tkJMVjGFgzKmq8iTpazmGqbTEjVxiyulR1AaBgWZl6dhuPg3Q2B7sKTx/yWknvdh0Nu+bbZ1Y1dx1Xjt1JB2AvJgceOa9l5s2H4EVsMIM1CBMnPr9zb67c1Ak2hCDQSaJa6iQ48a6wlKv+bZ0l2AzHNBpR+c9SvNoqVpdMLFFXO1ZllIw/DyI34ee716KA3DuZ8xO+9z8aVhUNtU90sPm938r2YSdawvGPU4zxEBPFgRiVw/I7By3f3Fxg8c5D9+7sUio3t2zwaJApXorroZ4kp1bvOhsvWrwvIwy94yW/5OeB0dV0o+ilMaMtyH7b4e1jYM1vXt/yVvumfsn8zmvxDap7YqDcPHvuzZ56+ILw1DZN2rj4eZifLIFby/0Rc8Q6BIYOBgUEDAEFicBGYFgVUcMoJH9gl0EVcNxFzt8KVmNq33WXruPXrvbbOlLqhWLjJ7f3lY46+QbNFFlwRVJEQKQq8o9hSMvmx+mDE4eGjfuM+fE8TOUq+ncJPgx5NXTMJNy99Ex+1b7d33eu2pkN9LXrh+HqtWLly778EneSSgayol9wQQWLk/BRxAPz8NOjwMAMkUgXIB0EVc1RFzpdlyW30dv3U+xCcRJe+URNXqJWZagkbr+u3ZHc6jwrkkT5UeCpgvivdIXElf6TsJrAd/FoLFL/qi2WAf0qu1qB0aDrzFh+k0PBiJq2akYYhseuNZsxv+PhyvVFxF3/MMARHQuT1wCCwggAeLc8AJDPKLgYIy9YNHyS4BCZzhIz0uqpdUDNpOgknCSQJKSTolqFYsCsN/CuouBKj7dhI2BUHl2CTUKwby+Xb+r5CHavqRZvvuH8SRRJLOuYd+HjxBF3+pNpGlfRTIroB2xUAVxJUfYNbxnofrD+JNw+BmF4o8Zb/828BD4qq0RO0v/YzXOSbgAkvxf5TcE8CDlftTwAHIc6BAd/MfVUo2CUSerLOulVz5AAAAQABJREFU8biky7sOnUmwbPahPg3trVhY9E65qFrr7ze971nKt3dmJ5eYUYlEhoRTh6gqvNEH3YvyYk0/yuzTf2Y2ygXWsBGeP8pFkj6XWHv4+rDPRS6yevpx2u5pGB5yr5eypislg8SNHsecE4YFlaU97vLWC2a/cHG18t3Q7oglwipu0tmoT8PSg/o45J0NArSiSACBxang7uzB8QcCwzV5BCQIFBuyZUMQTqsWBzG1zMXUKhcPCtpWkLoEj0qHd8r3K/dORSIjGv4Le4T/S4WHtpOIOvBos09902zSzLCNZheqlIssbX/xlyuLLIlAZX5/8la30UWhjiPPq9YT1LqCCmyPuyx4ycXV3wThybBg3HSzWZ/Oy8EMEWazc+trFQKrPl7Z3FpDhHEteJtNQulvlS76Ei8PXOf5m+4PHisJLXmn9Lm+L/dOqdX+cXBQ+TbVivatVErF1af/3GzijM6tCkOVkci6LdggYffIL8I25SJL3jTFWyk9QqFe30w/Yud9Nv40DJGVElfX/1WYCVkYhoy+4BkCPRDQtXTI3j1swFd5IYDAyktP99ROeTVwafdEKMXfFRVSJKIUP7XFPUEFUeTfaTijB+3UreHVxFT5hqXiSp6rUnEVbdtFZJUMF5aLLMV/acFmxUFJ8anuvUe5p8uHE8+4qjk3B+XiqsNT58cXUgoEqhEY4NdTpSCh5J4AAiv3p4AD0BChLgjRjzBMskNAYiASUOpflVJRFX0Xvin7v6gk6hUU5eIqGhYsq73wtovIquDJ0qLMd3zXbPE8FzYSgz7c2JGG4ZwQE1Wp3kY+K8Rc+bCgcngVvHolAEpeNnII9s0wAQmsembEZhhF3puGwMr7GaD264IwFJd2Zk8FeZ0icdVTI2v1TpXXEdUdHSeKuSofFizfL3ovkXX514OYiZa5iYYLZ7voUib4SFxNPMjXOfwDMy3c3Fd7o+NWelYqBs0WLAS0u6CL3FUSooirSsT4rJyAJmko7IKSewK6glDyTkCL+w7fJ+8Ust1+iZHooZZGr0uf+0IgElfat9xzVWlYsPwY2ucDz6+1aa3ZAYd6oPpoVRTsk8jSkGZko9IwfOF/mx1yUvisvK5G3897OgS0R7MFC/UVXXyIq0bp5md/ea8QWPnp7x5aigerBzi5+UreAQRWbrrb1Uk8bS0VV4UaXYyUzxYsP9IOD6rfvM5TQLznQ3CeqLSQX+vd8F6xYYVcbEX7JKykb+QRmzTLZyF6iof9p5XX2Ph7teP12SGJqPJ+FVJQFIVV47VTQ54I6FzStZSlcvLU61XbisCqiiZHX+iHbJ/9ctRgmtowgXL9oR+W8dM8z1XJbMFq2d/XLO3M/i4vVeShKgg/r0d17fFH4XMX/3pev9pMgef7TfHUDO5xjavoWFpb8IZ/CCKvkIpBlfsx/R8FAnUTGDkmpA+pe0d2yBoBBFbWerSv7dFdVyGg139wKBDoiUC1U0TiRN6pV58I2d+1lM6KRT1nf49iq3Q8TW9XAtJ9x5tNmO7erB2e8f3R4NVSDqxbvxWsOuXSeESWxNVcr1/iqmNtwXAI/odAnwns4wIr7jUw+2wMO7aTAAKrnfSTdGzddQ3w06EwRJMkw7AlcQQ6PDv+QiJFRV4mZYH/nqdkkDDSUKCG9rp4p7Sjb6/PlbhUM1d13o11r9SkGWEYcP+p7k0dG4SW6pDYUpZ3eboU7B6JLCUXLQzlFY5e/3+yWzm1lP4hElcd0y3dTplKgUC9BHS+j/BzmgIBJ4DA4jQIBBRcrFxYCCzOiEoEXI8UxJGe9CPSrfhnEi0KWFcpbFL8TNsr19pwz101dpJ7pw70vFie0V3PoyeEnFb6vrxoNpZyXalUEll99WTJzhcfDOJKQ4+FYcFCAxFWgTb/95WAzqW9m7CiQF/tYb+2EkBgtRV/gg6ui4JSNWjWFgUC3QgUBUi3z/0DCZYPd4dvJKa0fM0wT72gRZ3lkVIeLKVXkKdKHqvBLuQrirQKlWtGVpwiSwtMP3+f2c3/GpYG6jaUU1CGFQzhIwjUQEA3CsSz1gAqH5sgsPLRz723UsM1isPS7C4KBKoRkDDSEJ+Eil5HOdRGjQtB7hJR4w7w19ODwBrqMVWNBqVHIkvHe+jnJcOF/x6srHW4cLeLwGfuMLvt254WwmPFSsVVrYKvGhc+h4AIaIkcPFicC0UCCCxOhUBAXgXFvnz4eu3eBdjlj4CE1UgfTp56eBjik3dqfxdUo9xbNcx/XPp7oHozikTWRV8M3rKO4UJfS/FWF1kSR6dc0nNMlmY0PnmL2e3/Eby0peKqGfZSZz4JKGmulnGiQMAJILA4DQIBDeuM9oBiCgQqEZCI2eMeIHmorv5jMy1hUyluqtK+cX0WebJUX7nI0mfVRJbiCh+70eyu//QYsS1dPVfajwKBOAhoqHzkfiyTEwfLjNSBwMpIRzbcDP2AKuCYoZKGUWaygkhcXfunZoee0r4mVhJZSuFwy7eCTeUiS+JKi0ff/X2zbVuDuNIPoQrneuDA//ERGO2e3FbfeMRnPTXFTACBFTPQVFc3xgWWPFmaEk+BQEQgKeIqsqeSyNpSHC7UNpHI2unpIh66zuzeH3naiA+6iquoLp4hEBcBCfb9JiPc4+KZgXoQWBnoxNiaoJxDCnbXjxUFAiIgcaWg9Wu/GdYATAqVSGTpRy0KfC/1ZB17nnuuPH/WfT8227ndrfaM8PJc+eahdLyIPuAZAo0R0M2pBBYFAkUCCCxOhU4CmkKvfFgIrE4meX6VVHEV9YlElgLfVSKRpXNXswTnPmY2f04QV4Vs8cVhwU6FFfbjfwjERUDnI3GscdHMRD1+W0eBQJGA0jQod1EUowKY/BJIuriKeiYSWed8yqfs+AxGebTkyXrFBdaObSXDNfJY4bWKsPHcBAKaPaggdwoEigQQWJwKnQT0AzUWF3cnkLy8kncn8vD4y7SIq6h7JLI+9mWz0y6LPvERQc+oXaqn0FedbHgVPwHdlGqS0HDP+0aBQJEAAotToZOA7v7HH+g/TJwWnVCy/qpEWKmpaRNXUfesW2m2pjRJrrdLTStrXrQ5zxCInYBWLRg4JPZqqTC9BIjBSm/fNcdyJY0c7BeJ7T7ripJxAqXqw8V1WsXVgpfMbvpns3dLkuR2NK3UjZXx7qR57SOgm1KtXqCbVAoEigQQWJwKXQkUFt/dF4HVlUoG30UKpPiDkEZxJZtfetizuXsOrDXLgudVzSlrWgY7jyYljYBuSsd5El4KBEoIILBKYPDSCYxwcaV8WBpu4WYsH6eEhIqGN67xJKKHnJSONsvD+vivzO7/7xDUrpirSFkVzltO3nR0ZEas1OzrMZMy0hiaERcBgm3iIpmVegb5moQTZnhrIjdAVhpGO0Kfql/1kADxRxrF1frVZjf/i9kd3/WUIj5jUOsKKsi445RFXHG2t5CAzj0tITXCZxFSIFBCAA9WCQxeOgHFEEye2fmjBZTsEkijuFr2VlgWZ97ToV+65LjSR4ir7J6wCW7ZhAMJcE9w97TLNARWu8gn+bj7TzMb6tONt25MspXY1mcCJZ6rT/1ZWLi5z3W1aEeJwVceN7v9O2bL33Ed5V6rKKA4em6RKRwGAl0IKIP75Fmd52OXL3mTZwIIrDz3frW2j5kYEo4isKoRSunnRe9O5LlKi7jSIs2P32j2wE893mpdEFfqgSghLgIrpedjRsxWgmbNIKRAoIwAAqsMCG+dwPCRHoflLu+l87krS/0JEQUmpVRcrV1udvf3zZ67xxch3xkSiEbCKvV9QwMyQUA3pHpQIFBGwP3sFAiUEejvGd2nHoa4KsOS+rdp8lxJRL3xrNmP/h+zp293cbUreK5KxZU0I96r1J+WqW6AzseJfjM6ZHiqm4HxzSGAB6s5XNNf6+SDw0Vj25b0tyV3LYi8Vmp4Cj1XSsEw+7aQgmH9qiCsCs0oaRfCKndndSIbrBmsUw8Pk4ISaSBGtZMAAqud9JN8bCXN08rw772dZCuxrRYC8lwpRuRaz3M164Ra9mjfNkoYes8Pzeb4kODOHZ1DgtJWBY+VTCuKxvZZyZEhEAgo/mrKIdCAQEUCCKyKWPjQtDK8LhzLFvjvGT9o6TwjvN/SIq727DFT6oW7vudL3rzmuN32KL9VB3zOww4UvGg/AQ0PjptK/FX7eyKxFiCwEts1bTZMmbGnH2n27F2ds7XabBKH74mAXDxRkRDx92kRV1s3hVmCD19vtul911Y+7CJR3yXeCnEV9S7PCSIw9VBPabN3ggzClCQRQGAlqTeSZssBfvGQC3yzZ8umpIuAPEJpGBZc8qbPEvwvs1c9x5UEoYS9hFUkrvCepuu8y5O1A3wy0PSj8PDnqc/rbCsCq05gudp8P19bS+ka3nrem40HIRV9L0fWhymIudrhgewvPGB274/MVi0OXitzz1UkrFIBGyNzTWDUOLNJvuoFBQJVCCCwqoDhYyegqccHHm023wUW+iqBp0Q0LKjO8UfB81P0XCmJ6MzjEmizm7RqidmDP/HcVveaacaghgQLpdiewrnGCVeEwlMSCehvbeJBISFzEu3DpkQQQGAlohsSaoSGZ2a4wBo0xGd0bU+okZhVIJAGcbXLE4W++oR7rX5otuQNN9vPr26B7GoN4qrQp/yXXAK6Nh50rK8/OCi5NmJZ2wkgsNreBQk3YMIMXyl+MukaEt1Nfjf9YcI9V++vMHvoZ2bP3BnWuIy8VuVDgsRcJfpMw7giAcWm6uaTAoEeCCCweoDDV05g5Ogwm5B0DQk6HYpDaWkYFtTyNq/PDrFWi5R+wUsUyB7e+f/uDcBp1UGDFwknUBge9BvPcQck3FDMazcBBFa7eyDpx9eP4cEn+XIld4TlSpJub97sk+dKExGu/WbyYq7ktXr0l56V3Ze62eIzUQteK1dSpV4rPFZ5O2PT395C6MQxLI+T/p5segsQWE1HnIEDaF1CLWaq2V6UBBAounuU1kDi6lN/7vEgfsFPSlGs1WtPhqVuCl4r97h1eK0i75sbi7hKSo9hRz0ENPlHKyJw/tZDLZfbIrBy2e11NnqfMSHfy8p3uajUia45m7tIUZ6rJIorLXXz8M89Qe3dnbFWBc9VibBiSLA5pwW1toaAZg+SnqE1rFN+FARWyjuwJeb394R6h50S1ofbvaslh+QgVQhEswWTJq6U12ru42YP/MRs6fxgfOS1ks1yuhUcb0XvW5Xm8TEEEk9g1vFkb098JyXDQARWMvoh+VYoY7ESj8qLRWkTARcqUcxVkoYFl70VZgi++JDntdrqQqqY16o01ooo9jadMxw2VgJDfFkcxaQyPBgr1qxWhsDKas/G3S4NEyrvy4pFXFziZltLfUn0XGkNQa1VqUB2JQ/Vj07ktYrahNcqIsFz2gnob3Cyhgf9QYFADQQQWDVAYhMnoB/OI84IsTUkHW3tKVEqrj79P9qff0fB9W+/7NnYrzOb97SZgtqjO/ouXithYkiwtScLR2saAXlmD/droILcKRCogQACqwZIbFIkMO2IEFi9eB5IWkWgVFxpWLDdyQ3XLjd74iZP23G72ca1rp/8R6c8Gzteq1adHRynlQSUE/DQkztvJlp5bI6VSgIIrFR2W5uMVvbiw041Q2A1sQOi2XauUiJxpVlLWluwneJKawbOfTTEWi1509vvdhaGA/UystlfR56sJhKiagi0nIDO8QM9DnXc1JYfmgOmlwACK71913rL9eOpYcLHf+WJIze0/vh5OmIkrgqzBdsorpQOYtGrHmf1C7NXnugMYpfnqlRYqW8QV3k6Q/PV1gE+k/qos1h7MF+93nBrEVgNI8xZBROm+52cr8ElbwY/qE3ofBexkbhqt+dKOa2evCWsH7hhtfe3hgM9Fq9gH16rJnQ+VSaVwNgpvlKCp2egQKAOAgisOmCxqRMYNNTs6LN9fbmnWDqnGSdEEsSVZge++KDZYzeYaQ1K2VRJWCmA3f9RIJB5AkecbrbPfplvJg2MlwACK16e+ajt4BPNdEe3YmE+2tuqVrZbXGk24JvPhbQL8+eYabZowWtV9KqVckBYldLgdZYJDBtpduSZeOyz3MdNahsCq0lgM12t7uTkxUJgxdfN7RRXOvZ77qmSx0rJQhVf12U4sKSZDAuXwOBl5gnob2OGr/M5eWbmm0oD4yeAwIqfafZr1I+sAj6futVs0/vZb2+zW9hOcbXeY6ueuSP05Zr3wl16peHAgscKt1WzTwXqTxgBBbcfe24IjUiYaZiTfAIIrOT3UTItnDjDV5T3oM859+E6b6SHSsXVpz3PlaaCt6IozmruIz4j9KaQdkOzBSPvlGyKCsIqIsFzHgmMn05wex77PaY2I7BiApm7anRnd/wFPnX/cbMd23LX/Fga3A5xpUWZFWf1mKfaeOv5zjirSFyVNqzSZ6Xf8xoCmSbgdxfHnENwe6b7uLmNQ2A1l2+2a59xrNnUw8zm+w81P8Y19HXkGfILd6vF1W4PYF/0unusbjR79QmzDzZ7n3naBT3KC31ZToT3eSQwen+PNXWBxd9DHns/ljYjsGLBmNNKho0wO+GjYV06rU9HqY1AK8WVjrV0vtlsj5dTAHvH8jbFfFblFvNjUk6E93kloJmD+x+Q19bT7hgIILBigJjrKg47LaxPqB9xfpx7ORVa7LlatcQD2G83e+5eM60h6IevnM/KP6fveuk7vs4Vgb1HhRAITfigQKCPBBBYfQTHbkUCStkgL5am+ctbQqlOIPJcTZ5ldu03mxfQvm6V2fM++WD2bWYr3w39Egmobn3kqkvCiwIBCAQC+hvRmqtTDoEIBBoigMBqCB87FzwfCgR92j0l+jGnVCZQKq60cPP0Iytv18inGv57yYcBn3Jhtewts2hmYD9XUOXatyCqCv81ckT2hUD2CCix6MkfN9NEHgoEGiCAwGoAHrsWCYyZGNzpd/2Xf1D+Sw6lLgHtzRBXWzb6bM5HzZ7wdQMXeyD77l3ulYoC2L0/Srsk8mTRLRCAQHcCuhE69CSzaYd3/45PIFAnAQRWncDYvAIB/Wgf78OEz91jttrjfhhz6oTUTM+Vclm9PtsXZPZcVgtf7Uy5UIgbkbDqoqzols5e4RUEKhMYurfZSe690pqrFAg0SACB1SBAdi8SGDvZ7MSLzPLsxeoiaIpcPtzjy2x4zFWcnqtIWGlm4DtzQx6y0qVtIpdVxwhgxwtOVwhAoBoB/f1qndWZnn6GAoEYCCCwYoBIFU4g8mIps/uqxSCJCChQ9to/jSfmqjdh1U3gIayibuAZAr0SkPfq1MvwXvUKig1qJYDAqpUU2/VOoMOL9b2y4aned83EFqXxTRI7/f3P6/QrGxdXqkueqnt+YLbghe4eK4RVJk4fGtFGAvobOsRjr/BetbETsnfoCmmcs9dIWtQiAhIYJ17syfmm5VNgCbMu1JHgUbD5Yzf4kjQuihopa30R5hv+3uy1Jz3OakfIZaX6ouNEdYt/qciLPucZAhDomYBmDupmiNirnjnxbV0EEFh14WLjXgmMHh/c7P1ycmq5nopCnjoEj4YaovYrP9j1f92YyJLXSmkXoqSHpcJKo4AIq15PSzaAQFUC+ns68gyzGcdU3YQvINAXAjn5FewLGvbpEwH92B93fjFJn9RHToou0gpon3SQ2Rf+wmdVXlgUPv4ntmJhYyJLi2mXiiohjYQVMzZzcoLRzKYRGLFv8F4NHNS0Q1BxPgkgsPLZ781ttbK7n36FxyDlIFGfhI5cWKWzBbWG2ZW/FzLcF7xLJSJr/pz62Y+baja4fNp44cD118UeEIBAVwK6GZp6aNfPeAeBGAggsGKASBVlBCQqjjnXA0aP7+55Kds09W8jz1V5KoaRY8yu+obn1PGYtEZF1rgDzCRaS71Ypa9TD5EGQKBNBJQkWbFXebgZbBPiPB8WgZXn3m9m24eNMDvrarMhw5p5lPbWXU1cRVZp6OEK92SViiwtJ6SYrHo8WSNGm8mLJS+ZxBoFAhBonID+lk691Gz8tMbrogYIVCCAwKoAhY9iInCwT3s++uyunpeYqm57Nb2Jq8jASGRpbbPIkxWJrDeejbbq+VlromkIQ8lEKRCAQOME9PerHHUnX8JNS+M0qaEKAa7YVcDwcQwEFDR69rVmmlmYpVKruIraXBBZX++8mEsoSWT98m/NahFZEmb6MRg0OJtiNeLEMwRaRWDQkHBtGjW2VUfkODkkgMDKYae3tMmTZgU3fFaGtuoVVxHsvUf5cOHXuousX/xNbSJLQ4QaKtTxo1L6OvqMZwhAoGcC+rs57FRPzeCTUSgQaCIBBFYT4VK1E1A+qFMvNzvAh7jSLghkfzRb8DP/02z6kfV1cSSyTrssDPfJk6VlhRSTNe/pnutSkDtxWD0z4lsI1EJAE1DO+XS240Nr4cA2TSeAwGo6Yg5gcsOf+5l0X9AicaWhOomrqYf1rWMlsi5zT9ZpHlwr8SmRtXpJEFmvPVVdhGpIY4p7A7PiCewbPfaCQGME9Pdzmt/wTT+isXrYGwI1EEBg1QCJTWIgcMTp6Q14LxVXn/7zvourCOPwkUWR5Rf6SGStWRZisl6fXVlkRXFYAzyuLe2ewIgDzxBoJQGNrsuTfsZVnasitPL4HCt3BBBYuevyNjVYa3yd/Smz/Sa1yYBaD6thwOJDu8QtriIzCiLrq36x9xw8tYqsCTPM5AHrWJunaF9UJ88QgEB1AkP8GnTe56zgUa++Fd9AIDYCCKzYUFJRrwSUjFOzCvsP6HXTtm2gu9yoNEtcRfUrV9glv9NdZCnwXQs7l3uqNNQ6bkr4nKHCiCLPEKiNwAkfNTvC1xykQKBFBBBYLQLNYZyARMFJH/MZPKd1Fw9JA1QQMK62NKQQx7BgtfZJZF36u2Yf+USnJ2vtez5c+HfdRdaQ4b7WoYtUCgQgUB+B8dM9DvSzZqw3WB83tm6IAAKrIXzsXDcBCYoLPu9u+nF179r0HUo9RpotONJn7n3yjxqPuerN8KF7uyfrK5VF1quPd4pRib5pHpxLHFZvRPkeAp0EBnr+uPP9miPvLwUCLSSAwGohbA5VJDD1cL+b9FmFSR4qlKn9+gdx88Fmsx0fmO3a2Sl24u7MSGSd6csLRTFZ8mT9wj1ZEllR2b0resUzBCBQC4HjLjA79pxatmQbCMRKYK8PvcRaI5VBoBYCWzeZ/fT/mM19NFmpB0r/HOQx2sfjnvbd32zwsJBmYoh7m7S+ogSRhuyiZ32vh9IpDPbHQH9oiRt5mwZ4zJnE5F4u2CSeeirbXcjd+R9mj95gJjElT5omBpzlsWvD/JgPX2+27C2vwW2LSmE4M3rDMwQgUCCgv+VJB5l96a/xXnFKtIUAAqst2DlogcC7r5v94H+YrV3RRS+0lU4ksKRfdOuh9xI55UWipvBwwSRPl4STRFRBULmoUqyHxJZmTw72h541PCpRVi7MJNgk3CTMtM/u3Wb3/7fZnPuKx3YblC9Lx9vj3+l1h50lQqvcRt5DIM8E9Hem+Mnjzs8zBdreRgL+i0CBQJsIKID8/C+Y3fRPYfitTWZ0PWxRWUlcqRRElP+ZVNMxEjryNLnusZ07/L+tneInSqcQiSHVp1IqzvRawqzwkMfLHxJke1zUFU3pEFSFevzDqL5qNoWj8D8E8ktAf1enXmp21Fn5ZUDL204AgdX2LsixAboInnSR2aJXzJ69OxkgItESCayCVf6m9L22KX0fWR59rnapyNNUqUQCSc967HFhVhBn2lifFXdSPR11FSuPvquq+CodkM8gkCMC+ps66BiP8/RZg7phoUCgTQSq/AK0yRoOmz8Cilv66Bc9VmJmEBuJIBAJm6JQ6qtNkYAqf+6xvuKxC4Hu5ccveV/yssfq+BICeSOgGcof+y0Siuat3xPYXgRWAjsldyZp+vTHf9Ns+D7JarpETORFKn2W96j0ffQ6TuvLRVn0Ps5jUBcEskZAHqvzP2c2wz1YFAi0mQACq80dwOGLBA471bO8XxMCxlMLpYrwigRYj8/lja7ioopEX/nmvIcABMyO92ztp17W+2xdWEGgBQQQWC2AzCFqINDf7zyViuDIjyRoqLAGu2PbpFycecWVBBmxV7ERp6IMEZCHV0l4L/5SmCSSoabRlPQSQGClt++yZ3lh2ZivmE05OKciK3tdSosg0HwCLq5Gjze77HfNxkxo/uE4AgRqJIDAqhEUm7WIwP7TwoVyH1+mhgIBCECgNwLKMXfRF33m4LG9bcn3EGgpAQRWS3FzsJoIHHKyXzDd1a81xCgQgAAEqhHQMLoWSj/x4s6UJtW25XMItJgAAqvFwDlcDQR00TzlErMzruSiWQMuNoFALgko7kqJRLWQs1ZOoEAgYQQQWAnrEMwpEtAF88JfDxdQXUgpEIAABCICuiZoJYhLPWZz71HRpzxDIFEEEFiJ6g6M6UJAF87Lvuqzgw4n6L0LGN5AIM8EXFwpqP2Kr5kpZpMCgYQSQGAltGMwq0hASUiv+obZ2MkusqACAQjknsDQkZ6Y+LfNZh6fexQASDYBBFay+wfrRODAo8wu97vVERoKQGVxUkAgtwSUqf3CXzM74QLiM3N7EqSn4Qis9PRVvi096syQRFBTsikQgED+CPTrH2YMnumzBpWYmAKBhBNAYCW8gzCvSEAX11MvD+uM6S6WAgEI5IiAzyw+4cKwMDw3WTnq93Q3FYGV7v7Ll/WaWXjuZ8xOJ31Dvjqe1uaagGYMagmtSz1T+3CPv6JAICUEEFgp6SjMLBIYPMyHCr/si7r63Szr8nFaQCDbBCSuZnqG9iu+bjZqbLbbSusyRwCBlbkuzUGDdBeroPejz8pBY2kiBHJKQOJKKVqu/hMzzSamQCBlBBBYKeswzC0S0N2s0jdoWR1diCkQgEB2COhvevIss2v+1GzijOy0i5bkigACK1fdnbHGKtng1X9sNsvz4SCyMta5NCe3BPS3POHA8Ld9wCG5xUDD008AgZX+Psx3CzR0oCGEGccgsvJ9JtD6LBCIxNW13/S/6aOz0CLakGMCCKwcd35mmj5hutm1PpQw/UhEVmY6lYbkjkCpuDrIb5goEEg5AQRWyjsQ84sEFKfx6T9HZHFCQCCNBCJx9ak/M0NcpbEHsbkCgb0+9FLhcz6CQDoJLF9odv1fm739EktppLMHsTpvBPQTNOkg90L7sKCWxaJAICMEEFgZ6UiaUUJAIuuGvzOb/zwiqwQLLyGQOAISV1MONpPnauphiTMPgyDQCAEEViP02De5BFYtMbvxH8zmPZ1cG7EMAnkmIHGluMlrfJKKRBYFAhkjgMDKWIfSnBIC768wu+mfzV5+pORDXkIAAm0nIHGl9CqaAaxJKhQIZJAAAiuDnUqTSgisX212+7fNnruHGYYlWHgJgbYSOPLMsPwNGdrb2g0cvLkEEFjN5UvtSSCwZaPZ3d83e+Ims927kmARNkAgnwT69Tc78WKzS36btQXzeQbkqtUIrFx1d44bu/0Ds4euM3vQH9u2Evye41OBpreJwMDBZmddbXbBr5kNG9EmIzgsBFpHAIHVOtYcqd0Edu00e+ZOs7u+Z7ZxjVuzV7st4vgQyD4BxVvtPcrswl83O+Mqs0EutCgQyAEBBFYOOpkmlhDQxf61J81u+TezFYvwZJWg4SUEYiegv7f9Jpld9rtmx5xjpiFCCgRyQgCBlZOOppllBN593UXWv5q99SIiqwwNbyEQCwGJK6VhuOLrrCsYC1AqSRsBBFbaegx74yOwdnmYYfjiQ2Z7dsdXLzVBIO8E9vLh96PPNrvUPVfMFMz72ZDb9iOwctv1NLxAYOsmD3z/idmjN5gpEJ4CAQg0QMC9VoOHmX3kE2bnf8Fs+MgG6mJXCKSbAAIr3f2H9XEQUPD78/d78Pt/msmrpbtvCgQgUB8BDQmOHm/2sS+bnXCR2YCB9e3P1hDIGAEEVsY6lOY0QODtl83u+I7ZAl8omgIBCNROIIq3uvxrId6Km5Ta2bFlZgkgsDLbtTSsTwS0vM59PzJ79m6zndu8CrxZfeLITvkhIE/V8R81u/hLZmMm5KfdtBQCvRBAYPUCiK9zSGCHx2I94wLr/h+bSXBxN57Dk4Am90rARwRtnzGeONRjrU69zGOvhva6CxtAIE8EEFh56m3aWjsBDXm8MzfEZc1/wffTrwkFAhDoIHDQMe618nirmcdzE9IBhRcQ6CSAwOpkwSsIdCegxaIfud7syVvNPvAZh3izujPik/wQ0I3HUF/m5jT3WJ3zadYTzE/P09I+EEBg9QEau+SMwG6fZTj3MbN7f2S2dD4iK2fdT3OLBCSuphwclrw58iPMEuTEgEAvBBBYvQDiawh0EFi1JOTMeu5esx3bXWh1fMMLCGSbgOKrTvBA9nM/S+LQbPc0rYuRAAIrRphUlQMCCoB/8WGzBzw56fJ38GbloMtz3UR5rSbP8qShnw+Z2QcOyjUOGg+BegggsOqhxbYQiAisXGT2sMdmzXFv1ratCK2IC8/ZIBDFWp10kdlZ1+K1ykav0ooWE0BgtRg4h8sQgZ07zF593IcNf2amxaOZaZihzs1zU3zse9rh7rX6nNnhpxNrledTgbY3RACB1RA+doaAE1i3ymcZ3mw2+zazDWvwZnFSpJOAvFb77OczBC83O/1KZgimsxexOkEEEFgJ6gxMSTGBPXvMFr7i3qzrzN542rPAexA8UfAp7tCcmT5wsNlhp4bUC9OPNOvXL2cAaC4E4ieAwIqfKTXmmYDisV5+xOzRX5oteSPPJGh70gm4w8r6+XDgAYd6nNU1ZkeeaTZkWNKtxj4IpIYAAis1XYWhqSKgJXaeucPsaX+sXc6wYao6LwfGajhw7GSzUy4xO9kfo8bmoNE0EQKtJYDAai1vjpYnAvoRe29BiM968SGzTesQWnnq/yS2VefkiH19ceYLQ5zV+Gmck0nsJ2zKBAEEVia6kUYkmoAywS98zeyJX5m99pQvubOZH7VEd1gGjZOw0hI3R/iswDOu8lmCh5n1H5jBhtIkCCSHAAIrOX2BJVknoCSl8583e+xGswW+gHQhGzzp4LPe7W1tn4SVsrAffJJ7rK4wm3WCGclC29olHDw/BBBY+elrWpoUAvJgyZP1zJ1mb7/kQmsbHq2k9E1W7IiE1czjzU69NAgsAtiz0ru0IyUEEFgp6SjMzCABCa03nwuB8G+5Z2u7e7j2wqOVwZ5uXZMkrCSkZp3owsqD12e6xwph1Tr+HAkCJQQQWCUweAmBthBQagcNGWrG4ZtzPEZrE0KrLR2R4oNKWA3fx+zQk81OvNjsoGPD0GCKm4TpEEg7AQRW2nsQ+7NDQDFa73iy0ufuNpv3jNnGtQit7PRuc1oiYTVqnC9p40lCT/B1A6cdQYxVc0hTKwTqJoDAqhsZO0CgyQR2+azDZW+ZvfCA2SuPma1e5ssceqZ4hg+bDD4l1UtUKdP62Clmx5ztj/PMJh7IrMCUdB9m5ocAAis/fU1L00ZAP6Srl5q97gHxcx81WzzPTMOJCK209WQ89up80IzAqZ5i4djzw3DgmImcD/HQpRYIxE4AgRU7UiqEQBMIbPW4LK11OPeREKf1vmeH1/qHiK0mwE5QlRJV6uPR480O8VQLR51tprUCh41IkJGYAgEIVCKAwKpEhc8gkFQCe3abrXkvLCg99/Hg1dq60a31H2EmICa11+qzS6JKRYlBp8zy5KAfCTFW+/mQYP/+4Tv+hwAEEk8AgZX4LsJACFQhoOHCpfM9IN6HEF9/2mzlu+TUqoIqFR9LWA0aYrb/VM9b5WkWDves65NdYA3dOxXmYyQEINCVAAKrKw/eQSCdBDTj8F1fjmeeC623XnQvl8du7dzhbcGzlegOlaga4EvWKGB9pqdWOPQUj7E63GzkmESbjXEQgEDvBBBYvTNiCwikh4B+sDesCWLrzWc9U/zLIVBe2eIRW+3vx2j4T8Hq+00ym3F0SAaq9Ar77BdmB7bfSiyAAARiIIDAigEiVUAgkQQisaWUD/PneI6tuWarFpspZkvfESDfmm6LWCsR6P7TzA48KiQCnTQziCr6oTX9wFEg0GICCKwWA+dwEGgbgS0urFZ5nNbCV/3hYkvCa/1q4rbi7hDXrq5gQ8LPffc3k5CacUyY/TfuAGKq4uZNfRBIKAEEVkI7BrMg0FQCSmaquK2Vi3w48XWfjfiG2Yp3wvCi1kRUwbMSOPT2fySoFEul2KlxUz2O6hArZFWfWPRS6TsKBCCQKwIIrFx1N42FQBUCCojf9H4YQtTMxKVvuuBaZLZuZVgbUTm3VPIuuqIYqr08k7oWUVbclATVxBmeUuFgswn+rM8UY0WBAARyTQCBlevup/EQqEJgt3u4tm42U0LT5W/7Y2FIA7FuRfB8feDfyQsWlSwKr0hM9R8QBNOI0WbKnD5+mj+mh8foCWGR5YGDIhI8QwACECgQQGBxIkAAArURkJfrA88or1mKEl5r/bFmSUh8usFjuTav96V8tnh6iO0hy3xUa5LFVySiZGNBSLlXavjI4IWSeNJMv7EeNzXGX4/yeKrhnvxzEN6pqGt5hgAEqhNAYFVnwzcQgEBvBCRQdnoKCCU9VRC9hNZ6H1bU0KKGHDf6Y4sLr80bzLb7Ntpulwu13bvCo8f6a8jh5YcvZLCPhFKl+jScpwzoElADB/vQ3vAQaL73vh4z5V6pUWNdUBUf+443k6dKyT0H+bb9fD8KBCAAgT4QQGD1ARq7QAACNRCQ6NnjQmqnDyXu8MB5iSt5wDS8qFQREmQSX3ot0bXDPV8Sa9q+4AXzfVXH7t1eT/Gh9/1cMEk0Sfz0cxFWeHbxVPBAeSZ0CaghLpAkkgpiyr1OipfS+8JD730bCagBElFeFwUCEIBAzAQQWDEDpToIQKAPBCScCg8XUv6y87W/UYB9x/f+WuJKQ3qFh4SWXhc9TQXB5WIrycOSfcDDLhCAQPoIILDS12dYDAEIQAACEIBAwgngG094B2EeBCAAAQhAAALpI4DASl+fYTEEIAABCEAAAgkngMBKeAdhHgQgAAEIQAAC6SOAwEpfn2ExBCAAAQhAAAIJJ4DASngHYR4EIAABCEAAAukjgMBKX59hMQQgAAEIQAACCSeAwEp4B2EeBCAAAQhAAALpI4DASl+fYTEEIAABCEAAAgkngMBKeAdhHgQgAAEIQAAC6SOAwEpfn2ExBCAAAQhAAAIJJ4DASngHYR4EIAABCEAAAukjgMBKX59hMQQgAAEIQAACCSeAwEp4B2EeBCAAAQhAAALpI4DASl+fYTEEIAABCEAAAgkngMBKeAdhHgQgAAEIQAAC6SOAwEpfn2ExBCAAAQhAAAIJJ4DASngHYR4EIAABCEAAAukjgMBKX59hMQQgAAEIQAACCSeAwEp4B2EeBCAAAQhAAALpI4DASl+fYTEEIAABCEAAAgkngMBKeAdhHgQgAAEIQAAC6SOAwEpfn2ExBCAAAQhAAAIJJ4DASngHYR4EIAABCEAAAukjgMBKX59hMQQgAAEIQAACCSeAwEp4B2EeBCAAAQhAAALpI4DASl+fYTEEIAABCEAAAgkngMBKeAdhHgQgAAEIQAAC6SOAwEpfn2ExBCAAAQhAAAIJJ4DASngHYR4EIAABCEAAAukjgMBKX59hMQQgAAEIQAACCSeAwEp4B2EeBCAAAQhAAALpI4DASl+fYTEEIAABCEAAAgkngMBKeAdhHgQgAAEIQAAC6SOAwEpfn2ExBCAAAQhAAAIJJ4DASngHYR4EIAABCEAAAukjgMBKX59hMQQgAAEIQAACCSeAwEp4B2EeBCAAAQhAAALpI4DASl+fYTEEIAABCEAAAgkngMBKeAdhHgQgAAEIQAAC6SOAwEpfn2ExBCAAAQhAAAIJJ4DASngHYR4EIAABCEAAAukjgMBKX59hMQQgAAEIQAACCSeAwEp4B2EeBCAAAQhAAALpI4DASl+fYTEEIAABCEAAAgkngMBKeAdhHgQgAAEIQAAC6SOAwEpfn2ExBCAAAQhAAAIJJ4DASngHYR4EIAABCEAAAukjgMBKX59hMQQgAAEIQAACCSeAwEp4B2EeBCAAAQhAAALpI4DASl+fYTEEIAABCEAAAgkngMBKeAdhHgQgAAEIQAAC6SOAwEpfn2ExBCAAAQhAAAIJJ4DASngHYR4EIAABCEAAAukjgMBKX59hMQQgAAEIQAACCSeAwEp4B2EeBCAAAQhAAALpI4DASl+fYTEEIAABCEAAAgkngMBKeAdhHgQgAAEIQAAC6SOAwEpfn2ExBCAAAQhAAAIJJ4DASngHYR4EIAABCEAAAukjgMBKX59hMQQgAAEIQAACCScwIOH2NWbehx+G/ffaq7F62BsCtRLQOffhnvDYy+9fCg/Ov1rxsR0EIACBhgjoGpyQ3/z2Cqz3V5jNe9ps5SKzXTsaYtpt5z3+I7dzu9mAgWaDh5kN38ds1P5m+00yGz3BbMS+4btuO+bkgx0fmG3eYLZ+ldnGtf5YY/bBZmdW7IeBg8yGObORo/0xJrAbPsJs0NCcAOqlmdud3xbnt2G12bqVZjqXxXDrpnAu795l1t//vAY4R52Dw0f6w8+5fcc5S3/sMzack4MTznPzerNXHzdb+pbZHm9TWor+/sX+6LPNZhxj1q/Nznr9Xb39Unhs3xr+nvafanbAoeFalBaua5ebLX7dbPUSsx1+fR07xezgE709fj5nuehHW3/j7/nfgRioDwcO8b9n/02ZeGDg0K9/lgn4b4Vf6xa8GH6vt24MvwUTZ4S/r9Hj29d29c3qpWZvPe/9s8D7Zls4H6cfaabHsBFts22vD7205ejvzDW76Z/9j3WeX7j9YqgS541+pVbpIiuxJcEweabZLL8wzDw+iK52X4ADgeb+rz+QpW+aLXrN7F2/SK5d5iLLf0AlFiQIKhWJg0F+IRnhQmvMxPCDoJN2ysGBY6V9svqZWC15wy8yLzg/P2/f9wttb/zKWUh0SVTtPSoIfV2gphxiNsnPxzEu/HV+JqVILP7qH83m3BfOjzj/PpvdxujvX2L2C3/hf+snNPuI1evXjcvd3zebfYffxDjTqOg8mHiQ2TmfciF4lgty/1tLatnmguKpW/1xi9kav27s2hks1fkskfjJPzSbelhSrW/MLonjJ282e+Imv2a+13kTqlp1fdTvyYkfNTvv8239MW+skb3svcyF5fV/E36vS38r1P8TXGBe+Gtmx5zb+huZPbvNnr3L7N4fhb6JtISao78v/b5f+pVwfe2lic34un0C69vfMHt9dvtcedKVElUSDYef7n8gF7noctHQP2N3Ibv9Qijvw9xHzF5z3qsW+52nK3yVut2ozsz/FQTX+Olmh51qdtRZfvK6SEjyj0OhsX38T+fJqned32PhUbhDckGqUje/sFvn/0WeOg8lYP//9s4E3I7iuvOFwez7IgECbUgYgYRAgBASAsxqMDsYO8ELdvB4kvjL5zhxZvJ54plMxo4zk2XsZGzHE4chDsY2YDCLbWwWARIIhBAgFkkI9AABEhYIiSVsM57zu6WLrp5uVfW7r29339v/8/F4T71UV/1rO3VWNttDZhqu9rPXfjmUv/FLHf01/wbnrvy6HYBsEetVov8O+6BnssqQvvL9O37s3LXfbI8j97ezE/Zplzh3wkf9hl01rF9f79wN33JuvjGIrZtrs560gbXgkr/oPwaDtt1zvR00/m7jutlsd+tv1oJTL3Hu9M/031rI/L/6b5y785r2axIYoRG66E/8XBv2utgKbOLv55907jtf9FqEdo9SN+b/pbaOlUDGfpZEAFNkRwxuJt8GfE5jc37k3KJbfUccd6FzI8cOfrr3/v1/bVI8bZKqu21xeOxurwZs4t38PeRWGWb2X0P1iiQH6SOLz2RjUGec5U+w/SQmXz1gm8pNzj14mx8njBew6xi/wYBvwJNyUdOuMxXjkvtsIbvKM/zHnFOe6oXxs/T+DZIrOr1Hib5CYosat4x5jXT44TvCOFK/N1/zEi6kl7POLV4KEOtaTAmQviG9Ypy2I9rw1EN+PThoersnevcaEuq5Jr1qHkpDLQEbJClHnGoSnXGhp3rzOuY7Lz4bXvfo/1cNJ5jwPU1ggUS+KEJVzdoZoub8D93v8vXyGCwMgatCdAKddIdtbEsXOHfibzt3pE2UMk68eWDCZJh7jVft0C7ax0/e1MRtni2+i+d6pmDWec6N2D/vLxVb3qtrjbEy6Q3MY+vC0g0MW1vWKN8WauwJfvY9sykwVeS5f2AqmAIXrGZ9OLWi2spVb98svODf2Mug7iyDsAPl26mxwwZ+82UmDZ7g3PhDy6jp5t+EaUA9HGOumm9R/1dfbv6rf35jUrF6IFt7sGeF0ew3BovWp6TYbC+slajqPv4V57a1w0IRxBgNMf7N75fIa5huQvQeAiyCq542cejfmn3YN+zUaxOmlwh14ENznLvsy87ddqVf8FILex7t4xssrrde4b+9yCQ+TRuNPMovsgxs077/53Ya+7ZndIrAr237bOFYttC5H/8Pb1Tb9pkuXsS2omG4bPXodXr/Nrbg71hOKxg/WaW6bNC3/OsGxrac6m7y1VUDfk7DJKaINmKr2U/Exo29JVLILIT9D4bWvbr2xdqYZR3kGcx+0JiIGgiIwRo8EGyMNFRg864z+5Ovea588DNV/DeT+o6rnfuB1flZO3VlmRB5t4Nv8m1wu90YvKZHYt7f6VZ5qOdgrlgkUqeibtWhtVzwRM0L01x0fbALm3ys2QeVxJi04jCcv8ENI2y8vapO9PfjNvaw9yubOKwhBcdms66EBHeZMVhZqTFf7YAGo1xXQpKJxLMsiXHFcO8BBosTdIc/LK7D2ZjYaK/7+7iOtwodyskJA1RsJXCfZaJ3Sk3MOsWNb7Mw/eKfnbvLFmhseXqBViz2hpyc2jvFrxW7dn93ggPlrDHRexl00NHOHX+RN7xujIcO5+Em8zdrQ3L4FnXGfRzj8aJUFlmbF3qOQwneaqipy6Rnlphdqkmi60yrVph68OmhrQfY+mHzV1di7SQcCXunyJkeoKLE4sjJczj2J+++a+Ld1338DgY+aiy8YLJuoDxHDKBf2iJ9zuct7snW1QSLWGI/+99mLGttzUrsX2x8uLLiwbbjbn4TInYQ4n4MGxGNE+fpNVvscdPGHsf+y0RNm5K9Rjk35bhMr5T2EKrg6/7B1MMD2ccGlWWMgt8ue5rd2RgfZgGPsK238eMMDNkw+c2GyRhsjkOY4izjkGcINVAG4YJ+8ifMONzaNvCIb9Nw6oEtxHJbfFebVCQ0jvKY9806bruDH3tVsWlq1iv2m/7GgeShOd7gPcsYiZXXyb1GWAKT4DftNzspo9ffYRyiHmwNq5GlTWgSeG/aSdlVw1nK7aVn3jEMCOcxaYaP/9dLdc+5rtVlsGgoLutnfLbzJjNJMM5rGGC+ZAvXMs8wYcjOhpdl8aIMDJ4nTvNBCzuvTXfeJLYV0qKsiyHtgSmAcf3AdG9Qu4cxQaiCtrLhsIUxV+DCczAGiHqJl0Xcskfv9os/jGtog2xtJYE4f3GZGe4e6CUJrfeq8jeqkDt/7NuXdTygPiP2C+EUCLI4YrRnUkMMOFjC2DcZVtSoGLA/uWhj7JbQtwmQO8HGXuh+t3FE8kMIE35ox3AIBgsVNlKB2AAa7rxv1rEszJrf7/Q3YwU1CyraMgJ4IoFYbAfLXsWvU9xb32PPeMLmJ2N+KDjwLNLw9XaYL6PvWttQ1t/sDWDwyFznjj6jrFpU4rvVZrDYyIYyuAdDyruUwUmcaK4jx/pQDBgyYyPEAGgX12VwOW+aJIdYNkSEJkBkVaihGjTmDzudLDghmYJRnH2BD8CWinALwwDjRQBMAjXiIfioYTbHsFhpzGrqm9xH1TDvJ859+HPVPNE996S5V//cejQD88Bii5cXrvRTjvdR2bOMBXBgDPJDRHeCixKYcM3z3iB04a98AFgkB62Y8j2YjSLdnmPtaa1b7LnQvd+w8vKTgYb7rQyfqPQjBHZ84BYfhLRILAjLQFBNDkdFfrdqnbFmpXP0QScY4AXMu3VlsOhL1rL51/v1q0p7ZsHjbKuCvze0z5HHLW9ikztgqt/k7r3JuV/9i48/FJtI7AlNCU6VOPJfP+McbcgiWUBq9cHf8jY1nQ54gskR72q8MZq3ft8zJkmPGWMScPU+8vTquS8j3bz/F9ls7Bg3060Np3zKR/4f7riE2SWcxYiP+tg5eB89dLtXoSGN5D7j9ORPVlc1PVwM9H4YAcbmvTf6A2GRaUjwXMXkILYehmvdP3eeMgkMphGdEF6XzGeCr9YVR9q9wswKMLFhz6gpVZvB6manIJnBgBfvIlzh2dRiBCOx0BiFw04wFZupTcommCq8jZCCpAj36dMv3WiwnHo+dR/G4Pw/9LZBv7w87ZZMDq8Hb3Vu79+p1oKD7RVSzBTB7DBWTrf6d6PvYVynnezthTCsxQaH0AKoH0nDIaonAi885dcc7OCK2KixsySoJr+L+F5Ve5W1fpmZkWS1k2zXjicf8uYVSKzrSuBIjMRDTNXNGldD6oKIKEcUuz3JKZ9UL6eYlAAJRYx4FtUiEeirQNhGwWClgqhR72POdu64j6TbOJR2IRE78WIvfcnyHml6UDtUiUhcSuLWGBkf22CqT/t0d5ir1m+jkiXH48xzvM2TmKtWdOr3N4coJNSonIog4hctu7/ezBU4cyAkS0Vs/+EAFFN3rxowpxk7LNWZwI/DIpkMakr1ZrDodAbB0R/2Bt8pVRshEFAVVoE43TKBY4sA7SGJMJHpQwbYw2kLTNYpdrrGyDtlw7TK6ovdVlUIFcxTD6Zt8LCjIIlrr8eDqgruqsfQEMDjcsHPvTRlaG8O7WnyDRIeAuPuuhM2rTgPhYggvNNOieddJP0R3oSpPSX0jX65jhTrnhvSGqJ+ae+gdlScwSqoeg11oUl4UpsokwXRL4OmTKIeMAepsAwsBDCP3bThIDwBxu/vs2/FCA86XP2rsuAgAcSrNMag0h7yLO5nTKpICJSCgM31BWYn2PC87GIFFpuUgcNjaj50sQqVKLo1B2eoQkiWjzG7IhKyB8n6DU9hnAbqTIynRtgRG19VWfsL7I+COJgOW9QNI/dQVTAonnhEfBAwWF582owfXwmVUsx1PB/xzksNWLz/cPXuJoEJ2cobUqzIh6grdS6bOW1WkfheqYjLqI2J5YINlkgIlIXAS2ZnicE7UtduEPan2MoQsqTuBBYxr2zWsf1Mjb//gc6NnRxZg21dxJOQ/Hx1J/YrQh2RzL5mVHEGywZpUURi50NnO4fUJ0bEN1lrOvoyCVUlWcRjp00WArz9dtu7+zUlEOakoyOLjVWBulLnoQbu61btUQEgxo/R9jsb4zgm9oTuCYFiECBkA2YBeRPrxIO3eZujmE1R3t+tankr7RBI3L8QsY5NONyCCdt+we+Y6QU2pysqYlISak8R18EM85CH58T3iCLqUvA3Ks5gFVy9cVN8wMhYJ7xlHjZE4y6TiEifSqVB/K/x1p4tC5C+8C2ClqaSveL2TN2rQDCpKWkaNmZEAxcJgUIQMGYnRKw52LLkLWXioHH39d2TjoXaU8XrMJsNtZ6FWQgRhy60HRDx6WJZFvBCJOwFMaHqTkhfGb81k2IVzMFUfJTtOtKCkY6Oc9kMlFRIh243E+YqZX9FOIGRY7tdk43l7z3Op4zZeGXzv7DDSjGGm7/VnSvUhQU1RtxPeWnG3tc9IZAFARh51E0usRwvutUkAaZ2yosY38SBe355vERU5Q2vufhjPX8XiRM2tjFinWuaQ5Aia8zB4XUEyQ3eiGUfyGPtKfIeHvhIYlPrbpF16vK3EjO6yw3P34UAACaFSURBVF9PFY9kpEhCArPX/vEvMjjKtsHi+6SxiRFR2lkAiqIdd/ExxWKThzqXjd1Q8ICZ7pbdy1DqoWf7G4EtjYHBGQWbyRhx+ifHW0ryGiuj9R7hH0gSH5uzPD/JAmZGDbpbC+3hv2E0X3wmbnpBXsumVBvGkzRWsX2KPiNtTB0oNY5YS7ElrBHDWTAHM4RRBvdfNPHNLEwJdkSpwdTNur9hJy3EzzEi6XBzIYg9l9e9rSwuTCqYHJj922t5fXF45TQWxcQYQ7Qvt/Xh4ay30wggJSV90pGnxZ9lfXroDh+PL/5k+i7rx30/Sxth4zFHaqj32+Gzn4m1CfVgTDOAFA+7q9a9aZxJHnfcLYwMBt5Edc9btRv+Yjl3EE6QFD5F2BHWSIpVXQaLjoqdDFId2en95EJii9xbb3Zaej7vod5K0XZmO5Qy2E+VMZT79BVMXYxYxLBhqwIhNUjwVw2D/JdfqEJtVYd+R4C5Ov2MDWmYbJ6ECAkwUqzh2vUQQ4/4Wqn4dYef5NVg/S7JZU0lyXUMjz329XEFW/tmz1HGHE8IH7hhxghPs97MOvqZYLAIaE1y+hixBxA8l2CuNaBqM1hbFGCgPbiTs9jccBrJ8tzgsvP6d5bFjtACRTOoWb6XUm3mhVGqHPIxphhQVDEDFnSQRUEkBLqJAHMaNRz5LmPhadiwF8/dwAx0WCFiPeE2n9rkiJ9HVoHUPOmwGpV6bfXAhiwdgVMXawBOQzvvvmm1G96Eh20q1dr0CfNKtDAbzzw2+Gp//RuJKE5ik2en10uwXnhz+rk+QKjaDFYZAKeYF+YfzFXV99zGIh1YLLqBKwvQ2wm7ML6bl/3IcNuA6iNLXsFH59XO82W40Or9DhGAeTrKGCycU2LrCx6w867tPIgl8ZkeuDVRyQ11wag7ZY6QKKknbmPcTjT7EMFkEvZmcEw8+uwAux4zx0DaiPqx33Hc2lSos4whz2Iqcp9JT2E8+5yqzWAxeKtIMC8VrVoV4apknbC1y2Jvh+cLSb4lxapkN/ZdpVBDYfD+vsgCw7r4+HzbtBcNvfkccFAxrrNE50Ey7g5valSWWaTSwXJ65AYMEDkYY1oJ1oqx5jHYjvYZv9GzsN19+oso+VXLxdqursO5BgM5+iDnpp6QLgVngvv7X4pVYQbLBmUZDFbqm5wsG/Y7FYYuPbz1BFnuY7YTTYSQaN7+Q+eWLmhe0W8h0D0EWH+OONXb+sSY+jfNlvGua8woe4g2jSSsf/B2q799J0QcIGecVQ/PQTBY85wPhBla++kHorfvbsxvO8LuCPVYrL/IAPKCHdb6ndgbscVKJaoHK1JAFZXIvCTcq80lhAZ8N8HC6yNKNjC23jr6hG72AAIsBBOnZbMvIaXOVX/t3KN3xxfRHmi2qtgDCJBgnFx3Mdsn1ka805bcm71BSGpI6BwLlcLGR4J4PBrLWH+ztya/J4m2HguADMMZi9oOTtwnbEOIMKJHTRhjwkLv9tp1crfiHJEi0gjhaNHHmFSXweKAVbR4mo6OLT7NAbO9nVjqsvg029yPv4lhkyURNn1Nst0ffNW5235QnVAT/dgnapNfWw470dQtk+KbD5v2PFP3ZQ19stw2eGwKY2sXTN3Mc7Opz/uhr3BYgvGJHayJKdiM3h5qM1HdY2sJewv4x8JAhMrutescXlFz72IHhSgZJqgJke71KVWXwSoDcOwTXkq45bM4DfYkKaOu+ubwEdjTRP5TT8hWDv1OBP8bvu3cD//SMsQvjW9+2UrVU0KgPQKN+FNmMByTijAmCS2AZDVFhEe56yfOvWEx/IJkGx4R5UneHmPCgu/34I1X1sSTO+Nt0Bq9PdREbLRiDDF4vrDCBzINldFP10dZ6IojT023CPXsAmOy+tQBoNoMVtFhGhATw03HFhdOeEnOPD2u9EQFEMAj6OgzLYJ2wLaiXRU56S68xbnv/alzt3zfOXK5iYRANxCYcrxzBLKMqVAIhDvPGKeU5H3JfWZHaD+xtW2rrZ079ry0F1g32lpWmYRPiIarMMZowtS4lyB1zxLVHSP35YvKammx3x3K2ooUCw1BH1K1GayiAX9umW2YZm8To+12NFHwPrEndK+XENh7rG0q52/ufh1rA5sULsZIs777Jefm/Cgt+YyVp3tCoB0COGLMsrEZS6LOWFxhgSwfuatdCf4aKsS511qQX1MphggmbuIRFsfo2NAT/XcdqQl2bLHQMURvJzxDjDFtIpOK6g7GqCPfjvRDs6x++E1k90Z2AhujMWItJatAKkRSrIyK3qs2g1WkDRbB9xC1v/1WvKuQXsUyqMff1t2qIcDCidfLIbPikoJ29WbBfHaJcz/5n85954vGcH3LJ4sdqmdXu7J1TQiAwCEzvQF1TIoFgzDvp+Ek9I/M9fY/MSZh2+2dm23MHAfIutBra/18jeHSLnp7CJ8sUd1X2iH+pVWhEvrrOvs3oT72GpVuF6FwVg2kn+uxJ6rNYDWCZRaE6Grr3MfuiZ9UWOTQLW9vJ0tR/yCApOCc3/P2J7GNLNRi3iH1yM2XO/ePf+zcP/0HM4a/0ttc9HsOshAmup4PAjA85ALcZrtweTAIzzxu4Rdu2/yQ8F5qHWPCQsT4nTTDuQOPCj3Rn9cJuIoNUIjAZcwh2W1us0R1X7/GJI4Ph77Yf9cb2QmMyYoxsbSaBNCk0OkzKVa1GayihhubIJ2byvINRz5+qrlPm+2OqL8QGDnWuYu+FDdUTbWYRYRE4EssZta133Du218wz8OvWYLeOWkbmVTZul9fBA6a7twH7CfG/LMx3XPD5lkHGHuoEG1oBok4TrMviDNxwZd79AZYLjP1YCyZO/a2hHIZHL091GTmfyqqO2pJgprW5eAFJqgJWV9TtPBXzj23PPVUT92vLoNVpPSKiMjogFOEahAGS9SfCBCF+OIvO8eGNhxqbmaNU5mNq8v/s5dsIdUi9kufeswMBzK9G0GAlE5IsVLqOyQyrVkHcMC421SHMRsjGI0ps82Y/tBIBfrwFnZpKYPzWPT2ECREdd9r/9BdL8kh2OvaF8PP9NudZnaClBRrnY1XBB2Y6/QJVZfBAuAibLAIy3DTdy3Q3Np4l7IQIUIfsV/8Od3tbQQIsnjxn1ksoLOdw8B1uMSi8o7Z9a1YvFGqhc0Wuc/qYuw6XAz1vjdAxx4rJsXi3vwbN3rFPWDertj8xDa2RjgIY97ev3W9UEalv3og3GawjEVvD72J+ch4Y1Zj/cTBC5VuXYjxR3aCLJkzyDLwvB0U+oSqzWB1G2TikhChewARelPsEPgoE2f6h3yanMAjutwnCOxmksrz/9C5C81wHU+YxmJpC+5wqDm+sPnA6xDvwyv+W73UBcPBr+7vNhLpnufcjrvGkYBpWHiz92q95/q0Tcu0k33+uHip/XWX+UzQz1iA1lT09hAiCAVSUd2RKKImrJMkm+wEM86MZycAU6RYHBL6RIVabQaruSmFBnOn10kZAad8+VfMvXluuhQm5BRzX66bGD2NTP8+gVHxzHOc++xfOXfKJy1W1ihjtKy5/AyXGNdvrPfxtP75yybZ+nuFeRgupnV4n3x3k02dF5OOcO9eU0v//HtxCQ14EXmcMU7k7ToRdleNRNmRyZwlensIs1RUd95Dok3g4roQax7ZCfY7MD5+wYO9eWV/SLHMiq/ClNW4MGsTXrdNDWkV+Y8IycAJJsXEMQdxvz3hY/UTo2fFtZ+fGznWubPNwxB344fn2M+dJsI2Q0yY9NTYSeHC+wQfRKLFuPzwvzP7r6OHX27qu7rfmwgQzHKWMUSP2doVy5334jOWRNds/WKMGFbvR53uo5T3Jhqd13rNSjOmZgM3DNoRuGWJ3t7uXa41o7pjb9lujeAakmzqgGSnLkRbYehpdyw10bo15rBh0lfMNWKZDHoAt2ozWAxCUpJ0IjaAOUMES+4ngofSqdi9kNGcOEUM8naDf3CnIZpHggHnLaonAoyTfcb5H/K0kZ4El3iCBrIY2O0N/+sMH8ofeNRUhl917kxjso6SKrozIGvwFo4Yh5sk4M6r442NMlf26sjR/tBQhJ1rvKbF32X+EgMrRMzHLNHbQ+83o7pjAxfqh7dMioaR/cHHZNuHQt/qteuHHm8OZSbgoA9C+y/XOciSzxCpbQ9TdRks3I5//k/O/epfOoOXTmJwY2DMT0Pfbdfsv2DHDv4SbrrHX+QXotBgGPyO/t3fCOy0m8/VRsRrmHVUzIvth7+HI9VifGF/8JNvWjnvbFDd2CFBJARaEUCdN+MsC/1xh40XPNFY0IZIjDXKIEZR3Qj7Jw5G7AehNZ3I+Vmjt4fwa0Z1D0oabW+CwUKLgjqyLsT6iRTraTtQxqRYqE/n3+Ac6tYelmJVl8FiwJHaIZbeYSiDMjSZQmXQqcd9xLnTPi3VYAijOl9nfDD5+Zl1npeOPmybHiczXLBh7jvY+xpxtG78jk+PMt1UOEMdt3Xuk7q0vZlI99YrOmsxqhe8uuo4tsg7iAdfrO2kQgOj4dCexrxSxpL5VkqbhYDv45DwwlMWO2vqcL7Ue+9yOMXTkjhkoX7gOlKs6SbF6mF83td7vdPlGrMx4rp8zufNJuazluRz+y5/UMX3PAKMF9Q2H/9Pzv3+N5y74As+lta2O4RVBLFGv7HO5zlcuiD2lO7VFYGhJNIdjBFSedTcdbL9acUAyUksQTvr//gp2aO3t5bd+jdSsAZj0Ia5aj6H9OpJk2LxzToRmTMYg5jfxIjQSXdfF4/jFnu/AvfEYDU7gTHOwoVO/FN/7lWDpD4QCYGsCKC+wSj+hI86d+nXnfvMV01ScLKPkD2kRdQWZewGkWTFUnlkrZee6z8ECB+CrV476UiotYxBUr8c9sGw5CD0bj9cJ4Dl0vvjqikYUNSDw3WwQgJDVPdYiiP6A2/GWDT5fsC9XRsaOTanxZlLMHxknve4bFdGD1wTg8UgZzKNmWRxj/7ImKv/agFFj6znAtQDA7Znqojkk/xuF5tUC4Z94uFDG1MsLkR8xsOwT2LC9Ezf9UJFMU7HCxBj9azMO8FEjzV1NnYwdSTsegYWx+dhJ9HbQ1gS1X2EMcIhYo7jfIXXZ90oS45NMMHLmmwE2Lf2INksrSEZT9VYlLbbyW+C5KD77H/32eQRX4qEQF4IIAWdcpxznzZp1qmX+EThWTdE6nD/zXaCM7WGSAgMRgAjdTytsngCMuYmHmFxtMz+pa60conFm3s+3How6iR6e6jELFHd8WasU/LnVqzIr8mYjK2HMKGEVMK2tQep2gwWwOf1Q+eQ+oTgepOONnf4zzn3ub927nf+0uf5qqtNQg8O2p6sMnZap1/q3Mf+o51q948vKq0NfO0ViwljJ7hYPrnW5/V3fRBg88FYHUlJbJMCESSqs89P5zPsV/TAB+/BmCQEPInCnlfaoGZU91h5eDNSrzrOb8YkEtWUnTNBmfEofNuiAfQYmcK5osSEGDvZGxx2UkUG7v971yaLGRsijmSD222kj8iNGDimG+/ke3pHCKQQ2NJU0RjDM/6u/tu0NxPlseg/fq8PA4HHokgItCLAmnbM2ZYNwMJ7ENqmHbGWoq4ml2pdCVUTcRCZTyFC4pS3xxpzdtcRYVtK6oNXI96NHLzqRgeaBIuxuei2cN+A0WP3OPeU9d9BJvXqIaougwWISJqIbi0SAv2EAC7Kv/Wnzl1p0tOUyzjtJpYOYnLUF7ENop8wUluyIcB4IAUJqmSC1bYbHzvsYtKrC+p9qCT7wuqBMKbGgw4renuo5F3tMDXmYIusv7J93/AeXo14N9aRwcKEgjA3eEzjVRmiN151bt61XuDSQ85nFVcRhtDWdSHQ4wjsb8zS+V/wKutUU5BAkBw2r5hwqe/pfm8hgHkDgUPxgBtMjJ3Js2xjmjr4Tn3+DQao4aLzx54ZTvT2EJp4Fk8wb7mYnRwBN/FuDEkgQ2X3y3W8LQ+xMUo/hYiDw5L7vNdl6JkKXq82g1VBwFQlIZAbAqgjTvzt9htj60dYXAhISH45kRBohwDG65hUtG5S/L3HPmbnYrZXPRwNu11zh3SNdGkpI+k8oreHKtWM6h66z/zGu3GdeTnWkbBRQ4q1467x1iPhmnddglGOF1H0XTFYRSOu7wmBJgIsrLjaozJs3Rib91t/IyJ//snWK/pbCGxEACnWhV/0XoLYEmF3SmgQnCpgvOpMhEFIzR08MocbvT2EMVHd950Qn+N4N+LlWFcaa/HZJs+OY8R6ucxUiU8s7BmU2siUe6buqqgQ6H0ECAty5GneADemIkCN8OKAX4BYaERCYDACqJ2JuQZDwXgZMTotFRhcRj/+G+P219eHW8bhZv9JFh/MJCiNnLXhRzu6g/f6BFODLTUVV4jwbkSNCZNRx/mNhHXWOWZrOtcScb8SQsm5N9+wuFjXe7VryvswXEphd8RgFQa1PiQEAggQ2BZvsFiMHl4lqjsbAN6IIiHQDgEkVxhVizwCuPZjv/gbmzcxxgUj+Cu/3j3UXn7Bfz8kqaZuDUZwXX2Z4tHmcTn1BK8GDPUEOMGo8sOzFScxWBXvIFWvBgjgxo0KAQYqtglwsnvXTrpbmueNSAgIgTQCDdXbsvi8Ys49a+q5Z1DRRQyt018LPxGb1823Vg+YKtMYPQ5cdSQcAshRSHqcdeZZGSKcFe65wUI2WJSBLLiGyingumywCgBZnxACUQTw/tpnbPSRxkKCeBzVj0gICIFsCBAlff2abM8an9WYZ2zaef9kqQGMA2rCkJQrSxm9/gx2cNNOireCvkEqueTeuHdmvJRC7orBKgTmnD+SJREp9jxFTlQG/VYZBKI8J9oUATDZaY/0aYw+jdlpbVqq/iUE6o0AOTxhWLphV9UNZBGe4e0YDSfRjQ9XqEzMH0j/hMlEjEiQjRSLALIV3lPEYMU6sar3EKWmiMzx2B0USbFYL8161NldvIlBu98Ng80E81kkw9yujromBHoJgVdMcjXwSKU34E3gZPrj7YiqsM5E6idSQMUIpmq5Mc+Pz690/4rBinViVe/hlZLi2t+0mCFF5rdi889y8iJ1kWhzBLawk1uCv3JILrfQlN0cPF0RAm0QeOYx59aubnOjwpfwdsTYvc7EOjfDpFh77BtHAZOJxXMrbTah1TrehdW8i6dQksGy4Hqx1AN5t+xd89ZZ/3K8VJgD0naINkcAdUbKvhbGOouUcPPSdUUI1AsB1ILESyrykJkHwmgdsC/qwcTGeTT/vTL2Gm0xAj9k/4ycOtkD37F9p8KSfTFY7/VoD/1BxNutLPptjAhMSQ67ouh1+97aVXHGDxst4j6JNkeAvootFNwjQXmq3zcvWVeEQP0QeG2tlwSlDqI4mGC2UNRPu3RGrb1DfVea12MqZEvrO/34NwdJgjD3eH7GDFbJ/dh7Pd4mpEBstnDvIXrLxKerB/LPDh/6Ht965cXQXX+dJJ077xl/po53MVwnOGRDhBU5se1shvCpBbqO+KnNQmAwAs8u9WFPBl9v/fe2Ozh31r83VdSo1qvd/RuV5Q3fdu6NSOBTvB6fNtuxfcZ1ty5VL53o+kef4dyN/xg/fFa4HWKwKtw5warttLsFo9stHvEWETkZ2mecaWol02l3k5CuPGFi7ZQNFpI36l4VWv+SNyqFYd13vDEvGZwHulF34ltxao2eto3xIq+cVITd6AGV2U8IsB4tX2RqNvM0i9HexsAgJcHkoiji4LvwZlsvrX6h+c7aTfJnVGRlrUlF4RH7DvgccZpzCwwvcrGG8IqVUfI9qQhL7oCOPg9DgAFgTKXEYMRY8pVIwLaOPt7mpXVrLMXBPfH6UFfqvMNObQoo4dLTZgB72Zed++6XnPvOF/0pKZaioZtVXLHYEjmvjH8B9+WRY+PP6K4QEALe9hQGK7Y+co8coEixiiSk+AccbsxC5KOs3RyO8YKsO+2+t3PHnN2zB0sxWL04gLEXIO9Yiti0CcbWbXpkrnOrVqRPGPsf6FwVvAhfesG5q/7GnyJRsyLJuvUK5675u2IY0tb+QOp378/Sp22Y6pFjWt/U30JACLRDAGkHJgsxicf7zYaV/ICxZ9qVPdxrfO+Aqc7BaMXoZbNnfebx2BP1uAde007uXiLuLqMoBqvLAHeleAbd2Mk2SbeNF0/UbxJjdlOKxUIw79q0t87W2zg3zk6MRS9ogxFC/H631ZcTYmtdONHeb6Loq43xWpuwJRtc5nD+vfgun1ertS6Dy6NuI0cXaysyuA76txDoBQSYK08uSntQ776Pc/sdVE6L9jnAuT0Tdl94P2J2wXpVd9rF7HaPOav7pi5dwFkMVhdALaRIJFgjbNNlQQkRmzaxYO66Ks0AhcqIXWcRmPND5557YlNmpd07e+1vC1oGqVu7d/O8RuTfx+aHS3xojnM/+ivz4jEpV7eJoII3X5a2XaMfyU+GY4NICAiBMALYXWHfFIt5wpo59hBzuDE71jJoZ7ND5fuptfspMx3AG7LuxPp32ImmtYEhjux3FcRJDFYFOyVTlTAWP+SYNGPDJL7zGlND3ZRvmhXiNs2/0aRBP40vFM3GHGx1xQuubHrDGKxXE4vWo/Ocu/JrnnHsVn1J7HztN7MZb+IccPDMdF93q64qVwj0CgJ443Lgixk54ShygKkHyzIgx+lowrS0R/Cvn+3uGtQrfUo92e9mmi1WWX3WIVZisDoErvTXGlz9Sc7tsle6Km++7tz13zJG6+q0tCRdmuV/Wu/cLy937qf/K1t5MFaHmx69Ch5wW5mqMku6niX3Ofd/vuLto4gYnBfBmFL2FX/h7ePoxxjBIMOc7jsh9pTuCQEhAAIDj6alPmzWmFiUSWNMgoXqK0ZI40gHE5N0xd7vp3usk4ce7xy49RAeW/VTH9SuLYQWmGqDDsYpRcRd+ek/mO2RqQyPu9CLW7MwGq3lvm0G2Xgm3nGVzwGVNfHw4cYIjjqgtaTy/t7JpEEwK0iQYswN915Y4dWFqA2Jx8Kps9NAqeSGXPWUT1CKrRcei7HvNxHaydQYM88154BEYNnm8/otBOqKACYLyxZ4u6Xg3LIDy6iJZgNlHs1lEsmMMZnAhjVUVxiJ5bbekpFj+53KrG01vo0kf+Y53uylRyL0i8GqxtDprBaIS4+9wDM7Lz4bnqjN0hmUC37hJScHHmGSkVneG3HXEd5gvhnEkgnP5MbAEi87guMR+O7hu/yJiijxoUWh+a3mb2LNzD6/OqJdvHeIL7PUpEipODkGQ6P9D9/hMWNhPtCYLE6/I61du5hkjvLaYQF+79gJlPRBxLh6/B4fyoJgrDzf7p0mZu/9tufILD/24Peu6A8hIAQCCDQ976Jzy+YU3oNlezM3vBgPt1x6dwYaY5dpBx6ReGgTUkLk3JTZzt13k48TFu3naoAlBqsa/dB5LfYe69ypn/JhB1IMA19hUCI9WXiLcw/OsYCldirYbW9vH7XdDrbwmAoNVR4eiKgWicVC2gZSuXCN97MObIyyqduIMXy5OoTtGrFV7jRJXBZxM+2F0RwwJpOYVSyOqD2J60W0YTAkhQ25Fskl9u7bHuOX7HS6ZqVz635t79u1oWBHvSbaRnD8R6vDnFanB1UTIbA5AszNlMf0tjsas2LzKusatvlX8rtCuIbtd45Hdf+3V01r8KBz46ZUo875tb6zkpDkzTrP1mFbi2OZTDorPfe3xGDlDmnBBbJQEO0WddacH2U3ZOc9VHzEgFpnPyHvDHvMZrZv1FAWJaRhJ3zMe38M5T3/pe7+H6nThz5jtmTrjNH8ZTYmq1kj2oIkkNMynobLFjbvtP/dbHvzd/unNr0KcwXjfO4fGPNr0kWREBACcQRQwT/xwMZDYOhpctvtMz50t9jreFYj4X/K1IAhYi2gXcd9RF7ETYwmzTAppEn/HjOtwFDW1eb7Bf62I7eo5xFAonLapzuPFQL/xEBt99NkrjKDZAsCtl0nmOTl5E9U13YIqdP5X/A6feqbRZI1GIN2eA2+Nvid1L+pBwFFL/wjM+iUajAFl+4LgQYCHBQHTILF/AsRcwtJUFXsmUjRg+ovtvbQHrwikYSLPALgNuvcnmA4K85g2YQQZUOAReOcz1vy0t/16qvYpM1W4tCf4psE8DvPJC+nX2ppKLYfehlFvoEBOXU96/ecww6tDMwGt3eincw+/mfOHTR98B39WwgIgRACxPvDlCFGHEQnmg1ljAmLvZ/3PeqBJCYVMBrzDJyTRBsRYH38gP1UYc3eWKvN/qq2irAqE2Ez2Cp6Ac7+pIu9EfYt3/eG3NgDDVkKNdT2GWOF0eiUY5070b4/elJ1FrFUU7YxJvCDpsok8N8t/2rG7PPN+N3srYoceywS2GJMP9367+P9qxYsEtNUv+t+dgTot6r3Hc4kKc8yPPcawSqzN73rT+I4gy0nhuwhwtkIx6IyqWqMDOv2MWdmc1YqEbfyGCxsTEgSHJq4XN95zxKh6dFPgxteMqMmOPfQ7RYW4EafFobFJ4R1p01l0nH6gjkhlAAMFgO/1whcENV/4ivm6Xe3BU+9zsfTwWkgb8xasWnixyn2+IvsRHZUthhdrWX02t8pmzIcLNgI+4VwfmhIcm2uhA46HIx22LW6LWaO48yBFCU0H2gDiXnLov2MUUHtH0rYzlzj4Ifnb5WImFzEdsJbMIQtzkJl2o29z9gEcqGCYayO25kWpUhivTzyVJ8OLvRdpl2JAa63/C9Gobp19foeo7z7Orpz2982/G9jJyLKRRpTFX15V8HoQuGIw4mzglsrk5PJQRRzkgtDoYni74b/35xkDNrJM73tF56C2AsNNa5W+Cvl3AGzfS1e15TjDLsD/ZAkqGoDM2ZqY6AOr24Ug0MBCxYLxBmXOnfKJ/13ifDcz8SYY4N7brl5e724Ya57OBrNxjHiUMMez8ltd+gPJGgTTBYBMPHKbZ13zCUkl6xzBx9d3VxrjEsCGmML9Kqt19S7lVC1IwUmEGRZY5j0M1sazjCBeJe14kxdmdvYhDKvq0QcKPA8JnsEXtqtBMzkcD32POdmmLSmrPUV72jG8RML/VrYii1jAQZw9gXW/7bXFNn/hClCIokKdfXT3mlrcN0w/cA+GQa8BNriN0YlfNd/cvWAxWW62XtJrN8gzQIQvASOOLXcE1FpoHTpwwQJxdMQj5Tli+zvJ70XHVKaZkLR1sFJNZpDg0WAUyynLUTa4829GAYYDxgWrn4lQisgugezZfc797wxBkxmrkOD8fJXN/8/OLJAccofOdZjxxhnsa9jfkGSaSNdxQOzGReMwI9gMtkWaSQR/UTML5KLz7/BPMYW+8CRjQOQ9f+Ms3pHconnLBJevN6YBzCOjGEyDYwx6VDZaUwaWRIWWPJ5JNDmxg9Di6c0TCzqpFMuqaZdKOvJbVf4IMR4NkNoAsD2yNP8IbnsdQIvTYK4EiSZuH4cOgnpQ7Drw07yadvwzi6DCMTKevLArc6RXgg8CQhNGAw87MdNLpbxa8GgXAarWRGkBAwsNnJO9mxEou4hALNF8FDydq0a8MahxI95yxakdzecoraCIbBBuqupaZE24tlGPCvUN/3MVIVQB7M1zzv37FL7WeKxA0Mm95v2w6RmMW8yU2BEzB3SYaBeGW0SPlQUe4/tPwYihFnqOpg1pTpIrMo6oafqmdd9GID1a70kGZtF5lZZm9Jw2kQ7MDlAdVTFtYDUVhwgCaPCvGXdwoyhyuMLBob1+GWrM4cxpIJ72rpbNZML+v7VV/xesbUxgdSzKri+Zf1OyCECPKNyR6pZpEStzZyqBoPVpmK6JASEgBAQAkJACAiBXkXAREYiISAEhIAQEAJCQAgIgTwREIOVJ5oqSwgIASEgBISAEBAChoAYLA0DISAEhIAQEAJCQAjkjIAYrJwBVXFCQAgIASEgBISAEBCDpTEgBISAEBACQkAICIGcERCDlTOgKk4ICAEhIASEgBAQAmKwNAaEgBAQAkJACAgBIZAzAmKwcgZUxQkBISAEhIAQEAJCQAyWxoAQEAJCQAgIASEgBHJGQAxWzoCqOCEgBISAEBACQkAIiMHSGBACQkAICAEhIASEQM4IiMHKGVAVJwSEgBAQAkJACAgBMVgaA0JACAgBISAEhIAQyBkBMVg5A6rihIAQEAJCQAgIASEgBktjQAgIASEgBISAEBACOSMgBitnQFWcEBACQkAICAEhIATEYGkMCAEhIASEgBAQAkIgZwTEYOUMqIoTAkJACAgBISAEhIAYLI0BISAEhIAQEAJCQAjkjIAYrJwBVXFCQAgIASEgBISAEBCDpTEgBISAEBACQkAICIGcERCDlTOgKk4ICAEhIASEgBAQAmKwNAaEgBAQAkJACAgBIZAzAmKwcgZUxQkBISAEhIAQEAJCQAyWxoAQEAJCQAgIASEgBHJGQAxWzoCqOCEgBISAEBACQkAIiMHSGBACQkAICAEhIASEQM4IiMHKGVAVJwSEgBAQAkJACAgBMVgaA0JACAgBISAEhIAQyBkBMVg5A6rihIAQEAJCQAgIASEgBktjQAgIASEgBISAEBACOSMgBitnQFWcEBACQkAICAEhIATEYGkMCAEhIASEgBAQAkIgZwTEYOUMqIoTAkJACAgBISAEhIAYLI0BISAEhIAQEAJCQAjkjIAYrJwBVXFCQAgIASEgBISAEBCDpTEgBISAEBACQkAICIGcERCDlTOgKk4ICAEhIASEgBAQAmKwNAaEgBAQAkJACAgBIZAzAmKwcgZUxQkBISAEhIAQEAJCQAyWxoAQEAJCQAgIASEgBHJGQAxWzoCqOCEgBISAEBACQkAIiMHSGBACQkAICAEhIASEQM4IiMHKGVAVJwSEgBAQAkJACAgBMVgaA0JACAgBISAEhIAQyBkBMVg5A6rihIAQEAJCQAgIASEgBktjQAgIASEgBISAEBACOSMgBitnQFWcEBACQkAICAEhIATEYGkMCAEhIASEgBAQAkIgZwTEYOUMqIoTAkJACAgBISAEhIAYLI0BISAEhIAQEAJCQAjkjIAYrJwBVXFCQAgIASEgBISAEBCDpTEgBISAEBACQkAICIGcERCDlTOgKk4ICAEhIASEgBAQAmKwNAaEgBAQAkJACAgBIZAzAmKwcgZUxQkBISAEhIAQEAJCQAyWxoAQEAJCQAgIASEgBHJG4P8D/63L7nM+IRwAAAAASUVORK5CYII=;" parent="1" vertex="1">
          <mxGeometry x="120" y="380" width="80" height="80" as="geometry" />
        </mxCell>
        <mxCell id="criwHfPJJqmuLG_6KfQK-13" value="" style="edgeStyle=orthogonalEdgeStyle;rounded=0;orthogonalLoop=1;jettySize=auto;html=1;" parent="1" source="criwHfPJJqmuLG_6KfQK-10" target="criwHfPJJqmuLG_6KfQK-9" edge="1">
          <mxGeometry relative="1" as="geometry" />
        </mxCell>
        <mxCell id="criwHfPJJqmuLG_6KfQK-10" value="" style="html=1;verticalLabelPosition=bottom;align=center;labelBackgroundColor=#ffffff;verticalAlign=top;strokeWidth=2;strokeColor=#0080F0;shadow=0;dashed=0;shape=mxgraph.ios7.icons.user;" parent="1" vertex="1">
          <mxGeometry x="30" y="400" width="35" height="35" as="geometry" />
        </mxCell>
        <mxCell id="criwHfPJJqmuLG_6KfQK-17" value="" style="swimlane;startSize=0;" parent="1" vertex="1">
          <mxGeometry x="20" y="230" width="810" height="260" as="geometry" />
        </mxCell>
        <mxCell id="criwHfPJJqmuLG_6KfQK-18" value="Running on my Mac" style="text;html=1;align=center;verticalAlign=middle;resizable=0;points=[];autosize=1;strokeColor=none;fillColor=none;" parent="criwHfPJJqmuLG_6KfQK-17" vertex="1">
          <mxGeometry width="130" height="30" as="geometry" />
        </mxCell>
        <mxCell id="20_UKiPUlIuUFfPaS6IC-4" value="" style="group" vertex="1" connectable="0" parent="criwHfPJJqmuLG_6KfQK-17">
          <mxGeometry x="540" y="90" width="218" height="98" as="geometry" />
        </mxCell>
        <mxCell id="criwHfPJJqmuLG_6KfQK-6" value="" style="shape=image;verticalLabelPosition=bottom;labelBackgroundColor=default;verticalAlign=top;aspect=fixed;imageAspect=0;image=data:image/png,iVBORw0KGgoAAAANSUhEUgAAASgAAABwCAYAAACtre03AAAKrWlDQ1BJQ0MgUHJvZmlsZQAASImVlwdYE9kWgO9MekhooUsJvQnSCSAlhBaK9GojJAFCiSEQmigWFldgRVERwbKgS1WwUWStWLCwCPa+QRYBZV0s2FB5A3wEd9/33vve+b4755+Tc885987cfGcAIKuwBIIUWBaAVH6GMMTbnRoVHUPFjQIcIAAiMAZUFjtdQA8K8geIzOm/y/u7AJrWt8ymY/377/9V5DjcdDYAUBDCcZx0dirCJ5Dxji0QZgCAqkfsulkZgmnuQVhBiBSIsHiaE2b53TTHzTAaP+MTFsJAWB0APInFEiYAQDJC7NRMdgISh+SDsAWfw+MjnI2wS2rqKg7CHQgbIT4ChKfj0+K+i5Pwt5hxkpgsVoKEZ9cyI3gPXroghZXzf27H/5bUFNFcDkNkkBKFPiGIRp4g9EfyKj8J8+OWBM4xjzPjP8OJIp/wOWanM2LmOD0llDnHHJaHnyROyhL/OY7neUl8eBnMsDnmpnuGzrFwVYgkb7yQQZ9jlnC+BlFyuMSeyGVK4ucmhkXOcSYvYomktuRQv3kfhsQuFIVI1sLle7vP5/WS7ENq+ndr5zElczMSw3wk+8Car5/Lp8/HTI+S1MbhenjO+4RL/AUZ7pJcgpQgiT83xVtiT88MlczNQF7O+blBkj1MYvkGzTHwB6HABjgAOvBGrrYZ3OyM6UUwVglyhLyExAwqHTlpXCqTzzZfSLWysLIFYPrczr4Wb+/PnEdICT9vW/0nADZpiJE5bwsnAXBqJZKSM2/TfwKAjAUA5/PZImHmrA09fcEg/wYyQAGoAk2gC4yAGbACdsAJuAFP4AsCQRiIBisAGySCVCAEWSAPrAeFoBhsBTtBJdgPDoB6cBgcA+3gFDgPLoProA/cAY+AGAyBl2AcvAeTEAThIDJEgVQhLUgfMoWsIBrkAnlC/lAIFA3FQgkQHxJBedBGqBgqgyqhaqgBOgqdhM5DV6F+6AE0AI1Cb6DPMAomwQqwBmwAL4JpMB32g8Pg5XACnAbnwgXwFrgCroEPwW3wefg6fAcWwy/hCRRASaGUUNooMxQNxUAFomJQ8Sghai2qCFWOqkE1ozpR3ahbKDFqDPUJjUVT0FS0GdoJ7YMOR7PRaei16BJ0Jboe3Ya+iL6FHkCPo79hyBh1jCnGEcPERGESMFmYQkw5phbTirmEuYMZwrzHYrFKWEOsPdYHG41Nwq7GlmD3Yluw57D92EHsBA6HU8WZ4pxxgTgWLgNXiNuNO4Q7i7uJG8J9xEvhtfBWeC98DJ6P34Avxzfiz+Bv4ofxkwRZgj7BkRBI4BByCKWEg4ROwg3CEGGSKEc0JDoTw4hJxPXECmIz8RLxMfGtlJSUjpSDVLAUT2qdVIXUEakrUgNSn0jyJBMSg7SMJCJtIdWRzpEekN6SyWQDshs5hpxB3kJuIF8gPyV/lKZIm0szpTnS+dJV0m3SN6VfyRBk9GXoMitkcmXKZY7L3JAZkyXIGsgyZFmya2WrZE/K3pOdkKPIWcoFyqXKlcg1yl2VG5HHyRvIe8pz5AvkD8hfkB+koCi6FAaFTdlIOUi5RBlSwCoYKjAVkhSKFQ4r9CqMK8or2ihGKGYrVimeVhQroZQMlJhKKUqlSseU7ip9VtZQpitzlTcrNyvfVP6gskDFTYWrUqTSonJH5bMqVdVTNVl1m2q76hM1tJqJWrBalto+tUtqYwsUFjgtYC8oWnBswUN1WN1EPUR9tfoB9R71CQ1NDW8NgcZujQsaY5pKmm6aSZo7NM9ojmpRtFy0eFo7tM5qvaAqUunUFGoF9SJ1XFtd20dbpF2t3as9qWOoE66zQadF54kuUZemG6+7Q7dLd1xPSy9AL0+vSe+hPkGfpp+ov0u/W/+DgaFBpMEmg3aDEUMVQ6ZhrmGT4WMjspGrUZpRjdFtY6wxzTjZeK9xnwlsYmuSaFJlcsMUNrUz5ZnuNe1fiFnosJC/sGbhPTOSGd0s06zJbMBcydzffIN5u/mrRXqLYhZtW9S96JuFrUWKxUGLR5bylr6WGyw7Ld9YmVixraqsbluTrb2s8607rF/bmNpwbfbZ3Lel2AbYbrLtsv1qZ28ntGu2G7XXs4+132N/j6ZAC6KV0K44YBzcHfIdTjl8crRzzHA85viXk5lTslOj08hiw8XcxQcXDzrrOLOcq53FLlSXWJefXcSu2q4s1xrXZ266bhy3WrdhujE9iX6I/srdwl3o3ur+geHIWMM454Hy8PYo8uj1lPcM96z0fOql45Xg1eQ17m3rvdr7nA/Gx89nm889pgaTzWxgjvva+67xvehH8gv1q/R75m/iL/TvDIADfAO2Bzxeor+Ev6Q9EAQyA7cHPgkyDEoL+jUYGxwUXBX8PMQyJC+kO5QSujK0MfR9mHtYadijcKNwUXhXhEzEsoiGiA+RHpFlkeKoRVFroq5Hq0XzojticDERMbUxE0s9l+5cOrTMdlnhsrvLDZdnL7+6Qm1FyorTK2VWslYej8XERsY2xn5hBbJqWBNxzLg9ceNsBnsX+yXHjbODM8p15pZxh+Od48viRxKcE7YnjCa6JpYnjvEYvEre6ySfpP1JH5IDk+uSp1IiU1pS8amxqSf58vxk/sVVmquyV/ULTAWFAnGaY9rOtHGhn7A2HUpfnt6RoYA0SD0iI9EPooFMl8yqzI9ZEVnHs+Wy+dk9OSY5m3OGc71yf1mNXs1e3ZWnnbc+b2ANfU31Wmht3NqufN38gvyhdd7r6tcT1yev/22DxYayDe82Rm7sLNAoWFcw+IP3D02F0oXCwnubnDbt/xH9I+/H3s3Wm3dv/lbEKbpWbFFcXvylhF1y7SfLnyp+mtoSv6W31K5031bsVv7Wu9tct9WXyZXllg1uD9jetoO6o2jHu50rd14ttynfv4u4S7RLXOFf0bFbb/fW3V8qEyvvVLlXtexR37N5z4e9nL0397nta96vsb94/+efeT/fr/aubqsxqCk/gD2QeeD5wYiD3b/QfmmoVastrv1ax68T14fUX2ywb2hoVG8sbYKbRE2jh5Yd6jvscbij2ay5ukWppfgIOCI68uJo7NG7x/yOdR2nHW8+oX9iTyultagNastpG29PbBd3RHf0n/Q92dXp1Nn6q/mvdae0T1WdVjxdeoZ4puDM1NncsxPnBOfGziecH+xa2fXoQtSF2xeDL/Ze8rt05bLX5Qvd9O6zV5yvnLrqePXkNdq19ut219t6bHtaf7P9rbXXrrfthv2Njj6Hvs7+xf1nbrrePH/L49bl28zb1+8sudN/N/zu/XvL7onvc+6PPEh58Pph5sPJR+seYx4XPZF9Uv5U/WnN78a/t4jtxKcHPAZ6noU+ezTIHnz5R/ofX4YKnpOflw9rDTeMWI2cGvUa7Xux9MXQS8HLybHCP+X+3PPK6NWJv9z+6hmPGh96LXw99abkrerbunc277omgiaevk99P/mh6KPqx/pPtE/dnyM/D09mfcF9qfhq/LXzm9+3x1OpU1MClpA10wqgkAHHxwPwpg4AcjQAlD4AiEtn++oZgWa/BWYI/Cee7b1nxA6Ao+cAmG7vvNwAqEfYAGHpdQAEIfdhbgC2tpaMuR54pl+fFn8zANIOWTCiAn4/mbcO/ENme/nv6v6nBpKof9P/AsmvCA5tlWqBAAAAVmVYSWZNTQAqAAAACAABh2kABAAAAAEAAAAaAAAAAAADkoYABwAAABIAAABEoAIABAAAAAEAAAEooAMABAAAAAEAAABwAAAAAEFTQ0lJAAAAU2NyZWVuc2hvdL8d/AQAAAHWaVRYdFhNTDpjb20uYWRvYmUueG1wAAAAAAA8eDp4bXBtZXRhIHhtbG5zOng9ImFkb2JlOm5zOm1ldGEvIiB4OnhtcHRrPSJYTVAgQ29yZSA2LjAuMCI+CiAgIDxyZGY6UkRGIHhtbG5zOnJkZj0iaHR0cDovL3d3dy53My5vcmcvMTk5OS8wMi8yMi1yZGYtc3ludGF4LW5zIyI+CiAgICAgIDxyZGY6RGVzY3JpcHRpb24gcmRmOmFib3V0PSIiCiAgICAgICAgICAgIHhtbG5zOmV4aWY9Imh0dHA6Ly9ucy5hZG9iZS5jb20vZXhpZi8xLjAvIj4KICAgICAgICAgPGV4aWY6UGl4ZWxZRGltZW5zaW9uPjExMjwvZXhpZjpQaXhlbFlEaW1lbnNpb24+CiAgICAgICAgIDxleGlmOlBpeGVsWERpbWVuc2lvbj4yOTY8L2V4aWY6UGl4ZWxYRGltZW5zaW9uPgogICAgICAgICA8ZXhpZjpVc2VyQ29tbWVudD5TY3JlZW5zaG90PC9leGlmOlVzZXJDb21tZW50PgogICAgICA8L3JkZjpEZXNjcmlwdGlvbj4KICAgPC9yZGY6UkRGPgo8L3g6eG1wbWV0YT4KEPmzpwAAMCdJREFUeAHtXQWYFMcSLtzd/XAneNDgLkGCk+AQLEjQQHB3l4QQIEgCBIdAgIQQgnO4uwR3yOHw6u9jhtnZnt3Zuz32jtfFd+xMT0/LPzPVVdXV1eGeP3/+hhQpBBQCCoFQiED4UNgm1SSFgEJAISAQUAxKvQgKAYVAqEVAMahQ+2hUwxQCCgHFoNQ7oBBQCIRaBBSDCrWPRjVMIaAQiKggUAgoBN4fAg8fPqb9B4/RuQtX6Nbtu/T8xYtgVR45UiRKlDA+pfNLSXk+ykaxY8cMVnmh7eZwys0gtD0S1Z4PFYG/t++jv7btDtHulShWkIoXyReidbzPwhWDep9oq7r+LxF4/DiA1q7fQqfPXXwv/c+YLg1VqViSYsaM/l7qC8lK3DKo4aOm0O07dx3akCRxQurxdTuHNHXyDoEHDx7RoGHj3yW8PSpWpCDV/LSiU7qnCYePnKDdew7QlavXKGXyZFSwQG7KmSOLp8Wo/O8JgV+WrntvzEnrEphUvc8qa6dh9tetDerAwaOsK99x6GCyZEkcztWJIwIBT57Q/gNHHBP5LFWK5E5pnibs23+Yuvca7HDbgp+X0egR31K+PDkd0tWJ7xGAWve+JCdjb1En6g7r6p6axTM+1TBwvJ8ZlIz8/eXpsrwq7f0gAIN4SNucXPUEdaMNYZncSlDvq3OXr1xlMB/p1WXKmI4i8QyFHXr27BmdOXtBzxo3bhxKkTypfv4hHbx6/VranVevXknTVaLvEMBsnYwihA9P9etUpTSpktOLly9p0x/baf8hx7zlyxSjnNky8TcQkf7Z6c/S0F6Hopo0rElJkyaiiBEi0IlT5+jXlRscrmsnaEOJ4gW10zD3GyoY1Gv+6Dp/3Z/u3X+gA/jd1JGUIUNa/dzVwZa/dtDIsdP0LMWKFqRB/brp5x/SQfasmaTdyZE9szRdJfoOAbgSyKjQx3koUwY/evXqNUWJEpmqVynjwKCKFspL+MOgEy5ceCpbqgjt3neInj17rhcXJ04sevniJUWJHJly5chM/geO0vmLzvWhDWGZQYUKFe8gjx5G5qQ/BZsHa9f/YTNn2M8G5tu3VycqXbIowRaI3769OxHSFYUuBODnJKOM6dOI5BHjZgrpKHz4cJQ8WWI9q1/qFOJ41twltGDxKnGcLXMG/ToOJk2fR2Mnz6YNm/4W6alZGpORVRtkeUNjWqiQoDZu3hpkbP69ep2OHD0R5PvD4o2lSxUl/CkK3QhYOWEm5VlwSEPPn7+gCyz1QFrKliUDXb12U3TowOETlCljWvq8QQ16wXlAmTL6OUhZSAsfLpy4F8eHjpzEjxNZtcEpYyhNCBKDihY1qt6dl6xDX7hwma7fvE2PHj2mVCmTU7q0qSl69Gh6HlcHjx//R+t/3+KU5XFAAP33X4BDOmxSkSM72qU2bQ4cQYwZ8VDN9+J6jBiOfiGwXb18+c52E45HsujR3rUbLxAY4BW2j0ENhV3Lzy81RYwYwVid7WOUr9H9Bw/pLM+03GEXDojpUGeTs0QUjl86VwSx/+nTZ05ZokWLSuHZtmEkWV48F2MdN2/d4Q/jOt29e1+kJ02SSPQzduxYxqK8fvzmzRuBLVxYbrOk8YLVlQTx41JC9opOnSoFY2zv1TQ/5yhRojg8H62e8+cvCaYQmVWqYkUKOGGldRCY4ZmDcTzm9zka45UwQTxKljQJAWMZ4Z2U2Uvh5W3FILR3KEZ0x3cS5R89fpo2/RmHcrANKkIEx2eq1Q/m1LZVQ4Kqt3LtZksNBG0Iy2TvLTD1MGrUKEI/XvvbZpr70xIpOCmZUZUuUYQa1q/pxFS04vbuO0jjJ8/STh1+u3Yf6HCOk0+KFaIB33YV6Y+Ysc2Zt5iWr/zNKd+uPfupWq2mTumzZoxm5hkoXuPiF807O7lQrFk+l9C/DRv/oqnT5xBcBsxU4pPC1LVTa4oVM4b5kstzvMRgetNmzKVVa393ygvmWLdONfq8YW0HJmLM+Odf22nYyMnGJHH87TedqRTjbSRZ3nGj+1PuXNnpwKGjtOjnlbRn3wHjLfpxoYJ5qW2bL8SAoyd64QDPbe26zbR63Ua6du2GtETg8Gm1ClStajkCw7SiGzdvUYPP2ztc7tiuue5rtmPXPhozbobT+7lx3SKHezBIzV/4K+3Y5U+nz5xzuGbnpGb1itSxfXOnrFiC8q+kj7d5MEiVIilVrViKNHXv7PnL1KxxbWGTWrhktTCeb2fjeOFCeUS5Z89d0q/P+GERtWvdmJe4xKMznB6N39dUKZPR5SvXpG1wSgxDCUFiUOD6E6f8QGvWbbLsKqSOeQuWioc+cexA8dFrmSG5jBgzjf7aukNLsvWL0Q20mxnQoKETpMzDVUGv2Sjpjvb5H6Jt2/eQK7UT7Yb0M3RgD48+YAhH/QeNITBQGYEZgumePn2eevfs4CDN6fkt4p9CUnAiSdKePQeFxCJjcsb7d+72J/z179OFwJC9QSdPnaV+A8c4DQrmsoHDosUraOXqDdSre3tL+9rr184d3H/wiGBQU3hwWbZinblogWkEnvnS6O69+zRoyHhWkY5rSR7/wtgtI6yPkzGo5at+p3q1q1CBfDmFoVwYuFkLqVerkpAc0/mlokrlPhFF4p2H+rZ3/xFhLNcky4QJ4orrGdKlJvyd5Hdm4eLVTs1AG8IyBYlBWY26MiAwIk2Z/iN16/KlfvkB/EM8ZE64WVORtu/Y5zFz0it3czCSGadMajLfBgbctkNvWrJopqXob75nya9rzEnS83927KFhIybTEGaA3iZ89Hb6p9U7miWQj3JlI7huBIeOHjtJHbt861ERaGc/Zuh4dypXLG3rXviDrVi1QcqcUEB8Vtc0unPnHrVu18NJwtKuB/cXi3f/5nfVTHdYgpr2/QJmllHpCavr2uAyYtx3etaDbIeKy+rbvfsP9TTj9QHDnKVoPaPhAG0IyyRXcL3co3U8y3bv3jsXAi8X79XiPPl4kRdqbkjQ9p17Wd047/WiPekfKkf+ufOXBqsdAQFPhMQb1ELGjJ/BNqHLtm5HeydN/cEyb3wDo121dqOUOWXMkE7MjA4Z0IPKlQmUZGQFQg3t37crNW1SV3ZZRBbA4l0rCnjyVGdO5jxgWkbmZL5u5xx1h/XoBkGSoIzgFMiXm/XkvKw7R6HVazay09gZ42X9eNcef6pYvpQ4jx8vjlAdXvNDWL9hi9QO0vSLuk7qU5LEgfaIqpXL0Ec8MjzhF3/MhJl6HdpBmtQp6YvGn2mn+m9y1vvtUqKECahkicLCYHvn7j1azHYB2ce96JcVVK1KOWE7sFt2NvZlgo0HL8/RY6cs1ckFi5brNje7ZXuSL0f2LFSkUH42ACeis2xEhh1GRlj7FxxaunytpVqH9wdrCUGwSVqpv5On/UhjR/YLTjPEvfHYEK/RGmZQZorHDGzSuIHifca1IoXzC3vrH1v+MWells0aOE28mDNhqcnVqzfe+3IXrMUL68tcgGWwGJR5/VeZUsWEGC8zNN64cVt/dtCjNbvG2bMXpAyqyMf5LB01MeOFP4zMMgaVin1CzAZjvXIbBzDSTps8jGeV3qkDaE/r9j2d7ob/Fmw1JYoXcromS8iVIyvBUK3NuFWvWp7AUGf9uNAp+9ZtOwnM0dgOp0xBTAD+fXp21GfLcJ4hvR8NGDzWqcRz5y+Kkd44++eUySIBkgAmHGTUsF4NasEfuVZu7ZqVCYxgyPCJTtmxthFGcW2QcsogScBzrF/3UyrKs3ZY4I4ZsYCApyInJitkvncYRDHYGqli+ZKiXcY0HMMOmStnVnOy0zkiC/gimoFTQ8JgQpBVPLzQ5sWpmG6tXbOSFAZ8aGGFvurQ3IkpgCGCmcjo2lv/Fdk1c1qPbu105qRdq8czdxi5ZWRk7LLrQU3rxLNOmsFVK6M4O3tCcpQR3BCCQliCJJutA/OAlKwxJ61sOJ5qg5eWpv3+tXWnduj2F/2YP2cSNW5Yi9Ky0RnuFWA88Vh6B8ElRkYxYznPzMaKJQ8CZ47yISsPaQh7gsgCrtQ9q3s9TUcdqOtDCLWCvgeZQdWpVVWKnV+aVNJ0+LmEFYIKJiOofDK6deuddCi7rqWBCcHXyUyYVapcsYw5WZybI0lIM3mYmCd3DqnRG8wCayBl9JRnXoNCWGMpo8qVyjgxSC2flfRr1w6Fcgb2+1raR60OK9vM4cPOs3nHT8jNFlim4glB5frqy8+peOF8lILfA2/4KKEMlIUyRdkfULA6YBtkFS9RovjSZxPc2R5poe85EeqAjJIkkqffYCdVOwRVzopSpHBmXMh7ix0pvU1ZTcsmjOV7W520mhxJ6cIeaIU/HDrtEAaCLC76iDLgkwYpyzwAQF2HIyx84TTaxWkySp/OT5bsMg2MEWvjwvL6OJcd9PLFIEtQ8eK+MzYa24SV2mGZ8HLLvILRJyvvange2yGsPrciK8YOT29vU5w4sS2LtPJctrzBzQUr1RAqnhUlSiRXM+GeYoeyZsloJ5ulyt6N423ByRPMavLU2VLDfZZMGVw6kdpqgMrkFoEgSVD4iDVXfbc1hLEMMsOp1gXZEhPtmp1f+LxYkeaEanXdm+lYHvG+KEpUuRr0+o3cuRHtsnKotTv4JUwgl+7Nfa5erTyt2/CHk43s2PFT1KffSHN2h/M2rRo7nKuTkEEgSOJOVIs1SSHTxPdfqpUB1awOaC2Lb5i61tJkv/dcGJrv3pX7iVnZSmTl200zG8ft3heUfFibKSNXxn8rqRGzs94kLFUaMaS3mEX1pNxvePYTzquKQh6BIDGokG+Wb2uwYkRWtiZIlHYIM1pWkhLcLWQUJ7a1OibLH9rSUqVIJm3Stes3pOlIhDuBjFJalCXLazcNZZbkGWk79BlPDC1ZOJPKli5uJ7vK4wUEgqTieaFet0X8xz5OQaXHj/4L6q3ivnXr/6QObZs6lbHWYu2h3Q8Hjp6HOTQMFusa6Ql7FMsWDyMPnCjDMqWwYCpb/95FLZo2oASGpSfoJ/ym4PAro5S8INbbNIltTFj+Y6T2XzYV0RVgKE+SJKHwoUqaJLHtCB3GstRx8BDwuQQVXRJuAl3CSnx3ZDXNi5X6VlKQuzJxHYtMsbDVSFg7uJcXEssoX95csmRp2pRpcwihVjRCGJfJ02Zrp06/8PYOreTP8dEnTJpF9Rq1pW8HjKYNv2/h8DUvHZqLECWy2Usw6/GTvnda6oGlQ3h+MoIjqTcJjr5m5oSlLXAYrV+3OtWoXoEKs4MuImDYDR/kzfapsoLhZuAt8DTHOXN5q9b8LmI6YboYo+qJk2fo+o1bNGXCED0r/IegXskM21/3HMyu/gU5tlESjnd0g73VD3Holxq2Pb7bduxNYA65eDunQ7zUwyooHmaj7M4aoeHwym7TrqdYQoGZuz17DxCMsjL6uEAeh+luWR5fpcG/CbNdGmFAwCJnxAVrYlpm1KlDC+raY6CWVf/FesPP6rem4sU+5rhGsWmni3AncJK1smfpBXp4YIxjr92KKBaIMZWOl4rEZBsV4i5pBIkK0jLaYZb8tDzq17sI+FzFS88vghVt/nMb4U8j2dQ0mANedDMh2gBCdhjpP45F5AmBKVkxJq2cZk3qeTyjiY/ZPHJr5Rl/GzWoZTwNVcer126Stmf7jr1ODCr3R9nFoltZCBsMLhiMXBGee3PG2duUOVM6aZF4n2TvlDFz0cIFqHnT+sJL3Ziujr2LgM9VPHguI7hdUKlcWevV5kEt0+59aPenPFUdEgRVIzRvhGAQLBy6f9u0h6J2EdPydicTtHu0384dW1r6oGl5gvKLpS8IcBcUgrTYos3XHCTualBuV/fYRMDnDArtxKLVoNInrB5Yrd0KSpkItWHH7gO7yvhR/S2Xa5jrhhSAiJ52mDFGZ0TsDM1ktWYvr8XmofHjxaU5P0ywHdcJfQdWUycOpbJlQmbWDHaw4PrzDeRgdzBBKAoZBNwyqIi8L5eZjBEJna/Ji3Tle5M5U3r6fvpojjCY21ycfo7Rt2rlsvq5doD1Y2BwLZs1tFzoirwIb5LRYp2ZVhZ+nz9/TqOH96W2rb+QRrQEo2nSuA5NGj/Y0g4he+kROwjGVnxw6IdMmsBH3+WrViLGkNUEQASLeOiyZ+JJXg2DCBaxwM3lV6rA4WqZmRtJYPN5HWOSwzH8jhB8btSwPpSfJxaQX0bw0m7epD79wAzdlX1PhjPKs+MNjxjlrdr2EIZ6WRvspsGmGNZ3TrHbV1/kC8cfZKhi/xiNrl2/SZcu/ys2JYzLxtN4PPraNUrCwHnx0r90n20bWJoCr+nEvHTCHEIDYGP2yTzbh62cFswJjFYInyW05erbpSxJOD42pputmIcnDxD9xGYTCAmLyIqBZSfijyuCJ8X4PC9UnAO8OaRfmpSULWtGj9uPkLuX+HlhcwH4TAEHLRRNSHUOIaebt+nm5EEOhtmoQU1Ky5t+xI4V6G3/6tVLesiRD65fv0XLOP69LDLDiKHfUMH81oNrSPXj/6FcZ/HIx72GRIQV/7JV/3aahp1b8KF4g8AsMGtj18/JkzrRT3wI+AvLhBmt4MyuQfXD3/ukf9iQb2Y0kF5nTBmhh2ORtacSb3JQtUYTp0sInKgoZBCQ62MhU5cqVSEQKhDAllJmwlZUVi4vWt6A/+SMKGnSxFoW9etlBBSD8jKgqrjQj4DMduXPETuxJZYVQZUdN/E76eXgSJDSAlWijkCoU/H0lqkDhUAIIZA9W2anki9eukJNW3QWIVj8OAInT80RllshaiYcOrf9s9vpHiQ0ql9LeZlLkfFOomJQ3sFRlRKGEMjK24zLViDAaXTu/CW2e4LZRiyJURRyCCgVL+SwVSWHUgQwWzdu9ABLNwc7zYbv3dhR/dzu6mKnLJXHGgElQVljo658wAikSZ2CZk4bSdg2DPs22iEwNvizYTYvJGZ27bTh/y1PqPODep8PYNaPi4S/lLHOBByNsRnvNqLo/wcBBCiEnQl/2G34GTvrYoeimDFi8O4+7AbBIWHgCoHVA97wgfv/QTb4Pf2/ZlDBh0+VoBBQCIQkAsoGFZLoqrIVAgqBYCGgGFSw4FM3KwQUAiGJgGJQIYmuKlshoBAIFgKKQQULPnWzQkAhEJIIuGVQiIK4eOlq8bePY1ArCj4CwPN90rNnzzmC5+9uq0QEiKPHTrrNF5oyWEX2NLfx7LmL+nu8+Nc15svqPJQi4NYP6vTp89TuS+cV3K76M3DoeIrP8Zsec+iThw8fUc0alXwWjgJhTYaOmER9e3fSm7xi1QbKlTOLiM80auw0EYoFoVWwCy6C1dWrU40QbQBpCOyPGEbeJHwsrggbNmCTygwZ0jplA7PZwhtKVChf0umaVQI2ZrjESznckVjSsX0PyZaCuLvXF9cRi+ne/fu2qkZoaS289LQZc23dozL5HgG3DCooTQxH4ahj++bi1hcc56dT1/4cjO4j8dEHpbyQvIf5F7VnBqwF1ANzxcLQ1KlSiGpx3R2BCYKheYvgixOFA/TLCLGMrnKMqpCg/PyM8BdWaNMf26RBDMNK+1U73SMQIgzKWC2Cj2E3DI2OnzhN2FooUqRIhG1/EOYCu3qAcP7Twl95J43whHCs8Nw1bkqwe89+2rptl9iz7MWLlxx9siXFihVTK9orvyk4FpXVzsKyCmbNXkinTp+jURyF0y4h4iO21TrIgd4QDC1/3pxUuVIZwtbq8xcto3MsYQG3Xbv3iyIrlCshRv+ly9bSlSvX6DjvcIO99ECIW46wx0eOnqRjjO3ly1cJEhO2f2rXpokI2Id89+4/pGkz54n7nj59SjU/raTHzfppwa8s7f6H9bHCQbFlswa4RRDag9hchw4dd2irdt3VLzZDwG484fh5IpQJHGC1gHx79x0Uy0S279gnFuSivV/xoIbn+ZijCsyavYjChQ9HFzk0SiIOOJiRpcnPalXRq0N+BBMMatwwvSB1EKoRCDEGNXf+UsJW30fYptGyeQNdwsA+adiGCAwKkkevPsOpKDMpfJBbeO85qBdgWiDYRLTQGGfOnKdtrH583bmNKOvCxcuETRf79Poq2ABD5Xr16rWwv5w+c4GaeuBJjj3xPN1QEtEZI3IwvM7MYEFQQbH5Axg5mAP24IvJH2o+U3xvfKCQrlat3ejk7Q6mg51sgC0wQ1TR72cv0NXT6/wxf9WhOSFCKaSw3n1HiLVkkPw+b1RbtAOMbcz4GeJY+8/f/zCl+TSFU1vx/FwRVv8/ePCIenzdTmTD4DKPGaHmpR/ADHYqq1oI12xWZZevXC+WkyAU9L8czRSMzsicUOAeZnBFC+V31QR17QNAIEQY1Bt6Q5/x5oeQCE6fPU8r2eaTMX1aEbbXL00q8dLt5/g72K8Om1jeu/dAXIMkMGrcdBEKN3++XGLU1DBGuNUE8ePT1r93akm0Y+c+/TioB/goz3F86r9ZMgMNGdhdV/fslJkndw472RzyQCLQpEZcwN5/CKIGKSE4BIamMXSsNYN0phFW8IM5gRD+GLG+b966zbvmJtKySH+D2tZdew5Q65aN9DIL8h5/ZoN2o/o1nZgTboAEq8Vsj8NhmwMCAqVFvTA+2PLXDsJuL4o+bARChEHBBoXQu/hDLHEYm7HPWLUq5WjhzyvEWqfyLDFUrlhaSFIaxNgocVC/bjz6X6FDh4/T3J+WCAM9AoJFjhSZ0qRJQcmTJ9Wy08Rxg/RjqwNICIhTbqRbt+5QNFYfQZDcyvGuIRXLlxS74z58+Nh2/HNjmcE5xvouMEojvTGdO1yzYxgz3iA5xnozze4muWyZJGurLDM2n4hksQGDlj82x4uX0SfFC9G3A8eIZ3LoyHH6vKHj/oCQrKNFjcrPMKrsdpX2ASHg1s3AG32FmpDsbVjUg4eOCTE/BTMafJSwMWgEmwIIizLBzD6rXZX28o7AoFIli9D585eFlAFJA38I1G+HYPeAagSC7eLEqTNiIwXjvWBkLVi9wgJiTwg2Fm9IcsY64/MC1Zu8Q6+MsAnEDd5hWUZGiQl2saQG6Qg2KI0QORK2qgTx42lJwfqFSmqemcRmnUjXCCo6Nq+wQ39u+YcG9O1ChT7OS9/y7Ct2wzESTAFlShc1JqnjDxSBEJGggNVktg89YbsI1LdcubKRtl8aVKIJk2ZRnLix6QF/NMbV4fjY57HtKiFHFADzuvzvVd5YsZmA/iMuA7Nrw0dNEUH6r9+4yUbeTLb2WWvetB4NGzWZsEnouXOXhIFYM9YyX2IKnIFLy5EUY8eOKQzO2qaZBw4dFX0RjeD/IMHVZvVVI8wkod2FC+XTktz+QmpzRVC/lrEd5gZLeqAsmdNT4Y8Dy4fUgxjYk6f9KBgMtgWry4wchF19z569SJFZInvAqjO2sNIIkSGBHVQ2DArt2zbRLjn8mttmPnfI/PZkDku6UFm1aXwkQyL97ocFNGHyLDa8B7anU8cW+u1A3LituH6BD/CcBg+bSOnT+wl3CxjOK1cqrQ9y+3jAQ9gTRR8+Am6jGcBnxFM/KHewwTYFBhQ9unxfNMzgwWiNfdTMBMM6Pj5sKWXn49Hux32ImIjthDQ7jXYtOL9QXyGVyba1Ck65uBeqDIzRUJXNBLX1BdcLGw2kP8yKIURt0cL5he0P6rKZgAFUWEhh3iQY3dFO2fN4/vwFveStmzAja4fQxkHDJlB39j2DCiekbFb5F/2yUkyIQBLbyQb3xsHYFj4k3mk7fVN5PEfArQQVM1YM0jxv07GE4Q0/GaPbgazJrl5mfIxx2QnUU8J9IbG9ESQxTRrztE3u8rvqp4xpwU8AElbMmPLHCgy8zZzQB1fMGXGVIpPrGT8jDmBQUMfB+NFeYAupN61f4PZcO9n1Iig7DWOjzj3+geYCDICKwgYCbiWosNEN1Uq4Fbxgw7R5yj4sIoNNW5ct/41esZQNKQozkKVKFAmLXVFtDiYCikEFE0B1u0JAIRByCLi21oZcvapkhYBCQCHgFgHFoNxCpDIoBBQCvkJAMShfIa/qVQgoBNwioBiUW4hUBoWAQsBXCCgG5SvkVb0KAYWAWwQUg3ILkcqgEFAI+AoBxaB8hbyqVyGgEHCLgGJQbiFSGRQCCgFfIaAYlK+QV/UqBBQCbhFQDMotRCqDQkAh4CsEFIPyFfKqXoWAQsAtAopBuYVIZVAIKAR8hYBiUL5CXtWrEFAIuEVAMSi3EKkMCgGFgK8QUAzKV8irehUCCgG3CCgG5RYilUEhoBDwFQKKQfkKeVWvQkAh4BYBxaDcQqQyKAQUAr5CQDEoXyGv6lUIKATcIqAYlFuIVAaFgELAVwgoBuUr5FW9CgGFgFsEFINyC5HKoBBQCPgKAcWgfIW8qlchoBBwi4B8C1rTbddv3KJIvGNtggTxTFfsnb58+Yq2/r2TihYpwLvQRrZ3k4e57t17QN8OHE39+nShxIkSeHg30bXrNyke71hs3vX40aPHhO270XfkwVbcMorCO+g+43xWFC9eHIrM24PfuHlbZAnPu+bGjBVTur27Vga2VNfyY5fdmLwFOrZ8/xDpJuOC9yxZssSUKKH754et3+8/eKhjGS9eXKdn9yHiZNWnZ8+e02Xe8PQp/yZMGJ+SJklklTXY6Xfu3qMTJ89Q0cIFgl2WuwLcMigwl/ZffUNJEieiaZOHuStPev3a9Rs0ZMREmj55OGXOlF6aJ7iJL168oGPHT9GzZ8+CVFSjJh2of9+uVKJ4IYf7lyxbS0eOnKBxo/sT8lhRsaIFads/u60u0zc9OpJfmpTUun1PhzyFCualxg1rU7asGR3ScXLhwmWn/ClTJqfe3dvzbrvO+Z0KCAUJR4+dpBTJk7rcrn7OvMU0b8FSMUDcu/+AOnVoSZ9WK++y9Rs3b6VJU2c75CmQLzf16NaWEsQP2kDqUFgYOvljyz80ZPhEhxaXLlmU+vbu5JDmrZPdew7Q6HHTadNvP1P48CGrhLllUHv2HhD9OnHqDJ3nDyatXyqP+5mKP6pfFky3NTJ6XPh7vOH3tQvpzZs3osYOnb+lIoXzU8N6n4pzSDjatf8CnlCtui1p9IhvKVeOLOJ6RJZAz569II6XLJpJ0aNFozNnz9PylRuoR+8htHjhDIoePZq4bv5v8YIZFCtWDIH/mnWbqH2nPrR+9QKKzFJbaKdho6YwQ+1gyaCePHkqmNO333QW25sv/HkFzZu/xC2DQr/BrOfOGk+PH//HWF6gH+b8TKPGTKeRw74J7bB4rX2QJMGcWjVvSHU/q0YRIkRgqfsWBfz3xGt1mAsqX/YTKlggd4gzJ9TrlkGt/W0zVa9Wga5evU6/b/qL2rRsbG6vfv7Hn//Qho1/EUbNGKyOQKro2K4Z3blzj77uOZhGD+8jJDGMmPgYz567SP9s30PxWX2qW7sqfZQrG03mUfHY8dMMQB6qXbMSZc+WWZSv3XPl32uEelB+2dLFqekXdSgSq04y2rT5b8IHjZc3f76PqGXzBpQyRTJZVltpYDIaReCRI0KE8NK6I0d6KbJFjhRReh0Xo0WLSjlzZCWoJlu2bqeLl65YSkXhwodj1TgKZcmcQeC2bv0fzKwu6dKoq35Copzx/XzavmMvRYkahapULC2eR1aW2EqVKEKQRP7aupOGDOyhdY389x+mmbMW0MypI/Q0V3XInnuLZvWpb79RdO3aDeo/aAzFiBmDvmhUWzwzvVA+0J5dADN1MPgr/161xMF4n3aMgSEWq8p5cuegyhVK0ZgJM0U5SIfa/8OcRbRj5z6Bc/lyJcR7hntR17z5S2nX7v2EwRfMDoNNxfKlaMeufbTlrx0C758XryQwgQL8QXZo21SXzqDq/7RwmcD1X34nC32clz7n/qVJnVI0De9rTO4z3ldgl4jNDmVKFaNaNSrpA5EMN3wvIFdtFxne/nf7zl1xlC9vLsGccAJtx0iuysK32aXHQOrH0ta4id8LLBrWq0EHDh2jSeMG6Uzo1atX1JEH5Zo1Kop+/bJ4FU0YO1BUAyznMxbb+Fs+feacwHJw/+6MRQo6fuI0LWIM/f0PU6aM6ah+3eri2za2z9WxS/ns9u27tH3nXipdsgiDW5RWr9lIUKVkhI5CjStZojBNnTSMvu7Shh9woDqHzl25cpWgLoLu3rvPH81PwqYyanhfKsPi6LiJ31Hnr/vzR5eBBvbvJl6Knt8M020+2j2wy4wY+g21adWYO76CFv6yUtYc2rnbn4aNmkwfF8xDqAOiaM8+w+jpU2sV8AXbkPBBG/9QX0gSGD8obpzYtqrx339E5Evy1sbgrp8TJv8gPqKe3doJBrH+9y20dPlagS8Kevw4gP592watAU+ePhUvmnbuqg6r5x4lcmRq1qSeKKJFU2ZWvb6i/PwRmSlixAjUukVjGsuMpU+/kWyr3EVNPq9jzmbrfOee/YJBgDnhufUfPJbfu2vUk1ViMI8Z380jMHcQ3uslv66hFjxo/fj9OGrauA4lT5ZUXHsS8FQw7o2btlL3rl/S4AHdxWA6cMh4cR3/zZw1n5YsXU3FeRAeMqgHv6dvqGv3geLdxnW8r9NmzhUD+zc9O1KdWlVo9tyfBfa4boUbrrlrO/JoBPUZNrtRY6fTufMXtWT9111Z2reJb+MTNm+MG9WfSvH3CHPJoSPH9XIOs5kDjPyjnNkI+Fzm71kjfMu/LFlFNapXoCkThtJnNSuzDSyhkOS69xpCsXkAgVSbN29O6tV3uLSdWlnm33cigfkKn2/842/KwgwDKlqypElEjp27/Kl4sY+dcmOkAGXNkkFwTnBPVwRQ233ZRHB93DOXxfpsWTMRRl5QRBZVu3QfIEYSzTgPI3bXTm0ILzVRZiFp4SVp0vgzcY/xv2XL11G5Mp9QAx4NQF07taLqtZvxh3eeJZdAtcuYH8dgaDTKnEqUO1d258RgpJw/f0l8OBcuXqHvf1hAsEMlSxaIr6zY9Ru2iMmFAwePig+rUf1aOkNz1c9MGdOyRLuFP7K2lDdPTlG0H4/wZjuYrE5jmqs6tEkD2XNH/aDUXCdGTyuKzeorCIxwxJDelDFD4H34iB88fEjp0qaR3nqXr69a8zs9fPiYdrMp4sjREzRscC+R98TJs+J83uyJutTcoG4N2vznNqrMUuS5c5eE5I52xWJJR5N8jBWBsWnvcatmDQTDu8SG6GRJEwvm1uWrVlStSjlxS9bMGemL5p2ERqCl4cLgAT30iaH9/PxOnTon8rv6Xty1XRTw9j9I9RiAh42cTC2/7E6wwzWsX0NoI8hit6yaLNlButEI7/yWLTv0d38zay0YYBInTkh09KSWjcDgwOhhYy1bprhI1+ypm//4R/S9a6fWQkCANvT3tt0s0fpbPlO94LcHlgwKYhvUoxT84SxfuV5kh5iKEUjGoLJnyyRUuuatvxaMAaKsK4M4XgzoyyCMeGBYuT96xwiSJw/8YJ8ajN4oL5A5idsoZ/bMtGzFOgp48iQw4e3/aDvURLS3H6sXRoIqZcWg2rVpInRrY/6lbCTHKOxN6vHNUGGDSsHqZt061VjtqOayeP8DhwkSCT7g+nU/1Zm4u35GY5UOBNVQIz+/1NqhrV93dVQsX9Kj526u9FceSKbOmEO9mBng5R00dAJNmTiEJxRS0awfF7E0+5xnZjubbxPneO4YMCEVa8wJzB6kSRPf8QCg0eXLV+nWrTvitAKrexiAGzRux/auCvQpj/7m2d9UKd+ZAzB4gjDT+OJFoFSd4635AemYnc7G38Cp0+dxKigXq/DGWeu0jP3efQfFNVffi7u2vy1e/wETnTFlOPkfOEJLmVlgYP+qfXOWaCq6xUErpACbQIxUqWIpmsjSN4QI0J9siO/csaUxizi+xJiCsvO3aKbTbGMFDRgyTr8EdRjmCbtkyaAOHj4m7AeYrty2PXB2CnafXSxGY0pYcFJDLeDkg/p1o0OHjwuO2rZjb8KI1apFQ0Oud4fQz82EaXRPCLYHUDj+ZySM6nh5wQSNwH9S9GPKlMl6JAdDS53KUfKLy1KbtxkUjOSezDRBRUD+uWwzgcQIqRCjvrt+3r8fOA0fPXpUHR4weHfT+M+ePtfzu6vD0+euF/z24Me5v/A70ojKly0hbGJQozp06iuYEqS/QWzLsCLYjSAxgYl26TaAlq9YL6RR5NdUeTxzI0UQ0jeJ93f2zDFCpVz4ywphLhjC0g4mPjTCwKlRzJiB7ybcQ56yCgwyu3xA6teu4borqdgVbu7ajrLNhLbmYykZf1A/Z81eJBiv3bLMEzRwIRjOExz7/A/R6zeB3xPchMyESQ6QbMLmKV9LyIKH8RngGN+ZXbJkUL+t/5NKfFKY+rNfkUZ4EerziLORjX6NGtTUkh1+c+XMSviDQX3E6KlC93fIEIyTiyxeow3ai3OOVSV8bDA4w19JI0hmObJnESOdJnZq18Lybz2epVm1egP9tOBXatfmCyGBuuonfNdAJ06c0Q2neGFv3Q6UInANLxakCojqmkRrtC/YxVL23LXnZGXHgz0TAwmYLQgG8/59u7BRfaywVUACKWpgGCKT5D/UAwM2VFcYaovxh5QhvZ/ImSGDn5DGJLexNB6RSrNttRTbWGED+5ntKEYGdfPWbR03qOMgDGCaYR+SgGZ+wHt58vQ5Ks0TD56QDDc7bXdVRw6WZmATAu5BLQsMq0K5kjyBs0MMhJUqlBbfmbleP7/ASQGYLcyDLiR3qH/AOKjuCOHNFeIcHztmdyAGGwkvQrWq5YTejwdiJLggHDh0VBiYMSMDURhT6ZF4JstbhBmhBYuW0yOeVsbsAGZKMBMlo7Kli4nZMQAExzI49W3dtstJHZTdG1rT4ETalhnT0mVrdNHdVT+Tsq0ENkSo6DDa3mcfoxnf/eTQPfhmgUlAdcdsFSRg2AON5KoOV88d6g3shmAamCCBumYkfOhgQov5GWHmEJMye3nEvvLWaI/ZV9h87FAGtltVqVRWzAJjkgMfBySYaTPmEmx3YMz4iPCOgvZxfVClwJiBzd279yk+z6gaaSrfe5OZNxx0cZwxQzox+sPptuQnRWjStB9FmQ8fPhIzgpgIKsdT8HbIFW7u2m4s/wzbVDexqoqJDnwXp5hJzpv/K33Ms+DA15OyjOXiuBzblMAHYLcrVzbQvmTOg28cdQEL1I13CLP4wATMHu/W1Olz6MLFy/r7dfFS4DOF4X3g0PG6tGsuG+dS7rGFp51Rcf68jnopbkCjZ7O/CVRAo/EYDcK0MhoEwouJGRAxKjNjM1L4cOFZCjKmcEOYkWE6XSNNbdNGYaTDSAc7DGZDQJi2heuAoLcFavmrVy1PATzbABvSdJ69AUElyGOwc4lEw3/avYYkIa0Z2+VwzaRa6tf0bugH+iUcyOpxyGA6MeZHn5ct/42mTJsjnEdd9RP39e7Zgf1kJtFn9VuLUqtXKe+gesC2AhvY+Enfiz88t5bNGrL9Z6HeCld1uHzuXEJznsGDdAJb4ZetPhe+OnrBfAD1dciISdSt12A9uQ67nDTgKe6x42eyk3Afms72FUzUuKNmTerS2t820eKla4TkPnZkP/aLmkZdeRpdo/ZfNhXvLVxcMKunEZhPT3by1Ag4YPapfuPANOA0mGeXtWfR5auWjNcsavFlN3ELJHmom5hVA8neceM77wo3SC+u2i4qePsfZlwncDu07w7J0Hw6s7MryG1Zpu9G3PT2P7j9AAdImhhIdDK91vBhGzFmKn3ZoZfIAt4xg11UMNmBGffv2GVl+ar1+rXhQ5AvBc+MXmAXlx3Chyu5xSRRuOfPnzuKQnorPD+AvQKewJHZoKuJ7Z6XIr8DbggYgXv36CBGChiNZXqv7G5IT1hmYtazZXnDcpqrfmJ0jRY1qphk+KJFZ+EPVLVyWb27kCQgOcdhdwftI9QvGg5kdbh77lgqhJE1blzrsvFs8bHF4aU8ruo3NMX2IeoPCAgQ/lKaGoubkY4+w74EPzON4J8Ew/2vv3wvNIJXr15bvjso49nz50F6393hprVR1natrdovGN4LVukgBVrhZ4WDVkZwfyElA8/YsWPq5gKtTGhVUDlhN9bap/XfrBpq9+BXKkEZM3hyDD3TVWWelOUqr6fMz66Pkas6w8I1V/10hxk+XEwIuCNZHe6eOwaSyJFdlw110Djj5a4dnly3qh/pmg3Jqjwj45LlCSw7kuyS2zR3uKEAq7abCzcb7M3XPSlLdq+dNEzAQP2VkUw4sNN/qQ1KVoFKUwgoBBQC7xsBr6p4Idl4GANfsQrpyrcqJOv/kMqGgTg5G9BdTYN/SP31tC8wjF/gGTost1LkWwTCDIPyLUyqdoWAQsAXCCgVzxeoqzoVAgoBWwgoBmULJpVJIaAQ8AUCikH5AnVVp0JAIWALAcWgbMGkMikEFAK+QEAxKF+grupUCCgEbCGgGJQtmFQmhYBCwBcIKAblC9RVnQoBhYAtBBSDsgWTyqQQUAj4AgHFoHyBuqpTIaAQsIXA/wCKG+CvC0+0uwAAAABJRU5ErkJggg==;" parent="20_UKiPUlIuUFfPaS6IC-4" vertex="1">
          <mxGeometry width="211.43" height="80" as="geometry" />
        </mxCell>
        <mxCell id="20_UKiPUlIuUFfPaS6IC-1" value="" style="shape=image;html=1;verticalAlign=top;verticalLabelPosition=bottom;labelBackgroundColor=#ffffff;imageAspect=0;aspect=fixed;image=https://cdn1.iconfinder.com/data/icons/unicons-line-vol-3/24/docker-128.png" vertex="1" parent="20_UKiPUlIuUFfPaS6IC-4">
          <mxGeometry x="190" y="70" width="28" height="28" as="geometry" />
        </mxCell>
        <mxCell id="20_UKiPUlIuUFfPaS6IC-3" value="" style="shape=image;html=1;verticalAlign=top;verticalLabelPosition=bottom;labelBackgroundColor=#ffffff;imageAspect=0;aspect=fixed;image=https://cdn1.iconfinder.com/data/icons/unicons-line-vol-3/24/docker-128.png" vertex="1" parent="1">
          <mxGeometry x="740" y="120" width="28" height="28" as="geometry" />
        </mxCell>
        <mxCell id="20_UKiPUlIuUFfPaS6IC-6" value="" style="group" vertex="1" connectable="0" parent="1">
          <mxGeometry x="120" y="280" width="80" height="80" as="geometry" />
        </mxCell>
        <mxCell id="criwHfPJJqmuLG_6KfQK-8" value="GoTestWAF" style="whiteSpace=wrap;html=1;aspect=fixed;" parent="20_UKiPUlIuUFfPaS6IC-6" vertex="1">
          <mxGeometry width="80" height="80" as="geometry" />
        </mxCell>
        <mxCell id="20_UKiPUlIuUFfPaS6IC-5" value="" style="shape=image;html=1;verticalAlign=top;verticalLabelPosition=bottom;labelBackgroundColor=#ffffff;imageAspect=0;aspect=fixed;image=https://cdn1.iconfinder.com/data/icons/unicons-line-vol-3/24/docker-128.png" vertex="1" parent="20_UKiPUlIuUFfPaS6IC-6">
          <mxGeometry x="52" y="52" width="28" height="28" as="geometry" />
        </mxCell>
      </root>
    </mxGraphModel>
  </diagram>
</mxfile>
